Preview_wght:wdth 4 GRAD-wght_577.78_wdth_78.86.ufo
<glyph name="numbersign" format="2">
  <advance width="1202"/>
  <unicode hex="0023"/>
  <outline>
    <contour>
      <point x="72.32389322916667" y="454.18092447916666" type="line"/>
      <point x="72.32389322916667" y="639.7777777777778" type="line"/>
      <point x="1042.9009548611111" y="639.7777777777778" type="line"/>
      <point x="1042.9009548611111" y="454.18092447916666" type="line"/>
    </contour>
    <contour>
      <point x="158.9341579861111" y="841.2222222222222" type="line"/>
      <point x="158.9341579861111" y="1026.8190755208334" type="line"/>
      <point x="1129.5112196180555" y="1026.8190755208334" type="line"/>
      <point x="1129.5112196180555" y="841.2222222222222" type="line"/>
    </contour>
    <contour>
      <point x="120.68342013888889" y="-16.48617621527778" type="line"/>
      <point x="617.3513020833333" y="1540.1155164930556" type="line"/>
      <point x="715.4567491319444" y="1515.6044053819444" type="line"/>
      <point x="219.01046006944443" y="-40.99728732638889" type="line"/>
    </contour>
    <contour>
      <point x="501.7485894097222" y="-16.48617621527778" type="line"/>
      <point x="998.8393229166666" y="1540.1155164930556" type="line"/>
      <point x="1097.1663628472222" y="1515.6044053819444" type="line"/>
      <point x="600.0756293402778" y="-40.99728732638889" type="line"/>
    </contour>
  </outline>
</glyph>
<glyph name="ampersand" format="2">
  <advance width="1473"/>
  <unicode hex="0026"/>
  <outline>
    <contour>
      <point x="519.2733072916667" y="-28.0" type="qcurve" smooth="yes"/>
      <point x="274.4041666666667" y="-28.0"/>
      <point x="41.26686197916667" y="194.12471788194443"/>
      <point x="46.729123263888894" y="365.54296875" type="qcurve" smooth="yes"/>
      <point x="50.68153211805556" y="512.1800998263889"/>
      <point x="248.25868055555554" y="740.6119574652778"/>
      <point x="534.1120442708334" y="904.091796875" type="qcurve"/>
      <point x="646.0349175347222" y="972.194140625"/>
      <point x="738.3996744791667" y="1119.2222222222222"/>
      <point x="738.3996744791667" y="1209.2222222222222" type="qcurve" smooth="yes"/>
      <point x="738.3996744791667" y="1293.828515625"/>
      <point x="657.6718098958333" y="1400.8507378472223"/>
      <point x="575.6493923611112" y="1400.8507378472223" type="qcurve" smooth="yes"/>
      <point x="493.24479166666663" y="1400.8507378472223"/>
      <point x="397.5842230902778" y="1296.8335503472222"/>
      <point x="396.8731119791667" y="1206.4557725694444" type="qcurve" smooth="yes"/>
      <point x="396.16200086805554" y="1119.9528428819444"/>
      <point x="494.4707899305556" y="946.8509331597222"/>
      <point x="596.7422526041667" y="904.5882378472222" type="qcurve"/>
      <point x="1029.2861979166667" y="276.9192925347222" type="line" smooth="yes"/>
      <point x="1079.6748697916667" y="202.91929253472222"/>
      <point x="1166.8362847222222" y="127.05891927083334"/>
      <point x="1219.2142578125" y="127.05891927083334" type="qcurve" smooth="yes"/>
      <point x="1266.914040798611" y="127.05891927083334"/>
      <point x="1324.2069010416667" y="159.32118055555557"/>
      <point x="1354.5345703125" y="199.65451388888889" type="qcurve"/>
      <point x="1430.9326822916667" y="125.18532986111111" type="line"/>
      <point x="1391.4297526041667" y="56.185329861111114"/>
      <point x="1262.5387803819444" y="-31.704188368055554"/>
      <point x="1155.3557725694445" y="-31.92578125" type="qcurve" smooth="yes"/>
      <point x="1051.6826171875" y="-32.147374131944446"/>
      <point x="897.3796875" y="56.05431857638889"/>
      <point x="812.0524522569444" y="181.68428819444443" type="qcurve" smooth="yes"/>
      <point x="398.9929904513889" y="793.7163411458333" type="line"/>
      <point x="308.9814670138889" y="853.2348090277778"/>
      <point x="185.15677083333333" y="1055.716579861111"/>
      <point x="187.640625" y="1187.2589192708333" type="qcurve" smooth="yes"/>
      <point x="190.12447916666667" y="1340.9000217013888"/>
      <point x="404.2280381944445" y="1524.139626736111"/>
      <point x="573.8359809027778" y="1524.139626736111" type="qcurve" smooth="yes"/>
      <point x="733.2298828125" y="1524.139626736111"/>
      <point x="905.7120442708333" y="1349.545920138889"/>
      <point x="902.8675998263889" y="1204.5255859375" type="qcurve" smooth="yes"/>
      <point x="900.0231553819444" y="1064.911111111111"/>
      <point x="720.9059895833334" y="873.2222222222222"/>
      <point x="607.5173177083334" y="818.1538628472222" type="qcurve"/>
      <point x="439.2869574652778" y="713.5276692708334"/>
      <point x="303.3706163194445" y="520.3765190972222"/>
      <point x="304.0404296875" y="390.314453125" type="qcurve" smooth="yes"/>
      <point x="304.8442057291667" y="263.0255642361111"/>
      <point x="440.86681857638894" y="128.20963541666666"/>
      <point x="576.6563151041667" y="128.20963541666666" type="qcurve" smooth="yes"/>
      <point x="790.3241970486112" y="128.20963541666666"/>
      <point x="1165.914865451389" y="528.4766927083333"/>
      <point x="1260.441232638889" y="852.8477864583333" type="qcurve"/>
      <point x="1389.2647135416667" y="838.2033420138889" type="line"/>
      <point x="1306.0469401041667" y="466.8439670138889"/>
      <point x="800.2256727430556" y="-28.0"/>
    </contour>
    <contour>
      <point x="924.6247612847221" y="839.3238932291666" type="line"/>
      <point x="952.2482421875" y="898.9651909722222"/>
      <point x="1041.5016927083334" y="968.314453125"/>
      <point x="1082.5817708333334" y="968.314453125" type="qcurve" smooth="yes"/>
      <point x="1122.6618489583334" y="968.314453125"/>
      <point x="1252.2111111111112" y="903.1259765625"/>
      <point x="1290.8930772569445" y="903.1259765625" type="qcurve" smooth="yes"/>
      <point x="1317.0874131944445" y="903.1259765625"/>
      <point x="1364.8320746527777" y="917.4477864583333"/>
      <point x="1390.4492621527777" y="938.514453125" type="qcurve"/>
      <point x="1473.7324869791667" y="851.7404513888889" type="line"/>
      <point x="1420.3354383680555" y="767.2469618055555"/>
      <point x="1344.5538845486112" y="720.2465277777778"/>
      <point x="1296.7081814236112" y="721.0922309027778" type="qcurve" smooth="yes"/>
      <point x="1269.9272569444445" y="721.5150824652778"/>
      <point x="1129.9184461805555" y="800.3207465277778"/>
      <point x="1094.9926649305555" y="800.3207465277778" type="qcurve" smooth="yes"/>
      <point x="1060.0668836805555" y="800.3207465277778"/>
      <point x="1011.4216145833334" y="785.6635199652778"/>
      <point x="989.6901692708334" y="767.7777777777778" type="qcurve"/>
    </contour>
  </outline>
</glyph>
<glyph name="quotesingle" format="2">
  <advance width="543"/>
  <unicode hex="0027"/>
  <outline>
    <contour>
      <point x="231.42513020833331" y="908.1777777777778" type="line"/>
      <point x="125.57230902777778" y="1400.8792534722222" type="line"/>
      <point x="125.57230902777778" y="1459.9014756944443"/>
      <point x="196.43142361111111" y="1558.0"/>
      <point x="271.77942708333336" y="1558.0" type="qcurve" smooth="yes"/>
      <point x="346.7045789930556" y="1558.0"/>
      <point x="417.91924913194447" y="1459.9014756944443"/>
      <point x="417.91924913194447" y="1400.8792534722222" type="qcurve"/>
      <point x="310.0664279513889" y="908.1777777777778" type="line"/>
    </contour>
  </outline>
</glyph>
<glyph name="parenleft" format="2">
  <advance width="664"/>
  <unicode hex="0028"/>
  <outline>
    <contour>
      <point x="72.15221354166667" y="665.2444444444444" type="qcurve" smooth="yes"/>
      <point x="72.15221354166667" y="924.0666666666667"/>
      <point x="373.40000000000003" y="1410.3555555555556"/>
      <point x="564.4666666666667" y="1525.6444444444444" type="qcurve"/>
      <point x="646.6222222222223" y="1457.2444444444445" type="line"/>
      <point x="533.6444444444445" y="1330.4444444444443"/>
      <point x="373.1077690972223" y="903.0222222222222"/>
      <point x="373.1077690972223" y="665.6" type="qcurve" smooth="yes"/>
      <point x="373.1077690972223" y="427.46666666666664"/>
      <point x="530.3555555555556" y="3.866666666666666"/>
      <point x="646.9777777777778" y="-122.84444444444445" type="qcurve"/>
      <point x="568.0222222222222" y="-194.8" type="line"/>
      <point x="373.7555555555556" y="-75.24444444444444"/>
      <point x="72.15221354166667" y="396.77777777777777"/>
    </contour>
  </outline>
</glyph>
<glyph name="parenright" format="2">
  <advance width="664"/>
  <unicode hex="0029"/>
  <outline>
    <contour>
      <point x="592.3366753472222" y="665.2444444444444" type="qcurve" smooth="yes"/>
      <point x="592.3366753472222" y="396.77777777777777"/>
      <point x="290.73333333333335" y="-75.24444444444444"/>
      <point x="96.11111111111111" y="-194.8" type="qcurve"/>
      <point x="17.51111111111111" y="-122.84444444444445" type="line"/>
      <point x="134.13333333333333" y="3.866666666666666"/>
      <point x="291.0255642361111" y="427.46666666666664"/>
      <point x="291.0255642361111" y="665.6" type="qcurve" smooth="yes"/>
      <point x="291.0255642361111" y="903.0222222222222"/>
      <point x="130.84444444444443" y="1330.4444444444443"/>
      <point x="17.866666666666667" y="1457.2444444444445" type="qcurve"/>
      <point x="100.02222222222223" y="1525.6444444444444" type="line"/>
      <point x="291.0888888888889" y="1410.3555555555556"/>
      <point x="592.3366753472222" y="924.0666666666667"/>
    </contour>
  </outline>
</glyph>
<glyph name="plus" format="2">
  <advance width="963"/>
  <unicode hex="002B"/>
  <outline>
    <contour>
      <point x="67.61278211805555" y="537.0501085069444" type="line"/>
      <point x="67.61278211805555" y="726.9498914930556" type="line"/>
      <point x="895.3317925347222" y="726.9498914930556" type="line"/>
      <point x="895.3317925347222" y="537.0501085069444" type="line"/>
    </contour>
    <contour>
      <point x="375.65635850694446" y="195.79162326388888" type="line"/>
      <point x="375.65635850694446" y="1068.2083767361112" type="line"/>
      <point x="587.2882161458333" y="1068.2083767361112" type="line"/>
      <point x="587.2882161458333" y="195.79162326388888" type="line"/>
    </contour>
  </outline>
</glyph>
<glyph name="period" format="2">
  <advance width="564"/>
  <unicode hex="002E"/>
  <outline>
    <contour>
      <point x="110.81927083333332" y="143.76456163194445" type="qcurve" smooth="yes"/>
      <point x="110.81927083333332" y="211.114453125"/>
      <point x="207.01171875" y="310.46182725694445"/>
      <point x="281.42764756944445" y="310.46182725694445" type="qcurve" smooth="yes"/>
      <point x="356.2664279513889" y="310.46182725694445"/>
      <point x="452.81443142361115" y="211.114453125"/>
      <point x="452.81443142361115" y="143.76456163194445" type="qcurve" smooth="yes"/>
      <point x="452.81443142361115" y="77.7029296875"/>
      <point x="356.2664279513889" y="-22.0"/>
      <point x="281.42764756944445" y="-22.0" type="qcurve"/>
      <point x="207.01171875" y="-22.0"/>
      <point x="110.81927083333332" y="77.7029296875"/>
    </contour>
  </outline>
</glyph>
<glyph name="one" format="2">
  <advance width="856"/>
  <unicode hex="0031"/>
  <outline>
    <contour>
      <point x="67.17337239583333" y="0.0" type="line"/>
      <point x="67.17337239583333" y="102.55240885416667" type="line"/>
      <point x="300.4752387152778" y="137.55240885416666" type="line"/>
      <point x="300.4752387152778" y="754.0" type="line"/>
      <point x="298.4752387152778" y="1344.7643663194444" type="line"/>
      <point x="65.17337239583333" y="1372.8444444444444" type="line"/>
      <point x="65.17337239583333" y="1487.5111111111112" type="line"/>
      <point x="555.3540581597223" y="1510.5111111111112" type="line"/>
      <point x="587.3540581597223" y="1475.5111111111112" type="line"/>
      <point x="581.3540581597223" y="754.0" type="line"/>
      <point x="581.3540581597223" y="137.55240885416666" type="line"/>
      <point x="814.6559244791667" y="102.55240885416667" type="line"/>
      <point x="814.6559244791667" y="0.0" type="line"/>
    </contour>
  </outline>
</glyph>
<glyph name="two" format="2">
  <advance width="1034"/>
  <unicode hex="0032"/>
  <outline>
    <contour>
      <point x="54.727473958333334" y="0.0" type="line"/>
      <point x="54.727473958333334" y="135.86666666666667" type="line"/>
      <point x="70.79036458333334" y="261.2888888888889"/>
      <point x="234.84526909722223" y="517.4654079861111"/>
      <point x="376.9572048611111" y="650.2031467013888" type="qcurve" smooth="yes"/>
      <point x="524.4437717013889" y="787.0272569444444"/>
      <point x="642.6198567708333" y="980.2666666666667"/>
      <point x="642.6198567708333" y="1111.6666666666667" type="qcurve" smooth="yes"/>
      <point x="642.6198567708333" y="1227.0444444444445"/>
      <point x="529.9536241319445" y="1345.7276692708333"/>
      <point x="434.71673177083335" y="1345.7276692708333" type="qcurve" smooth="yes"/>
      <point x="346.54505208333336" y="1345.7276692708333"/>
      <point x="192.0685546875" y="1255.0362630208333"/>
      <point x="132.4708767361111" y="1175.0475911458334" type="qcurve"/>
      <point x="48.48491753472223" y="1286.1777777777777" type="line"/>
      <point x="117.8513671875" y="1384.3777777777777"/>
      <point x="352.75575086805554" y="1522.1333333333334"/>
      <point x="528.4613932291667" y="1522.1333333333334" type="qcurve" smooth="yes"/>
      <point x="715.3479600694445" y="1522.1333333333334"/>
      <point x="942.0548611111111" y="1325.9396267361112"/>
      <point x="943.8326388888889" y="1142.8507378472223" type="qcurve" smooth="yes"/>
      <point x="945.9659722222223" y="936.9033637152778"/>
      <point x="716.0848741319445" y="661.776953125"/>
      <point x="572.0372829861111" y="562.9524088541667" type="qcurve" smooth="yes"/>
      <point x="418.27083333333337" y="458.67063802083334"/>
      <point x="276.4373263888889" y="309.64444444444445"/>
      <point x="249.90776909722223" y="234.95555555555558" type="qcurve"/>
      <point x="256.9287326388889" y="221.82222222222225" type="line"/>
      <point x="976.6651258680556" y="221.82222222222225" type="line"/>
      <point x="976.6651258680556" y="0.0" type="line"/>
    </contour>
  </outline>
</glyph>
<glyph name="three" format="2">
  <advance width="1035"/>
  <unicode hex="0033"/>
  <outline>
    <contour>
      <point x="-3.380295138888891" y="136.86918402777778" type="qcurve"/>
      <point x="76.82599826388889" y="256.4178168402778" type="line"/>
      <point x="141.8565972222222" y="180.94422743055557"/>
      <point x="281.1850911458333" y="125.24633246527779"/>
      <point x="376.6100260416667" y="125.24633246527779" type="qcurve" smooth="yes"/>
      <point x="484.4381076388888" y="125.24633246527779"/>
      <point x="632.9303385416666" y="259.90733506944446"/>
      <point x="632.9303385416666" y="411.8888888888889" type="qcurve" smooth="yes"/>
      <point x="632.9303385416666" y="580.2444444444444"/>
      <point x="429.7833984375" y="720.8888888888889"/>
      <point x="277.4739800347222" y="720.8888888888889" type="qcurve" smooth="yes"/>
      <point x="231.30186631944446" y="720.8888888888889" type="line"/>
      <point x="198.39516059027778" y="836.1111111111111" type="line"/>
      <point x="295.15972222222223" y="841.1111111111111" type="line" smooth="yes"/>
      <point x="441.0926215277778" y="848.4"/>
      <point x="608.5125217013889" y="997.8222222222222"/>
      <point x="607.4458550347222" y="1151.7555555555555" type="qcurve" smooth="yes"/>
      <point x="606.7347439236111" y="1262.0"/>
      <point x="499.7511067708333" y="1369.0584852430557"/>
      <point x="412.69639756944446" y="1369.0584852430557" type="qcurve" smooth="yes"/>
      <point x="327.2429470486111" y="1369.0584852430557"/>
      <point x="190.68467881944446" y="1298.0610026041666"/>
      <point x="126.01970486111111" y="1228.5605902777777" type="qcurve"/>
      <point x="55.00648871527778" y="1340.9220052083333" type="line"/>
      <point x="123.79075520833334" y="1421.0597439236112"/>
      <point x="340.5787977430556" y="1521.4222222222222"/>
      <point x="497.67291666666665" y="1521.4222222222222" type="qcurve" smooth="yes"/>
      <point x="689.0718532986111" y="1521.4222222222222"/>
      <point x="917.4573784722222" y="1340.139626736111"/>
      <point x="917.4573784722222" y="1184.3555555555556" type="qcurve" smooth="yes"/>
      <point x="917.4573784722222" y="1025.5777777777778"/>
      <point x="748.1244791666667" y="845.0666666666667"/>
      <point x="581.4341362847223" y="805.3333333333334" type="qcurve"/>
      <point x="581.4341362847223" y="798.3333333333334" type="line"/>
      <point x="744.5689236111111" y="774.8888888888889"/>
      <point x="953.2745659722223" y="575.0062934027778"/>
      <point x="953.2745659722223" y="398.0951822916667" type="qcurve" smooth="yes"/>
      <point x="953.2745659722223" y="203.89518229166666"/>
      <point x="673.6959635416667" y="-23.422222222222224"/>
      <point x="445.65635850694446" y="-23.422222222222224" type="qcurve" smooth="yes"/>
      <point x="291.3959852430556" y="-23.422222222222224"/>
      <point x="55.849674479166666" y="65.71236979166666"/>
    </contour>
  </outline>
</glyph>
<glyph name="nine" format="2">
  <advance width="1144"/>
  <unicode hex="0039"/>
  <outline>
    <contour>
      <point x="47.83815104166667" y="992.6591145833333" type="qcurve" smooth="yes"/>
      <point x="47.83815104166667" y="1239.4106987847222"/>
      <point x="320.7121310763889" y="1522.3345920138888"/>
      <point x="533.2953342013889" y="1522.3345920138888" type="qcurve" smooth="yes"/>
      <point x="773.0493923611111" y="1522.3345920138888"/>
      <point x="1078.9286024305557" y="1171.6056640625"/>
      <point x="1078.9286024305557" y="863.6501085069444" type="qcurve" smooth="yes"/>
      <point x="1078.9286024305557" y="510.40566406249997"/>
      <point x="637.0638671875" y="6.937738715277767"/>
      <point x="258.55594618055557" y="-73.72892795138888" type="qcurve"/>
      <point x="239.58446180555558" y="42.02977430555556" type="line"/>
      <point x="482.07771267361113" y="120.5853298611111"/>
      <point x="780.1170789930555" y="512.2044053819445"/>
      <point x="780.1170789930555" y="870.7821831597222" type="qcurve" smooth="yes"/>
      <point x="780.1170789930555" y="1153.6710720486112"/>
      <point x="644.532421875" y="1402.445703125"/>
      <point x="534.3575954861111" y="1402.445703125" type="qcurve" smooth="yes"/>
      <point x="432.78446180555557" y="1402.445703125"/>
      <point x="324.6096354166667" y="1212.6069227430555"/>
      <point x="324.6096354166667" y="1035.4710720486112" type="qcurve" smooth="yes"/>
      <point x="324.6096354166667" y="850.7981119791666"/>
      <point x="437.20876736111114" y="703.8532552083333"/>
      <point x="532.1311631944444" y="703.8532552083333" type="qcurve" smooth="yes"/>
      <point x="570.8034939236111" y="703.8532552083333"/>
      <point x="630.4506510416667" y="718.0951822916667"/>
      <point x="654.3116536458333" y="729.565625" type="qcurve"/>
      <point x="691.2449869791667" y="646.3155164930555" type="line"/>
      <point x="661.8074652777777" y="612.0932942708333"/>
      <point x="539.2213107638889" y="558.27421875"/>
      <point x="450.9049696180556" y="558.27421875" type="qcurve" smooth="yes"/>
      <point x="264.70206163194445" y="558.27421875"/>
      <point x="47.83815104166667" y="790.3555555555555"/>
    </contour>
  </outline>
</glyph>
<glyph name="semicolon" format="2">
  <advance width="603"/>
  <unicode hex="003B"/>
  <outline>
    <contour>
      <point x="127.39472656249998" y="-223.42493489583333" type="line"/>
      <point x="174.10206163194445" y="-193.405859375"/>
      <point x="287.3364366319444" y="-79.1060763888889"/>
      <point x="310.7351779513889" y="-6.023480902777775" type="qcurve"/>
      <point x="219.85321180555553" y="-6.023480902777775"/>
      <point x="129.63854166666667" y="81.3918185763889"/>
      <point x="129.63854166666667" y="147.25282118055557" type="qcurve" smooth="yes"/>
      <point x="129.63854166666667" y="212.18111979166667"/>
      <point x="224.40876736111113" y="309.3951605902778"/>
      <point x="298.469140625" y="309.3951605902778" type="qcurve" smooth="yes"/>
      <point x="368.9523654513889" y="309.3951605902778"/>
      <point x="467.72259114583335" y="222.40208333333334"/>
      <point x="467.72259114583335" y="134.8318576388889" type="qcurve" smooth="yes"/>
      <point x="467.72259114583335" y="6.932074652777786"/>
      <point x="286.1815104166667" y="-222.4484157986111"/>
      <point x="173.54650607638888" y="-278.3538628472222" type="qcurve"/>
    </contour>
    <contour>
      <point x="130.34965277777778" y="830.1986979166667" type="qcurve" smooth="yes"/>
      <point x="130.34965277777778" y="897.9714409722222"/>
      <point x="226.54210069444446" y="997.3188151041666"/>
      <point x="300.9580295138889" y="997.3188151041666" type="qcurve" smooth="yes"/>
      <point x="375.79680989583335" y="997.3188151041666"/>
      <point x="472.3448133680556" y="897.9714409722222"/>
      <point x="472.3448133680556" y="830.1986979166667" type="qcurve" smooth="yes"/>
      <point x="472.3448133680556" y="764.5599175347222"/>
      <point x="375.79680989583335" y="664.8569878472222"/>
      <point x="300.9580295138889" y="664.8569878472222" type="qcurve" smooth="yes"/>
      <point x="226.54210069444446" y="664.8569878472222"/>
      <point x="130.34965277777778" y="764.5599175347222"/>
    </contour>
  </outline>
</glyph>
<glyph name="less" format="2">
  <advance width="963"/>
  <unicode hex="003C"/>
  <outline>
    <contour>
      <point x="116.84672309027778" y="634.0" type="qcurve"/>
      <point x="118.78005642361111" y="636.5777777777778"/>
      <point x="616.3695529513889" y="1048.3435980902777"/>
      <point x="682.0521484375" y="1103.3417100694444" type="qcurve" smooth="yes"/>
      <point x="752.8458550347223" y="1163.1626736111111"/>
      <point x="862.9290798611112" y="1044.4737847222223"/>
      <point x="801.2217447916667" y="979.0756727430555" type="qcurve" smooth="yes"/>
      <point x="682.4343315972222" y="853.9733723958333"/>
      <point x="453.02261284722226" y="647.1484375"/>
      <point x="439.8735460069445" y="637.0" type="qcurve"/>
      <point x="455.98257378472226" y="625.5830078125"/>
      <point x="689.6337022569445" y="423.18218315972223"/>
      <point x="802.4223741319445" y="305.0792534722222" type="qcurve" smooth="yes"/>
      <point x="863.6401909722223" y="240.52684461805555"/>
      <point x="753.0680772569444" y="121.39351128472221"/>
      <point x="687.5404079861111" y="177.10273437499998" type="qcurve" smooth="yes"/>
      <point x="622.2133680555555" y="233.38973524305555"/>
      <point x="118.13561197916667" y="631.8450737847222"/>
    </contour>
  </outline>
</glyph>
<glyph name="equal" format="2">
  <advance width="963"/>
  <unicode hex="003D"/>
  <outline>
    <contour>
      <point x="96.49789496527778" y="330.0136501736111" type="line"/>
      <point x="96.49789496527778" y="530.1496961805556" type="line"/>
      <point x="480.00562065972224" y="526.1496961805556" type="line"/>
      <point x="866.4466796875" y="530.1496961805556" type="line"/>
      <point x="866.4466796875" y="330.0136501736111" type="line"/>
      <point x="480.00562065972224" y="334.0136501736111" type="line"/>
    </contour>
    <contour>
      <point x="96.49789496527778" y="715.405859375" type="line"/>
      <point x="96.49789496527778" y="915.5419053819445" type="line"/>
      <point x="480.00562065972224" y="911.5419053819445" type="line"/>
      <point x="866.4466796875" y="915.5419053819445" type="line"/>
      <point x="866.4466796875" y="715.405859375" type="line"/>
      <point x="480.00562065972224" y="719.405859375" type="line"/>
    </contour>
  </outline>
</glyph>
<glyph name="C" format="2">
  <advance width="1291"/>
  <unicode hex="0043"/>
  <outline>
    <contour>
      <point x="67.90104166666667" y="696.3289279513889" type="qcurve" smooth="yes"/>
      <point x="67.90104166666667" y="1057.9148871527777"/>
      <point x="431.8364149305556" y="1517.462890625"/>
      <point x="732.9755642361112" y="1517.462890625" type="qcurve" smooth="yes"/>
      <point x="857.1610894097222" y="1517.462890625"/>
      <point x="1010.7329644097222" y="1448.3125651041667"/>
      <point x="1053.2486762152778" y="1408.3532335069444" type="qcurve"/>
      <point x="1078.6176432291666" y="1499.5771484375" type="line"/>
      <point x="1192.3268663194444" y="1499.5771484375" type="line"/>
      <point x="1192.3268663194444" y="1020.9771484375" type="line"/>
      <point x="1059.3960503472222" y="1020.9771484375" type="line"/>
      <point x="1028.1331597222222" y="1186.3446614583333" type="line" smooth="yes"/>
      <point x="1011.0061197916666" y="1274.6375217013888"/>
      <point x="888.7663194444444" y="1377.0184461805557"/>
      <point x="775.8353081597222" y="1377.0184461805557" type="qcurve" smooth="yes"/>
      <point x="588.0854600694445" y="1377.0184461805557"/>
      <point x="378.11634114583336" y="1059.8077473958333"/>
      <point x="378.55952690972225" y="734.92578125" type="qcurve" smooth="yes"/>
      <point x="379.00271267361114" y="413.95826822916666"/>
      <point x="596.65234375" y="132.26792534722222"/>
      <point x="784.6065972222223" y="132.26792534722222" type="qcurve" smooth="yes"/>
      <point x="923.0698784722222" y="132.26792534722222"/>
      <point x="1104.667947048611" y="240.58237847222222"/>
      <point x="1153.8985460069443" y="330.4978949652778" type="qcurve"/>
      <point x="1255.0972873263888" y="245.86477864583333" type="line"/>
      <point x="1184.1560112847221" y="121.65703125"/>
      <point x="919.2862413194443" y="-30.624739583333334"/>
      <point x="726.3457899305556" y="-30.624739583333334" type="qcurve" smooth="yes"/>
      <point x="432.89678819444447" y="-30.624739583333334"/>
      <point x="67.90104166666667" y="365.16644965277777"/>
    </contour>
  </outline>
</glyph>
<glyph name="E" format="2">
  <advance width="1201"/>
  <unicode hex="0045"/>
  <outline>
    <contour>
      <point x="48.32660590277777" y="0.0" type="line"/>
      <point x="48.32660590277777" y="108.97526041666667" type="line"/>
      <point x="224.5173611111111" y="144.41844618055555" type="line"/>
      <point x="226.5173611111111" y="760.4261935763889" type="line"/>
      <point x="224.5173611111111" y="1343.8704427083333" type="line"/>
      <point x="48.32660590277777" y="1377.8704427083333" type="line"/>
      <point x="48.32660590277777" y="1500.0" type="line"/>
      <point x="1076.2200086805556" y="1500.0" type="line"/>
      <point x="1076.2200086805556" y="1151.6062934027777" type="line"/>
      <point x="950.7774522569443" y="1151.6062934027777" type="line"/>
      <point x="920.0059678819443" y="1367.7777777777778" type="line"/>
      <point x="548.2165147569444" y="1367.7777777777778" type="line"/>
      <point x="513.777734375" y="1346.3555555555556" type="line"/>
      <point x="512.2005859375" y="783.0" type="line"/>
      <point x="513.777734375" y="150.13333333333333" type="line"/>
      <point x="546.7276258680556" y="125.77777777777779" type="line"/>
      <point x="971.0606770833333" y="125.77777777777779" type="line"/>
      <point x="1036.335720486111" y="386.1777777777778" type="line"/>
      <point x="1161.4227213541667" y="386.1777777777778" type="line"/>
      <point x="1127.2080512152777" y="0.0" type="line"/>
    </contour>
    <contour>
      <point x="379.171875" y="730.8888888888889" type="line"/>
      <point x="379.171875" y="841.1111111111111" type="line"/>
      <point x="818.9225477430556" y="851.1111111111111" type="line"/>
      <point x="846.8495876736112" y="1004.3555555555556" type="line"/>
      <point x="967.669921875" y="1004.3555555555556" type="line"/>
      <point x="967.669921875" y="565.1555555555556" type="line"/>
      <point x="846.8495876736112" y="565.1555555555556" type="line"/>
      <point x="818.9225477430556" y="720.8888888888889" type="line"/>
    </contour>
  </outline>
</glyph>
<glyph name="F" format="2">
  <advance width="1117"/>
  <unicode hex="0046"/>
  <outline>
    <contour>
      <point x="48.32660590277777" y="0.0" type="line"/>
      <point x="48.32660590277777" y="108.97526041666667" type="line"/>
      <point x="224.5173611111111" y="144.41844618055555" type="line"/>
      <point x="226.5173611111111" y="755.3295572916667" type="line"/>
      <point x="224.5173611111111" y="1343.8704427083333" type="line"/>
      <point x="48.32660590277777" y="1377.8704427083333" type="line"/>
      <point x="48.32660590277777" y="1500.0" type="line"/>
      <point x="1077.6064019097223" y="1500.0" type="line"/>
      <point x="1077.6064019097223" y="1145.1618489583334" type="line"/>
      <point x="952.1638454861111" y="1145.1618489583334" type="line"/>
      <point x="921.3923611111111" y="1367.7777777777778" type="line"/>
      <point x="549.5054036458333" y="1367.7777777777778" type="line"/>
      <point x="514.4221788194445" y="1346.3555555555556" type="line"/>
      <point x="514.5555121527779" y="760.0" type="line"/>
      <point x="516.5555121527779" y="142.88763020833335" type="line"/>
      <point x="699.0231987847222" y="109.33081597222223" type="line"/>
      <point x="699.0231987847222" y="0.0" type="line"/>
    </contour>
    <contour>
      <point x="378.95028211805555" y="705.0888888888888" type="line"/>
      <point x="378.95028211805555" y="819.1777777777778" type="line"/>
      <point x="819.0403862847222" y="827.2444444444444" type="line"/>
      <point x="846.9674262152778" y="990.4888888888889" type="line"/>
      <point x="969.0563151041667" y="990.4888888888889" type="line"/>
      <point x="969.0563151041667" y="528.4" type="line"/>
      <point x="846.9674262152778" y="528.4" type="line"/>
      <point x="819.0403862847222" y="697.0222222222222" type="line"/>
    </contour>
  </outline>
</glyph>
<glyph name="G" format="2">
  <advance width="1443"/>
  <unicode hex="0047"/>
  <outline>
    <contour>
      <point x="67.90104166666667" y="731.6318576388888" type="qcurve" smooth="yes"/>
      <point x="67.90104166666667" y="1095.9362847222221"/>
      <point x="452.5615668402778" y="1517.1073350694444"/>
      <point x="753.5608940972222" y="1517.1073350694444" type="qcurve" smooth="yes"/>
      <point x="872.7541666666667" y="1517.1073350694444"/>
      <point x="1031.8841145833333" y="1469.6266276041667"/>
      <point x="1076.8061197916668" y="1435.8406684027777" type="qcurve"/>
      <point x="1100.0893446180555" y="1499.5771484375" type="line"/>
      <point x="1222.039865451389" y="1499.5771484375" type="line"/>
      <point x="1222.039865451389" y="1033.1486328125" type="line"/>
      <point x="1085.7262369791667" y="1033.1486328125" type="line"/>
      <point x="1054.7610460069445" y="1179.8433810763888" type="line" smooth="yes"/>
      <point x="1036.3438585069443" y="1275.2115234375"/>
      <point x="903.350390625" y="1373.4679253472223"/>
      <point x="790.3380425347223" y="1373.4679253472223" type="qcurve" smooth="yes"/>
      <point x="583.2626085069445" y="1373.4679253472223"/>
      <point x="377.69348958333336" y="1058.4985243055555"/>
      <point x="378.98237847222225" y="757.4096354166667" type="qcurve" smooth="yes"/>
      <point x="379.84841579861114" y="439.8763020833333"/>
      <point x="595.6416449652778" y="119.67799479166668"/>
      <point x="811.9703342013889" y="119.67799479166668" type="qcurve" smooth="yes"/>
      <point x="874.9522786458333" y="119.67799479166668"/>
      <point x="992.4956380208332" y="156.72515190972223"/>
      <point x="1035.6266493055555" y="194.82556423611112" type="qcurve"/>
      <point x="1035.6266493055555" y="518.7333333333333" type="line"/>
      <point x="881.6205946180555" y="551.9555555555555" type="line"/>
      <point x="881.6205946180555" y="667.9555555555555" type="line"/>
      <point x="1408.5438151041667" y="667.9555555555555" type="line"/>
      <point x="1408.5438151041667" y="551.9555555555555" type="line"/>
      <point x="1307.1905815972223" y="518.7333333333333" type="line"/>
      <point x="1307.1905815972223" y="192.01486545138889" type="line"/>
      <point x="1218.737131076389" y="90.15323350694445"/>
      <point x="926.2369574652778" y="-25.550520833333334"/>
      <point x="753.1489366319445" y="-25.550520833333334" type="qcurve" smooth="yes"/>
      <point x="458.2739366319445" y="-25.550520833333334"/>
      <point x="67.90104166666667" y="368.8318576388889"/>
    </contour>
  </outline>
</glyph>
<glyph name="H" format="2">
  <advance width="1570"/>
  <unicode hex="0048"/>
  <outline>
    <contour>
      <point x="48.32660590277777" y="0.0" type="line"/>
      <point x="48.32660590277777" y="108.97526041666667" type="line"/>
      <point x="224.5173611111111" y="143.97526041666666" type="line"/>
      <point x="226.5173611111111" y="754.0" type="line"/>
      <point x="224.5173611111111" y="1343.8704427083333" type="line"/>
      <point x="48.32660590277777" y="1377.8704427083333" type="line"/>
      <point x="48.32660590277777" y="1500.0" type="line"/>
      <point x="685.6733072916667" y="1500.0" type="line"/>
      <point x="685.6733072916667" y="1377.8704427083333" type="line"/>
      <point x="514.4221788194445" y="1343.8704427083333" type="line"/>
      <point x="512.4221788194445" y="754.0" type="line"/>
      <point x="514.4221788194445" y="143.97526041666666" type="line"/>
      <point x="685.6733072916667" y="108.97526041666667" type="line"/>
      <point x="685.6733072916667" y="0.0" type="line"/>
    </contour>
    <contour>
      <point x="372.47291666666666" y="709.7345920138889" type="line"/>
      <point x="372.47291666666666" y="850.7098524305555" type="line"/>
      <point x="789.5596354166667" y="842.7098524305555" type="line"/>
      <point x="1207.8178385416668" y="850.7098524305555" type="line"/>
      <point x="1207.8178385416668" y="709.7345920138889" type="line"/>
      <point x="789.5596354166667" y="709.7345920138889" type="line"/>
    </contour>
    <contour>
      <point x="884.2778211805555" y="0.0" type="line"/>
      <point x="884.2778211805555" y="108.97526041666667" type="line"/>
      <point x="1055.5289496527778" y="143.97526041666666" type="line"/>
      <point x="1057.5289496527778" y="754.0" type="line"/>
      <point x="1055.5289496527778" y="1343.8704427083333" type="line"/>
      <point x="884.2778211805555" y="1377.8704427083333" type="line"/>
      <point x="884.2778211805555" y="1500.0" type="line"/>
      <point x="1521.6245225694445" y="1500.0" type="line"/>
      <point x="1521.6245225694445" y="1377.8704427083333" type="line"/>
      <point x="1345.4337673611112" y="1343.8704427083333" type="line"/>
      <point x="1343.4337673611112" y="754.0" type="line"/>
      <point x="1345.4337673611112" y="143.97526041666666" type="line"/>
      <point x="1521.6245225694445" y="108.97526041666667" type="line"/>
      <point x="1521.6245225694445" y="0.0" type="line"/>
    </contour>
  </outline>
</glyph>
<glyph name="I" format="2">
  <advance width="759"/>
  <unicode hex="0049"/>
  <outline>
    <contour>
      <point x="52.55512152777777" y="0.0" type="line"/>
      <point x="52.55512152777777" y="108.97526041666667" type="line"/>
      <point x="234.5173611111111" y="143.97526041666666" type="line"/>
      <point x="236.5173611111111" y="754.0" type="line"/>
      <point x="234.5173611111111" y="1343.8704427083333" type="line"/>
      <point x="52.55512152777777" y="1377.8704427083333" type="line"/>
      <point x="52.55512152777777" y="1500.0" type="line"/>
      <point x="706.3844184027778" y="1500.0" type="line"/>
      <point x="706.3844184027778" y="1377.8704427083333" type="line"/>
      <point x="524.4221788194445" y="1343.8704427083333" type="line"/>
      <point x="522.4221788194445" y="754.0" type="line"/>
      <point x="524.4221788194445" y="144.1968532986111" type="line"/>
      <point x="706.3844184027778" y="108.97526041666667" type="line"/>
      <point x="706.3844184027778" y="0.0" type="line"/>
    </contour>
  </outline>
</glyph>
<glyph name="K" format="2">
  <advance width="1425"/>
  <unicode hex="004B"/>
  <outline>
    <contour>
      <point x="48.32660590277777" y="0.0" type="line"/>
      <point x="48.32660590277777" y="108.97526041666667" type="line"/>
      <point x="224.5173611111111" y="143.97526041666666" type="line"/>
      <point x="226.5173611111111" y="754.0" type="line"/>
      <point x="224.5173611111111" y="1343.8704427083333" type="line"/>
      <point x="48.32660590277777" y="1377.8704427083333" type="line"/>
      <point x="48.32660590277777" y="1500.0" type="line"/>
      <point x="683.4573784722222" y="1500.0" type="line"/>
      <point x="683.4573784722222" y="1377.8704427083333" type="line"/>
      <point x="514.4221788194445" y="1343.8704427083333" type="line"/>
      <point x="512.4221788194445" y="754.0" type="line"/>
      <point x="514.4221788194445" y="143.97526041666666" type="line"/>
      <point x="678.5621961805556" y="108.97526041666667" type="line"/>
      <point x="678.5621961805556" y="0.0" type="line"/>
    </contour>
    <contour>
      <point x="362.8437717013889" y="353.27460937499995" type="line"/>
      <point x="364.1123263888889" y="545.9106770833333" type="line"/>
      <point x="1019.4001085069444" y="1341.4792534722221" type="line"/>
      <point x="893.109765625" y="1378.2259982638889" type="line"/>
      <point x="893.109765625" y="1500.0" type="line"/>
      <point x="1356.0017578125" y="1500.0" type="line"/>
      <point x="1356.0017578125" y="1378.2259982638889" type="line"/>
      <point x="1200.0573350694444" y="1341.4792534722221" type="line"/>
      <point x="791.0357855902778" y="842.0503038194445" type="line"/>
      <point x="751.9894531250001" y="802.3398220486112" type="line"/>
    </contour>
    <contour>
      <point x="632.2827473958333" y="768.2115234375" type="line"/>
      <point x="829.1944878472223" y="982.5402560763889" type="line"/>
      <point x="1310.2652777777778" y="143.55240885416666" type="line"/>
      <point x="1430.3245876736112" y="108.97526041666667" type="line"/>
      <point x="1430.3245876736112" y="0.0" type="line"/>
      <point x="862.7525173611111" y="0.0" type="line"/>
      <point x="862.7525173611111" y="108.97526041666667" type="line"/>
      <point x="988.2093098958333" y="143.55240885416666" type="line"/>
    </contour>
  </outline>
</glyph>
<glyph name="M" format="2">
  <advance width="1853"/>
  <unicode hex="004D"/>
  <outline>
    <contour>
      <point x="51.526605902777774" y="0.0" type="line"/>
      <point x="51.526605902777774" y="108.97526041666667" type="line"/>
      <point x="218.37647569444442" y="143.97526041666666" type="line"/>
      <point x="219.95362413194442" y="754.0" type="line"/>
      <point x="218.37647569444442" y="1344.2259982638889" type="line"/>
      <point x="51.526605902777774" y="1378.2259982638889" type="line"/>
      <point x="51.526605902777774" y="1500.0" type="line"/>
      <point x="555.3544487847223" y="1500.0" type="line"/>
      <point x="749.9588107638889" y="845.2572265625" type="line"/>
      <point x="910.61328125" y="312.45596788194445" type="line"/>
      <point x="1068.7096788194444" y="845.2247395833333" type="line"/>
      <point x="1271.360373263889" y="1500.0" type="line"/>
      <point x="1804.1875868055554" y="1500.0" type="line"/>
      <point x="1804.1875868055554" y="1378.2259982638889" type="line"/>
      <point x="1632.3307942708334" y="1344.2259982638889" type="line"/>
      <point x="1630.7536458333334" y="754.0" type="line"/>
      <point x="1632.3307942708334" y="143.97526041666666" type="line"/>
      <point x="1804.1875868055554" y="108.97526041666667" type="line"/>
      <point x="1804.1875868055554" y="0.0" type="line"/>
      <point x="1165.0071397569445" y="0.0" type="line"/>
      <point x="1165.0071397569445" y="108.97526041666667" type="line"/>
      <point x="1343.406271701389" y="143.97526041666666" type="line"/>
      <point x="1345.7618272569443" y="753.2888888888889" type="line"/>
      <point x="1343.406271701389" y="1290.7425347222222" type="line"/>
      <point x="1175.3021267361112" y="758.3415147569444" type="line"/>
      <point x="944.4990234375" y="-6.933333333333333" type="line"/>
      <point x="727.7193576388888" y="-6.933333333333333" type="line"/>
      <point x="509.5194010416667" y="735.6666666666666" type="line"/>
      <point x="338.4165147569444" y="1291.9559461805557" type="line"/>
      <point x="336.8393663194444" y="754.0" type="line"/>
      <point x="338.4165147569444" y="143.97526041666666" type="line"/>
      <point x="506.49301215277774" y="108.97526041666667" type="line"/>
      <point x="506.49301215277774" y="0.0" type="line"/>
    </contour>
  </outline>
</glyph>
<glyph name="N" format="2">
  <advance width="1431"/>
  <unicode hex="004E"/>
  <outline>
    <contour>
      <point x="48.32660590277777" y="0.0" type="line"/>
      <point x="48.32660590277777" y="108.97526041666667" type="line"/>
      <point x="218.37647569444442" y="143.55240885416666" type="line"/>
      <point x="219.95362413194442" y="754.0" type="line"/>
      <point x="218.37647569444442" y="1344.2259982638889" type="line"/>
      <point x="48.32660590277777" y="1378.2259982638889" type="line"/>
      <point x="48.32660590277777" y="1500.0" type="line"/>
      <point x="528.3106336805556" y="1500.0" type="line"/>
      <point x="846.2013671875001" y="873.6786241319445" type="line"/>
      <point x="1097.913064236111" y="388.80106336805557" type="line"/>
      <point x="1098.4235460069444" y="771.4222222222222" type="line"/>
      <point x="1096.0006944444444" y="1344.2259982638889" type="line"/>
      <point x="920.1831163194445" y="1378.2259982638889" type="line"/>
      <point x="920.1831163194445" y="1500.0" type="line"/>
      <point x="1397.0918619791667" y="1500.0" type="line"/>
      <point x="1397.0918619791667" y="1378.2259982638889" type="line"/>
      <point x="1228.5315104166666" y="1344.2259982638889" type="line"/>
      <point x="1226.5315104166666" y="762.8888888888889" type="line"/>
      <point x="1222.9543619791666" y="-1.69140625" type="line"/>
      <point x="990.8667317708332" y="-1.69140625" type="line"/>
      <point x="618.2267361111111" y="710.9909939236111" type="line"/>
      <point x="349.48506944444443" y="1225.400390625" type="line"/>
      <point x="348.90729166666665" y="735.1555555555556" type="line"/>
      <point x="350.90729166666665" y="143.55240885416666" type="line"/>
      <point x="520.4150173611112" y="108.97526041666667" type="line"/>
      <point x="520.4150173611112" y="0.0" type="line"/>
    </contour>
  </outline>
</glyph>
<glyph name="Q" format="2">
  <advance width="1508"/>
  <unicode hex="0051"/>
  <outline>
    <contour>
      <point x="67.90104166666667" y="742.8190755208333" type="qcurve" smooth="yes"/>
      <point x="67.90104166666667" y="1070.9790364583334"/>
      <point x="450.9743489583334" y="1522.4888888888888"/>
      <point x="754.1539713541666" y="1522.4888888888888" type="qcurve" smooth="yes"/>
      <point x="1057.6891493055555" y="1522.4888888888888"/>
      <point x="1439.9840494791667" y="1099.9790364583334"/>
      <point x="1439.9840494791667" y="756.2679253472222" type="qcurve" smooth="yes"/>
      <point x="1439.9840494791667" y="423.4601779513889"/>
      <point x="1054.0084418402778" y="-22.62348090277778"/>
      <point x="756.7774522569445" y="-22.62348090277778" type="qcurve" smooth="yes"/>
      <point x="456.4745659722222" y="-22.62348090277778"/>
      <point x="67.90104166666667" y="406.1899305555556"/>
    </contour>
    <contour>
      <point x="378.2039713541667" y="775.7574435763889" type="qcurve" smooth="yes"/>
      <point x="378.6471571180556" y="476.62096354166664"/>
      <point x="587.3177517361112" y="118.20818142361111"/>
      <point x="753.7780815972222" y="118.20818142361111" type="qcurve" smooth="yes"/>
      <point x="934.9235243055555" y="118.20818142361111"/>
      <point x="1127.8830078125" y="437.6819661458333"/>
      <point x="1128.326193576389" y="750.6901475694444" type="qcurve" smooth="yes"/>
      <point x="1128.7693793402777" y="1041.4888888888888"/>
      <point x="923.3463758680555" y="1372.2450737847223"/>
      <point x="754.664453125" y="1372.2450737847223" type="qcurve" smooth="yes"/>
      <point x="572.6326388888889" y="1372.2450737847223"/>
      <point x="377.7607855902778" y="1074.1333333333334"/>
    </contour>
    <contour>
      <point x="259.1509114583333" y="-337.10481770833337" type="qcurve"/>
      <point x="193.49620225694443" y="-278.7555555555556" type="line"/>
      <point x="247.37250434027777" y="-164.31111111111113"/>
      <point x="409.09344618055553" y="-47.35492621527778"/>
      <point x="488.498046875" y="-39.932703993055554" type="qcurve"/>
      <point x="679.4569444444445" y="332.5146484375" type="line"/>
      <point x="784.1860677083333" y="273.6479817708333" type="line"/>
      <point x="605.9699435763889" y="-65.59811197916666" type="line"/>
      <point x="1130.457248263889" y="-240.53856336805555" type="line"/>
      <point x="1202.9779947916668" y="-240.53856336805555"/>
      <point x="1294.9096354166668" y="-160.67819010416667"/>
      <point x="1324.3249348958334" y="-96.7226345486111" type="qcurve"/>
      <point x="1412.8735677083334" y="-145.67630208333333" type="line"/>
      <point x="1373.3293402777779" y="-272.78741319444447"/>
      <point x="1233.405251736111" y="-448.27630208333335"/>
      <point x="1110.9008680555555" y="-448.27630208333335" type="qcurve"/>
      <point x="491.20726996527776" y="-235.95555555555558" type="line"/>
      <point x="410.9982638888889" y="-235.95555555555558"/>
      <point x="306.9827690972222" y="-275.8603732638889"/>
    </contour>
  </outline>
</glyph>
<glyph name="T" format="2">
  <advance width="1261"/>
  <unicode hex="0054"/>
  <outline>
    <contour>
      <point x="40.0" y="1061.8792534722222" type="line"/>
      <point x="40.0" y="1500.0" type="line"/>
      <point x="1220.7885850694445" y="1500.0" type="line"/>
      <point x="1220.7885850694445" y="1061.8792534722222" type="line"/>
      <point x="1097.9885850694445" y="1061.8792534722222" type="line"/>
      <point x="1061.2108072916667" y="1367.7777777777778" type="line"/>
      <point x="792.9244791666667" y="1367.7777777777778" type="line"/>
      <point x="774.2800347222222" y="1349.2" type="line"/>
      <point x="773.346701388889" y="754.0" type="line"/>
      <point x="774.9911458333333" y="143.7740017361111" type="line"/>
      <point x="960.5374565972222" y="108.55240885416667" type="line"/>
      <point x="960.5374565972222" y="0.0" type="line"/>
      <point x="298.2511284722222" y="0.0" type="line"/>
      <point x="298.2511284722222" y="108.55240885416667" type="line"/>
      <point x="485.086328125" y="143.7740017361111" type="line"/>
      <point x="487.086328125" y="754.0" type="line"/>
      <point x="486.15299479166663" y="1349.2" type="line"/>
      <point x="476.79743923611113" y="1367.7777777777778" type="line"/>
      <point x="199.22222222222223" y="1367.7777777777778" type="line"/>
      <point x="162.44444444444446" y="1061.8792534722222" type="line"/>
    </contour>
  </outline>
</glyph>
<glyph name="Y" format="2">
  <advance width="1236"/>
  <unicode hex="0059"/>
  <outline>
    <contour>
      <point x="-3.0922309027777732" y="1378.2259982638889" type="line"/>
      <point x="-3.0922309027777732" y="1500.0" type="line"/>
      <point x="563.7066623263889" y="1500.0" type="line"/>
      <point x="563.7066623263889" y="1378.2259982638889" type="line"/>
      <point x="447.6167534722223" y="1344.0044053819445" type="line"/>
      <point x="573.634765625" y="1071.1446614583333" type="line"/>
      <point x="707.7773003472223" y="798.0779947916667" type="line"/>
      <point x="839.6982421875" y="1085.928732638889" type="line"/>
      <point x="954.7061848958333" y="1345.5555555555557" type="line"/>
      <point x="811.2487630208334" y="1378.2259982638889" type="line"/>
      <point x="811.2487630208334" y="1500.0" type="line"/>
      <point x="1239.1497612847222" y="1500.0" type="line"/>
      <point x="1239.1497612847222" y="1378.2259982638889" type="line"/>
      <point x="1105.0923394097222" y="1345.7771484375" type="line"/>
      <point x="951.2372395833333" y="1031.959765625" type="line"/>
      <point x="771.5341145833333" y="640.6222222222223" type="line"/>
      <point x="773.1785590277779" y="143.6197048611111" type="line"/>
      <point x="958.3026475694444" y="108.97526041666667" type="line"/>
      <point x="958.3026475694444" y="0.0" type="line"/>
      <point x="295.7743923611111" y="0.0" type="line"/>
      <point x="295.7743923611111" y="108.97526041666667" type="line"/>
      <point x="482.2070746527778" y="143.6197048611111" type="line"/>
      <point x="484.2070746527778" y="635.6222222222223" type="line"/>
      <point x="306.3655815972222" y="989.5884765625" type="line"/>
      <point x="125.32074652777777" y="1345.9987413194444" type="line"/>
    </contour>
  </outline>
</glyph>
<glyph name="Z" format="2">
  <advance width="1122"/>
  <unicode hex="005A"/>
  <outline>
    <contour>
      <point x="67.53919270833333" y="0.0" type="line"/>
      <point x="39.00963541666667" y="99.11111111111111" type="line"/>
      <point x="721.1743055555555" y="1357.2888888888888" type="line"/>
      <point x="713.3755642361111" y="1367.7777777777778" type="line"/>
      <point x="255.32723524305555" y="1367.7777777777778" type="line"/>
      <point x="216.68467881944446" y="1084.1585069444445" type="line"/>
      <point x="87.17986111111111" y="1084.1585069444445" type="line"/>
      <point x="87.17986111111111" y="1500.0" type="line"/>
      <point x="1060.0925347222224" y="1500.0" type="line"/>
      <point x="1060.0925347222224" y="1398.3333333333333" type="line"/>
      <point x="378.7297526041667" y="136.4" type="line"/>
      <point x="386.6624565972223" y="125.77777777777779" type="line"/>
      <point x="897.6246093750001" y="125.77777777777779" type="line"/>
      <point x="982.8600477430555" y="400.3618489583333" type="line"/>
      <point x="1111.0797526041667" y="400.3618489583333" type="line"/>
      <point x="1063.2474609375001" y="0.0" type="line"/>
    </contour>
  </outline>
</glyph>
<glyph name="underscore" format="2">
  <advance width="1280"/>
  <unicode hex="005F"/>
  <outline>
    <contour>
      <point x="-20.0" y="-478.66414930555555" type="line"/>
      <point x="-20.0" y="-304.58029513888886" type="line"/>
      <point x="640.5068142361112" y="-298.29203559027775" type="line"/>
      <point x="1300.2593315972222" y="-304.58029513888886" type="line"/>
      <point x="1300.2593315972222" y="-478.66414930555555" type="line"/>
      <point x="640.5068142361112" y="-488.571484375" type="line"/>
    </contour>
  </outline>
</glyph>
<glyph name="grave" format="2">
  <advance width="1024"/>
  <unicode hex="0060"/>
  <outline>
    <contour>
      <point x="274.19476996527777" y="1443.3706163194445" type="qcurve" smooth="yes"/>
      <point x="275.04047309027777" y="1478.6106553819445"/>
      <point x="337.58721788194447" y="1531.2970269097223"/>
      <point x="375.5174045138889" y="1531.2970269097223" type="qcurve" smooth="yes"/>
      <point x="415.0253689236111" y="1531.2970269097223"/>
      <point x="496.7067057291667" y="1463.4544704861112"/>
      <point x="532.3695963541667" y="1420.0353949652779" type="qcurve" smooth="yes"/>
      <point x="706.9670789930556" y="1213.6398003472223" type="line"/>
      <point x="635.6006293402778" y="1138.0245008680556" type="line"/>
      <point x="357.38532986111113" y="1316.088650173611" type="line" smooth="yes"/>
      <point x="313.9446614583333" y="1343.6645399305555"/>
      <point x="273.34906684027777" y="1404.202907986111"/>
    </contour>
  </outline>
</glyph>
<glyph name="b" format="2">
  <advance width="1159"/>
  <unicode hex="0062"/>
  <outline>
    <contour>
      <point x="140.37293836805554" y="0.0" type="line"/>
      <point x="146.92345920138888" y="487.06293402777777" type="line"/>
      <point x="142.9291232638889" y="1360.0863715277778" type="line"/>
      <point x="3.827256944444448" y="1391.7777777777778" type="line"/>
      <point x="3.827256944444448" y="1500.0" type="line"/>
      <point x="350.2555338541667" y="1534.0" type="line"/>
      <point x="382.03394097222224" y="1534.0" type="line"/>
      <point x="420.34505208333337" y="1496.6666666666667" type="line"/>
      <point x="418.2777560763889" y="896.4518012152778" type="line"/>
      <point x="458.9077256944445" y="959.6379557291667"/>
      <point x="606.7550781250001" y="1036.7974826388888"/>
      <point x="710.7909071180557" y="1036.7974826388888" type="qcurve" smooth="yes"/>
      <point x="884.1982204861112" y="1036.7974826388888"/>
      <point x="1102.9174696180555" y="779.9947699652778"/>
      <point x="1102.9174696180555" y="540.3111111111111" type="qcurve" smooth="yes"/>
      <point x="1102.9174696180555" y="286.61467013888887"/>
      <point x="873.64140625" y="-10.30859375"/>
      <point x="677.6770833333334" y="-12.0" type="qcurve" smooth="yes"/>
      <point x="581.7773003472223" y="-12.845703125"/>
      <point x="438.7154730902778" y="44.1943359375"/>
      <point x="400.6823567708334" y="89.20125868055555" type="qcurve"/>
      <point x="330.8853081597223" y="0.0" type="line"/>
    </contour>
    <contour>
      <point x="412.81360677083336" y="478.81907552083334" type="line"/>
      <point x="418.2104600694445" y="244.62871093750002" type="line"/>
      <point x="441.5337239583334" y="188.405859375"/>
      <point x="540.5315972222222" y="117.66666666666667"/>
      <point x="608.3470920138889" y="117.66666666666667" type="qcurve" smooth="yes"/>
      <point x="704.6001085069445" y="117.66666666666667"/>
      <point x="806.7929470486112" y="317.4584852430556"/>
      <point x="806.7929470486112" y="507.84444444444443" type="qcurve" smooth="yes"/>
      <point x="806.7929470486112" y="696.45703125"/>
      <point x="706.4166666666667" y="874.4444444444445"/>
      <point x="608.3401692708334" y="874.4444444444445" type="qcurve" smooth="yes"/>
      <point x="538.8802300347222" y="874.4444444444445"/>
      <point x="444.9496527777778" y="803.0335503472222"/>
      <point x="418.98886718750003" y="749.4016927083334" type="qcurve"/>
    </contour>
  </outline>
</glyph>
<glyph name="f" format="2">
  <advance width="672"/>
  <unicode hex="0066"/>
  <outline>
    <contour>
      <point x="46.53333333333333" y="0.0" type="line"/>
      <point x="46.53333333333333" y="94.22222222222223" type="line"/>
      <point x="184.1463107638889" y="129.22222222222223" type="line"/>
      <point x="187.5685329861111" y="535.8888888888889" type="line"/>
      <point x="185.63519965277777" y="863.0222222222222" type="line"/>
      <point x="48.10481770833333" y="873.7111111111111" type="line"/>
      <point x="48.10481770833333" y="980.9333333333334" type="line"/>
      <point x="187.27964409722222" y="1001.7777777777778" type="line"/>
      <point x="188.3006076388889" y="1252.5721137152777" type="line" smooth="yes"/>
      <point x="188.23394097222223" y="1378.283224826389"/>
      <point x="324.48046875" y="1527.1880425347222"/>
      <point x="461.43917100694443" y="1527.1880425347222" type="qcurve" smooth="yes"/>
      <point x="518.8525824652778" y="1527.1880425347222"/>
      <point x="612.5777343750001" y="1512.0559678819445"/>
      <point x="646.9110677083333" y="1499.2318576388889" type="qcurve" smooth="yes"/>
      <point x="666.4202907986112" y="1491.8096354166667" type="line"/>
      <point x="653.14921875" y="1371.9391927083334" type="line"/>
      <point x="639.1752170138889" y="1375.4490451388888" type="line" smooth="yes"/>
      <point x="626.9542534722223" y="1379.0928602430556"/>
      <point x="595.2062500000001" y="1384.7157118055557"/>
      <point x="574.4284722222222" y="1384.7157118055557" type="qcurve" smooth="yes"/>
      <point x="517.5274305555556" y="1384.7157118055557"/>
      <point x="461.43142361111114" y="1304.6978949652778"/>
      <point x="461.6530164930556" y="1229.842751736111" type="qcurve" smooth="yes"/>
      <point x="461.7406467013889" y="998.8666666666667" type="line"/>
      <point x="649.1219618055555" y="998.8666666666667" type="line"/>
      <point x="649.1219618055555" y="873.2888888888889" type="line"/>
      <point x="461.38509114583337" y="873.2888888888889" type="line"/>
      <point x="462.3184244791667" y="535.8888888888889" type="line"/>
      <point x="468.25175781250005" y="129.22222222222223" type="line"/>
      <point x="624.3664062500001" y="94.22222222222223" type="line"/>
      <point x="624.3664062500001" y="0.0" type="line"/>
    </contour>
  </outline>
</glyph>
<glyph name="h" format="2">
  <advance width="1229"/>
  <unicode hex="0068"/>
  <outline>
    <contour>
      <point x="48.02556423611111" y="0.0" type="line"/>
      <point x="48.02556423611111" y="94.22222222222223" type="line"/>
      <point x="174.39913194444443" y="129.22222222222223" type="line"/>
      <point x="176.39913194444443" y="539.4444444444445" type="line"/>
      <point x="174.39913194444443" y="1360.0863715277778" type="line"/>
      <point x="35.51885850694444" y="1391.7777777777778" type="line"/>
      <point x="35.51885850694444" y="1500.0" type="line"/>
      <point x="380.6582465277778" y="1534.0" type="line"/>
      <point x="412.6582465277778" y="1534.0" type="line"/>
      <point x="450.96935763888894" y="1496.6666666666667" type="line"/>
      <point x="449.9020616319445" y="884.3090277777778" type="line"/>
      <point x="499.3282552083334" y="947.4501085069445"/>
      <point x="674.3927951388889" y="1037.2406684027778"/>
      <point x="782.95546875" y="1037.2406684027778" type="qcurve" smooth="yes"/>
      <point x="924.0288194444445" y="1037.2406684027778"/>
      <point x="1061.7682074652778" y="888.5389973958333"/>
      <point x="1061.7682074652778" y="762.3446614583333" type="qcurve" smooth="yes"/>
      <point x="1061.7682074652778" y="699.2423611111111"/>
      <point x="1059.3916883680556" y="556.3585069444445"/>
      <point x="1059.3916883680556" y="553.8886935763888" type="qcurve"/>
      <point x="1063.9015407986112" y="129.22222222222223" type="line"/>
      <point x="1193.5843315972222" y="94.22222222222223" type="line"/>
      <point x="1193.5843315972222" y="0.0" type="line"/>
      <point x="674.6908854166667" y="0.0" type="line"/>
      <point x="674.6908854166667" y="94.22222222222223" type="line"/>
      <point x="784.0640190972223" y="129.22222222222223" type="line"/>
      <point x="785.9294270833334" y="535.7553602430555" type="line"/>
      <point x="785.9294270833334" y="698.0132161458333" type="line" smooth="yes"/>
      <point x="785.9294270833334" y="772.2201388888889"/>
      <point x="711.6256727430556" y="852.7073350694444"/>
      <point x="648.7904730902778" y="852.7073350694444" type="qcurve" smooth="yes"/>
      <point x="590.9229817708333" y="852.7073350694444"/>
      <point x="482.66221788194446" y="787.1821831597222"/>
      <point x="450.10332031250005" y="730.3243272569445" type="qcurve"/>
      <point x="449.0366536458334" y="535.7553602430555" type="line"/>
      <point x="450.54650607638894" y="129.22222222222223" type="line"/>
      <point x="555.4586371527778" y="94.22222222222223" type="line"/>
      <point x="555.4586371527778" y="0.0" type="line"/>
    </contour>
  </outline>
</glyph>
<glyph name="i" format="2">
  <advance width="638"/>
  <unicode hex="0069"/>
  <outline>
    <contour>
      <point x="50.95700954861111" y="0.0" type="line"/>
      <point x="50.95700954861111" y="94.22222222222223" type="line"/>
      <point x="186.05195312499998" y="129.22222222222223" type="line"/>
      <point x="188.05195312499998" y="535.8888888888889" type="line"/>
      <point x="184.94398871527778" y="847.3333333333334" type="line"/>
      <point x="49.84904513888888" y="877.3333333333334" type="line"/>
      <point x="49.84904513888888" y="985.2" type="line"/>
      <point x="380.91106770833335" y="1018.4888888888889" type="line"/>
      <point x="438.9332899305556" y="1018.4888888888889" type="line"/>
      <point x="469.0444010416667" y="978.0475911458334" type="line"/>
      <point x="462.0444010416667" y="535.8888888888889" type="line"/>
      <point x="464.0444010416667" y="129.22222222222223" type="line"/>
      <point x="599.1393446180556" y="94.22222222222223" type="line"/>
      <point x="599.1393446180556" y="0.0" type="line"/>
    </contour>
    <contour>
      <point x="126.68298611111112" y="1329.0813368055556" type="qcurve" smooth="yes"/>
      <point x="126.68298611111112" y="1394.4331163194445"/>
      <point x="218.23413628472224" y="1469.6953776041667"/>
      <point x="303.7192491319445" y="1469.6953776041667" type="qcurve" smooth="yes"/>
      <point x="384.4932508680556" y="1469.6953776041667"/>
      <point x="482.5332899305556" y="1392.5664496527777"/>
      <point x="482.177734375" y="1329.0813368055556" type="qcurve" smooth="yes"/>
      <point x="482.177734375" y="1265.862890625"/>
      <point x="390.62658420138894" y="1192.3111111111111"/>
      <point x="304.4303602430556" y="1192.3111111111111" type="qcurve" smooth="yes"/>
      <point x="224.0119140625" y="1192.3111111111111"/>
      <point x="126.68298611111112" y="1269.4400390625"/>
    </contour>
  </outline>
</glyph>
<glyph name="l" format="2">
  <advance width="633"/>
  <unicode hex="006C"/>
  <outline>
    <contour>
      <point x="53.579861111111114" y="0.0" type="line"/>
      <point x="53.579861111111114" y="94.22222222222223" type="line"/>
      <point x="185.2119140625" y="129.22222222222223" type="line"/>
      <point x="187.634765625" y="527.0" type="line"/>
      <point x="185.2119140625" y="1359.3752604166666" type="line"/>
      <point x="39.055338541666664" y="1391.0666666666666" type="line"/>
      <point x="39.055338541666664" y="1500.0" type="line"/>
      <point x="393.24880642361114" y="1534.0" type="line"/>
      <point x="425.24880642361114" y="1534.0" type="line"/>
      <point x="463.5599175347223" y="1496.6666666666667" type="line"/>
      <point x="461.5599175347223" y="527.0" type="line"/>
      <point x="463.5599175347223" y="129.22222222222223" type="line"/>
      <point x="592.5278211805556" y="94.22222222222223" type="line"/>
      <point x="592.5278211805556" y="0.0" type="line"/>
    </contour>
  </outline>
</glyph>
<glyph name="m" format="2">
  <advance width="1814"/>
  <unicode hex="006D"/>
  <outline>
    <contour>
      <point x="48.02556423611111" y="0.0" type="line"/>
      <point x="48.02556423611111" y="94.22222222222223" type="line"/>
      <point x="175.7286892361111" y="129.22222222222223" type="line"/>
      <point x="177.7286892361111" y="535.8888888888889" type="line"/>
      <point x="175.7286892361111" y="847.3333333333334" type="line"/>
      <point x="48.02556423611111" y="877.3333333333334" type="line"/>
      <point x="48.02556423611111" y="985.2" type="line"/>
      <point x="389.21380208333335" y="1022.0444444444445" type="line"/>
      <point x="424.21380208333335" y="995.0444444444445" type="line"/>
      <point x="444.27417534722224" y="875.7853298611111" type="line"/>
      <point x="493.0571831597223" y="948.5358506944444"/>
      <point x="663.1433159722222" y="1037.0190755208334"/>
      <point x="773.0412109375001" y="1037.0190755208334" type="qcurve" smooth="yes"/>
      <point x="881.0770399305557" y="1037.0190755208334"/>
      <point x="1012.1726128472224" y="947.9389973958333"/>
      <point x="1035.8558376736112" y="868.4354383680555" type="qcurve"/>
      <point x="1084.2629557291666" y="945.6964409722223"/>
      <point x="1252.5847222222224" y="1037.0190755208334"/>
      <point x="1367.7518012152777" y="1037.0190755208334" type="qcurve" smooth="yes"/>
      <point x="1508.8251519097223" y="1037.0190755208334"/>
      <point x="1646.5645399305556" y="888.3174045138888"/>
      <point x="1646.5645399305556" y="762.1230685763888" type="qcurve" smooth="yes"/>
      <point x="1646.208984375" y="700.3503255208334"/>
      <point x="1644.1880208333334" y="562.2075520833333"/>
      <point x="1644.1880208333334" y="553.8886935763888" type="qcurve" smooth="yes"/>
      <point x="1648.697873263889" y="128.86666666666667" type="line"/>
      <point x="1778.3806640625" y="94.22222222222223" type="line"/>
      <point x="1778.3806640625" y="0.0" type="line"/>
      <point x="1267.6268446180557" y="0.0" type="line"/>
      <point x="1267.6268446180557" y="94.22222222222223" type="line"/>
      <point x="1369.2159071180556" y="129.22222222222223" type="line"/>
      <point x="1370.7257595486112" y="537.4467664930555" type="line"/>
      <point x="1370.7257595486112" y="697.7916232638889" type="line" smooth="yes"/>
      <point x="1370.7257595486112" y="774.6576605902778"/>
      <point x="1296.9578559027777" y="852.4857421875"/>
      <point x="1235.0090277777779" y="852.4857421875" type="qcurve" smooth="yes"/>
      <point x="1179.2595703125" y="852.4857421875"/>
      <point x="1080.3264756944445" y="794.0316623263889"/>
      <point x="1049.6533203125" y="738.9478081597222" type="qcurve"/>
      <point x="1047.9212456597222" y="684.3998046875"/>
      <point x="1046.9885416666666" y="573.2541232638889"/>
      <point x="1046.9885416666666" y="540.7331380208333" type="qcurve" smooth="yes"/>
      <point x="1049.5860243055556" y="129.22222222222223" type="line"/>
      <point x="1151.9864149305556" y="94.22222222222223" type="line"/>
      <point x="1151.9864149305556" y="0.0" type="line"/>
      <point x="667.2655164930555" y="0.0" type="line"/>
      <point x="667.2655164930555" y="94.22222222222223" type="line"/>
      <point x="773.0830946180556" y="129.22222222222223" type="line"/>
      <point x="774.2373914930556" y="549.8429904513889" type="line"/>
      <point x="774.2373914930556" y="709.5249565972222" type="line" smooth="yes"/>
      <point x="774.2373914930556" y="780.3465494791667"/>
      <point x="701.0516710069445" y="852.1301866319444"/>
      <point x="642.4317708333333" y="852.4857421875" type="qcurve" smooth="yes"/>
      <point x="585.1927951388889" y="852.8412977430555"/>
      <point x="481.68318142361113" y="791.6754774305556"/>
      <point x="451.07732204861117" y="733.8798828125" type="qcurve"/>
      <point x="450.50017361111117" y="532.9289279513889" type="line"/>
      <point x="451.65447048611117" y="129.22222222222223" type="line"/>
      <point x="548.3888237847223" y="94.22222222222223" type="line"/>
      <point x="548.3888237847223" y="0.0" type="line"/>
    </contour>
  </outline>
</glyph>
<glyph name="p" format="2">
  <advance width="1177"/>
  <unicode hex="0070"/>
  <outline>
    <contour>
      <point x="32.871896701388884" y="-480.0" type="line"/>
      <point x="32.871896701388884" y="-386.1333333333333" type="line"/>
      <point x="159.8035373263889" y="-351.1333333333333" type="line"/>
      <point x="161.8035373263889" y="427.0" type="line"/>
      <point x="159.8035373263889" y="847.3333333333334" type="line"/>
      <point x="31.744856770833323" y="877.3333333333334" type="line"/>
      <point x="31.744856770833323" y="985.2" type="line"/>
      <point x="379.07983940972224" y="1019.2" type="line"/>
      <point x="414.07983940972224" y="992.2" type="line"/>
      <point x="434.7496527777778" y="893.1553602430556" type="line"/>
      <point x="474.1783637152778" y="957.3891059027778"/>
      <point x="622.6504557291667" y="1036.7974826388888"/>
      <point x="728.3776909722222" y="1036.7974826388888" type="qcurve" smooth="yes"/>
      <point x="901.7850043402779" y="1036.7974826388888"/>
      <point x="1120.7258463541666" y="779.9947699652778"/>
      <point x="1120.7258463541666" y="540.3111111111111" type="qcurve" smooth="yes"/>
      <point x="1120.7258463541666" y="286.61467013888887"/>
      <point x="891.2281901041667" y="-12.0"/>
      <point x="698.3661675347223" y="-12.0" type="qcurve" smooth="yes"/>
      <point x="603.6129340277778" y="-12.0"/>
      <point x="472.6754340277778" y="40.8115234375"/>
      <point x="434.8639105902778" y="79.2744140625" type="qcurve"/>
      <point x="436.8639105902778" y="-351.1333333333333" type="line"/>
      <point x="590.4779513888889" y="-386.1333333333333" type="line"/>
      <point x="590.4779513888889" y="-480.0" type="line"/>
    </contour>
    <contour>
      <point x="434.0855034722223" y="247.40774739583333" type="line"/>
      <point x="457.40876736111113" y="190.9633029513889"/>
      <point x="557.8967881944445" y="117.66666666666667"/>
      <point x="625.9338758680556" y="117.66666666666667" type="qcurve" smooth="yes"/>
      <point x="722.1868923611112" y="117.66666666666667"/>
      <point x="824.6013237847222" y="317.4584852430556"/>
      <point x="824.6013237847222" y="507.84444444444443" type="qcurve" smooth="yes"/>
      <point x="824.6013237847222" y="696.45703125"/>
      <point x="724.0034505208333" y="874.4444444444445"/>
      <point x="625.9269531250001" y="874.4444444444445" type="qcurve" smooth="yes"/>
      <point x="556.9101996527778" y="874.4444444444445"/>
      <point x="461.26788194444447" y="802.8119574652778"/>
      <point x="435.0855034722223" y="749.1800998263889" type="qcurve"/>
      <point x="431.7299479166667" y="433.4863715277778" type="line"/>
    </contour>
  </outline>
</glyph>
<glyph name="v" format="2">
  <advance width="1053"/>
  <unicode hex="0076"/>
  <outline>
    <contour>
      <point x="-2.215928819444443" y="910.0" type="line"/>
      <point x="-2.215928819444443" y="1017.7777777777778" type="line"/>
      <point x="510.17061631944443" y="1017.7777777777778" type="line"/>
      <point x="510.17061631944443" y="910.0" type="line"/>
      <point x="399.9754557291667" y="873.3555555555556" type="line"/>
      <point x="500.94839409722226" y="553.7962239583334" type="line"/>
      <point x="597.5601128472223" y="261.6486545138889" type="line"/>
      <point x="687.6290581597223" y="557.3054470486111" type="line"/>
      <point x="782.4705512152779" y="878.2222222222222" type="line"/>
      <point x="671.3026475694445" y="910.0" type="line"/>
      <point x="671.3026475694445" y="1017.7777777777778" type="line"/>
      <point x="1056.4143446180556" y="1017.7777777777778" type="line"/>
      <point x="1056.4143446180556" y="910.0" type="line"/>
      <point x="934.3137369791666" y="875.0" type="line"/>
      <point x="812.2995008680556" y="519.5536675347222" type="line"/>
      <point x="645.4724826388889" y="-5.155555555555555" type="line"/>
      <point x="413.62489149305554" y="-5.155555555555555" type="line"/>
      <point x="246.32680121527778" y="487.4964409722222" type="line"/>
      <point x="104.91445312500001" y="875.0" type="line"/>
    </contour>
  </outline>
</glyph>
<glyph name="z" format="2">
  <advance width="883"/>
  <unicode hex="007A"/>
  <outline>
    <contour>
      <point x="35.55555555555556" y="0.0" type="line"/>
      <point x="35.55555555555556" y="107.77777777777779" type="line"/>
      <point x="530.5420572916667" y="884.0" type="line"/>
      <point x="203.00397135416668" y="884.0" type="line"/>
      <point x="177.60900607638888" y="731.1111111111111" type="line"/>
      <point x="58.75052083333333" y="731.1111111111111" type="line"/>
      <point x="58.75052083333333" y="1017.7777777777778" type="line"/>
      <point x="839.7594401041667" y="1017.7777777777778" type="line"/>
      <point x="839.7594401041667" y="911.0" type="line"/>
      <point x="345.8700086805556" y="133.77777777777777" type="line"/>
      <point x="709.7472873263889" y="133.77777777777777" type="line"/>
      <point x="735.1422526041667" y="285.6" type="line"/>
      <point x="854.0007378472222" y="285.6" type="line"/>
      <point x="854.0007378472222" y="0.0" type="line"/>
    </contour>
  </outline>
</glyph>
<glyph name="braceleft" format="2">
  <advance width="711"/>
  <unicode hex="007B"/>
  <outline>
    <contour>
      <point x="62.76814236111111" y="479.22222222222223" type="line"/>
      <point x="62.76814236111111" y="590.7777777777778" type="line"/>
      <point x="166.14926215277777" y="600.7777777777778" type="line" smooth="yes"/>
      <point x="220.72703993055555" y="606.3345920138889"/>
      <point x="281.46037326388887" y="662.4888888888889"/>
      <point x="281.46037326388887" y="724.8888888888889" type="qcurve" smooth="yes"/>
      <point x="281.46037326388887" y="835.7777777777778"/>
      <point x="157.23815104166667" y="1074.45703125"/>
      <point x="157.23815104166667" y="1188.228515625" type="qcurve" smooth="yes"/>
      <point x="157.23815104166667" y="1347.228515625"/>
      <point x="323.41297743055554" y="1510.0"/>
      <point x="470.87964409722224" y="1510.0" type="qcurve" smooth="yes"/>
      <point x="524.2163194444445" y="1510.0"/>
      <point x="654.0410590277778" y="1503.4228515625"/>
      <point x="686.5052083333334" y="1500.0" type="qcurve"/>
      <point x="686.5052083333334" y="1386.0" type="line"/>
      <point x="638.4163194444444" y="1388.0"/>
      <point x="608.1018663194444" y="1388.0"/>
      <point x="562.3018663194445" y="1388.0" type="qcurve" smooth="yes"/>
      <point x="486.6827907986111" y="1388.0"/>
      <point x="413.7016710069445" y="1301.7840711805557"/>
      <point x="413.7016710069445" y="1208.7236979166667" type="qcurve" smooth="yes"/>
      <point x="413.7016710069445" y="1098.6222222222223"/>
      <point x="520.6794487847222" y="883.0"/>
      <point x="520.6794487847222" y="792.0" type="qcurve" smooth="yes"/>
      <point x="520.6794487847222" y="697.0"/>
      <point x="439.3238932291667" y="572.7777777777778"/>
      <point x="364.1461154513889" y="551.4222222222222" type="qcurve"/>
      <point x="448.8350043402778" y="521.3333333333334"/>
      <point x="520.6794487847222" y="392.53333333333336"/>
      <point x="520.6794487847222" y="320.0444444444444" type="qcurve" smooth="yes"/>
      <point x="520.6794487847222" y="225.48888888888888"/>
      <point x="390.81278211805557" y="-80.13333333333334"/>
      <point x="390.81278211805557" y="-189.87925347222222" type="qcurve" smooth="yes"/>
      <point x="390.81278211805557" y="-287.1681423611111"/>
      <point x="465.25742187500003" y="-373.2888888888889"/>
      <point x="541.5876085069444" y="-373.2888888888889" type="qcurve" smooth="yes"/>
      <point x="587.3876085069445" y="-373.2888888888889"/>
      <point x="633.771875" y="-373.2888888888889"/>
      <point x="682.2163194444445" y="-371.2888888888889" type="qcurve"/>
      <point x="682.2163194444445" y="-483.2888888888889" type="line"/>
      <point x="647.7052083333333" y="-487.5574435763889"/>
      <point x="517.3115017361112" y="-495.0"/>
      <point x="459.7463107638889" y="-495.0" type="qcurve" smooth="yes"/>
      <point x="300.54631076388887" y="-495.0"/>
      <point x="134.34926215277778" y="-331.228515625"/>
      <point x="134.34926215277778" y="-172.228515625" type="qcurve" smooth="yes"/>
      <point x="134.34926215277778" y="-54.228515625"/>
      <point x="280.46037326388887" y="246.0"/>
      <point x="280.46037326388887" y="364.0" type="qcurve"/>
      <point x="280.46037326388887" y="479.22222222222223" type="line"/>
    </contour>
  </outline>
</glyph>
<glyph name="braceright" format="2">
  <advance width="711"/>
  <unicode hex="007D"/>
  <outline>
    <contour>
      <point x="28.396657986111112" y="-483.2888888888889" type="qcurve"/>
      <point x="28.396657986111112" y="-371.2888888888889" type="line"/>
      <point x="76.84110243055555" y="-373.2888888888889"/>
      <point x="118.79351128472223" y="-373.2888888888889"/>
      <point x="164.5935112847222" y="-373.2888888888889" type="qcurve" smooth="yes"/>
      <point x="240.92369791666667" y="-373.2888888888889"/>
      <point x="315.3683376736111" y="-287.1681423611111"/>
      <point x="315.3683376736111" y="-189.87925347222222" type="qcurve" smooth="yes"/>
      <point x="315.3683376736111" y="-80.13333333333334"/>
      <point x="189.93352864583332" y="225.48888888888888"/>
      <point x="189.93352864583332" y="320.0444444444444" type="qcurve" smooth="yes"/>
      <point x="189.93352864583332" y="392.53333333333336"/>
      <point x="259.6637152777778" y="521.3333333333334"/>
      <point x="344.35260416666665" y="551.4222222222222" type="qcurve"/>
      <point x="269.1748263888889" y="572.7777777777778"/>
      <point x="189.93352864583332" y="697.0"/>
      <point x="189.93352864583332" y="792.0" type="qcurve" smooth="yes"/>
      <point x="189.93352864583332" y="883.0"/>
      <point x="301.34316406249997" y="1098.6222222222223"/>
      <point x="301.34316406249997" y="1208.7236979166667" type="qcurve" smooth="yes"/>
      <point x="301.34316406249997" y="1301.7840711805557"/>
      <point x="230.47630208333334" y="1388.0"/>
      <point x="154.8572265625" y="1388.0" type="qcurve" smooth="yes"/>
      <point x="109.05722656249999" y="1388.0"/>
      <point x="72.55221354166667" y="1388.0"/>
      <point x="24.107769097222224" y="1386.0" type="qcurve"/>
      <point x="24.107769097222224" y="1500.0" type="line"/>
      <point x="56.92747395833333" y="1503.4228515625"/>
      <point x="190.82851562500002" y="1510.0"/>
      <point x="244.16519097222223" y="1510.0" type="qcurve" smooth="yes"/>
      <point x="391.6318576388889" y="1510.0"/>
      <point x="557.8066840277778" y="1347.228515625"/>
      <point x="557.8066840277778" y="1188.228515625" type="qcurve" smooth="yes"/>
      <point x="557.8066840277778" y="1074.45703125"/>
      <point x="429.5081597222222" y="835.7777777777778"/>
      <point x="429.5081597222222" y="724.8888888888889" type="qcurve" smooth="yes"/>
      <point x="429.5081597222222" y="662.4888888888889"/>
      <point x="489.8859375" y="605.4888888888889"/>
      <point x="544.4637152777779" y="600.7777777777778" type="qcurve" smooth="yes"/>
      <point x="648.2003906250001" y="590.7777777777778" type="line"/>
      <point x="648.2003906250001" y="479.22222222222223" type="line"/>
      <point x="430.5081597222222" y="479.22222222222223" type="line"/>
      <point x="430.5081597222222" y="364.0" type="line"/>
      <point x="430.5081597222222" y="246.0"/>
      <point x="571.8318576388889" y="-54.228515625"/>
      <point x="571.8318576388889" y="-172.228515625" type="qcurve" smooth="yes"/>
      <point x="571.8318576388889" y="-331.228515625"/>
      <point x="405.6348090277778" y="-495.0"/>
      <point x="246.4348090277778" y="-495.0" type="qcurve" smooth="yes"/>
      <point x="188.86961805555558" y="-495.0"/>
      <point x="62.90776909722222" y="-487.5574435763889"/>
    </contour>
  </outline>
</glyph>
<glyph name="asciitilde" format="2">
  <advance width="901"/>
  <unicode hex="007E"/>
  <outline>
    <contour>
      <point x="10.90796440972222" y="607.7555555555556" type="line"/>
      <point x="60.25156249999999" y="699.6888888888889"/>
      <point x="233.06202256944442" y="823.4222222222222"/>
      <point x="308.6456597222222" y="823.4222222222222" type="qcurve"/>
      <point x="624.8843967013889" y="695.1777777777778" type="line"/>
      <point x="680.1175130208334" y="695.1777777777778"/>
      <point x="765.9665581597222" y="777.1333333333333"/>
      <point x="794.7380425347222" y="828.6444444444445" type="qcurve"/>
      <point x="886.8321614583333" y="754.6" type="line"/>
      <point x="844.9527126736111" y="650.9555555555555"/>
      <point x="697.8019965277778" y="502.1333333333333"/>
      <point x="591.6049479166667" y="502.1333333333333" type="qcurve"/>
      <point x="292.20625" y="624.5111111111111" type="line"/>
      <point x="237.3953559027778" y="624.5111111111111"/>
      <point x="129.08404947916668" y="567.6666666666666"/>
      <point x="79.62808159722222" y="518.5111111111111" type="qcurve"/>
    </contour>
  </outline>
</glyph>
<glyph name="exclamdown" format="2">
  <advance width="663"/>
  <unicode hex="00A1"/>
  <outline>
    <contour>
      <point x="493.2978949652778" y="1179.8610026041667" type="qcurve" smooth="yes"/>
      <point x="493.2978949652778" y="1116.4222222222222"/>
      <point x="401.72766927083336" y="1024.1859592013889"/>
      <point x="330.15618489583335" y="1024.1859592013889" type="qcurve" smooth="yes"/>
      <point x="258.16184895833334" y="1024.1859592013889"/>
      <point x="166.5916232638889" y="1116.4222222222222"/>
      <point x="166.5916232638889" y="1179.8610026041667" type="qcurve" smooth="yes"/>
      <point x="166.5916232638889" y="1243.0781901041667"/>
      <point x="258.16184895833334" y="1335.314453125"/>
      <point x="330.15618489583335" y="1335.314453125" type="qcurve" smooth="yes"/>
      <point x="401.72766927083336" y="1335.314453125"/>
      <point x="493.2978949652778" y="1243.0781901041667"/>
    </contour>
    <contour>
      <point x="470.73396267361113" y="-65.48888888888888" type="line" smooth="yes"/>
      <point x="473.6666666666667" y="-139.53333333333333"/>
      <point x="401.73396267361113" y="-236.48888888888888"/>
      <point x="333.57840711805557" y="-237.13333333333333" type="qcurve" smooth="yes"/>
      <point x="265.06729600694445" y="-238.13333333333333"/>
      <point x="188.42348090277778" y="-140.82222222222222"/>
      <point x="191.35618489583334" y="-66.13333333333333" type="qcurve" smooth="yes"/>
      <point x="203.37651909722223" y="218.0" type="line"/>
      <point x="246.97840711805554" y="526.0" type="line"/>
      <point x="274.20062934027777" y="878.1236979166666" type="line"/>
      <point x="389.53396267361114" y="878.1236979166666" type="line"/>
      <point x="416.75618489583337" y="526.0" type="line"/>
      <point x="458.71362847222224" y="218.0" type="line"/>
    </contour>
  </outline>
</glyph>
<glyph name="sterling" format="2">
  <advance width="1064"/>
  <unicode hex="00A3"/>
  <outline>
    <contour>
      <point x="643.4377170138889" y="552.2096354166666" type="qcurve" smooth="yes"/>
      <point x="643.4377170138889" y="426.8763020833333"/>
      <point x="512.0083767361111" y="233.01006944444447"/>
      <point x="421.8947482638889" y="182.00440538194445" type="qcurve"/>
      <point x="429.8947482638889" y="149.00440538194445" type="line"/>
      <point x="804.7737630208334" y="143.55555555555557" type="line"/>
      <point x="927.8569878472223" y="389.77777777777777" type="line"/>
      <point x="1046.295138888889" y="389.77777777777777" type="line"/>
      <point x="947.2951388888889" y="0.0" type="line"/>
      <point x="71.69140625" y="0.0" type="line"/>
      <point x="11.69140625" y="117.77777777777779" type="line"/>
      <point x="57.37317708333334" y="172.3572482638889" type="line"/>
      <point x="248.03795572916667" y="161.3572482638889"/>
      <point x="419.005859375" y="359.0792534722222"/>
      <point x="419.005859375" y="471.1907986111111" type="qcurve" smooth="yes"/>
      <point x="419.005859375" y="533.1681423611111"/>
      <point x="337.87567274305553" y="673.5111111111111"/>
      <point x="286.4534505208333" y="743.4444444444445" type="qcurve" smooth="yes"/>
      <point x="213.4090060763889" y="842.3555555555556"/>
      <point x="109.2025173611111" y="1030.4666666666667"/>
      <point x="109.2025173611111" y="1137.4666666666667" type="qcurve" smooth="yes"/>
      <point x="109.2025173611111" y="1297.7008463541667"/>
      <point x="351.8725260416667" y="1506.3333333333333"/>
      <point x="560.3169704861111" y="1506.3333333333333" type="qcurve" smooth="yes"/>
      <point x="709.0802734375001" y="1506.3333333333333"/>
      <point x="906.2836154513889" y="1403.414040798611"/>
      <point x="969.2425130208334" y="1322.5029296875" type="qcurve"/>
      <point x="894.5110677083334" y="1200.6666666666667" type="line"/>
      <point x="834.1561414930555" y="1270.8132161458334"/>
      <point x="694.5171657986111" y="1347.1777777777777"/>
      <point x="598.7266059027778" y="1347.1777777777777" type="qcurve" smooth="yes"/>
      <point x="482.9385633680556" y="1347.1777777777777"/>
      <point x="375.9802951388889" y="1232.8444444444444"/>
      <point x="375.9802951388889" y="1149.8444444444444" type="qcurve" smooth="yes"/>
      <point x="375.9802951388889" y="1073.8444444444444"/>
      <point x="454.5582682291667" y="923.0"/>
      <point x="519.5582682291667" y="836.0" type="qcurve" smooth="yes"/>
      <point x="576.5582682291667" y="759.0"/>
      <point x="643.4377170138889" y="611.2096354166666"/>
    </contour>
    <contour>
      <point x="170.005859375" y="581.5712890625" type="line"/>
      <point x="142.45030381944446" y="740.3459201388889" type="line"/>
      <point x="900.8569878472223" y="740.3459201388889" type="line"/>
      <point x="867.3014322916666" y="581.5712890625" type="line"/>
    </contour>
  </outline>
</glyph>
<glyph name="brokenbar" format="2">
  <advance width="607"/>
  <unicode hex="00A6"/>
  <outline>
    <contour>
      <point x="190.79641927083333" y="697.0536892361112" type="line"/>
      <point x="192.01234809027778" y="924.6981336805555" type="line"/>
      <point x="181.83834635416667" y="1232.6981336805557" type="line"/>
      <point x="174.06686197916667" y="1502.5648003472222" type="line"/>
      <point x="433.1299479166667" y="1569.7203559027778" type="line"/>
      <point x="424.5127604166667" y="1232.6981336805557" type="line"/>
      <point x="411.9159071180556" y="924.6981336805555" type="line"/>
      <point x="411.86894531250005" y="748.4759114583334" type="line"/>
    </contour>
    <contour>
      <point x="174.91256510416667" y="-517.4351996527778" type="line"/>
      <point x="182.68404947916667" y="-92.63519965277777" type="line"/>
      <point x="194.43519965277778" y="215.36480034722223" type="line"/>
      <point x="193.21360677083334" y="390.4759114583333" type="line"/>
      <point x="414.708984375" y="449.0536892361111" type="line"/>
      <point x="413.4930555555556" y="215.36480034722223" type="line"/>
      <point x="424.5127604166667" y="-92.63519965277777" type="line"/>
      <point x="432.2842447916667" y="-446.0693793402778" type="line"/>
    </contour>
  </outline>
</glyph>
<glyph name="section" format="2">
  <advance width="1094"/>
  <unicode hex="00A7"/>
  <outline>
    <contour>
      <point x="996.4710286458333" y="137.0" type="qcurve" smooth="yes"/>
      <point x="996.4710286458333" y="-38.2"/>
      <point x="772.9293185763889" y="-253.0"/>
      <point x="588.7406467013889" y="-253.0" type="qcurve" smooth="yes"/>
      <point x="472.5697916666667" y="-253.0"/>
      <point x="309.13604600694447" y="-187.0"/>
      <point x="256.3391927083333" y="-135.0" type="qcurve"/>
      <point x="214.18615451388888" y="-235.0" type="line"/>
      <point x="111.68070746527778" y="-235.0" type="line"/>
      <point x="111.68070746527778" y="203.11111111111111" type="line"/>
      <point x="224.4744140625" y="203.11111111111111" type="line"/>
      <point x="239.1398220486111" y="122.91111111111113" type="line" smooth="yes"/>
      <point x="263.2941189236111" y="-7.799999999999994"/>
      <point x="448.07964409722223" y="-119.77777777777777"/>
      <point x="568.3603515625" y="-119.77777777777777" type="qcurve" smooth="yes"/>
      <point x="693.5966145833333" y="-119.77777777777777"/>
      <point x="810.0112847222222" y="-5.088888888888888"/>
      <point x="810.0112847222222" y="91.8" type="qcurve" smooth="yes"/>
      <point x="810.0112847222222" y="202.75052083333333"/>
      <point x="658.6689453125" y="312.31111111111113"/>
      <point x="483.4796440972222" y="379.6666666666667" type="qcurve" smooth="yes"/>
      <point x="308.1341579861111" y="446.93333333333334"/>
      <point x="140.27504340277778" y="619.4222222222222"/>
      <point x="140.27504340277778" y="761.4222222222222" type="qcurve" smooth="yes"/>
      <point x="140.27504340277778" y="853.9555555555555"/>
      <point x="216.74108072916667" y="993.7555555555556"/>
      <point x="279.5373046875" y="1038.3333333333333" type="qcurve"/>
      <point x="239.51759982638887" y="1075.6888888888889"/>
      <point x="200.097265625" y="1174.0222222222221"/>
      <point x="200.80837673611111" y="1240.0666666666666" type="qcurve" smooth="yes"/>
      <point x="201.87504340277778" y="1352.911111111111"/>
      <point x="382.53101128472224" y="1512.0"/>
      <point x="539.8549045138889" y="1512.0" type="qcurve" smooth="yes"/>
      <point x="619.1609809027777" y="1512.0"/>
      <point x="728.9096137152778" y="1474.4888888888888"/>
      <point x="769.5521701388889" y="1449.0" type="qcurve"/>
      <point x="783.7731336805556" y="1480.0" type="line"/>
      <point x="880.9230251736111" y="1480.0" type="line"/>
      <point x="880.9230251736111" y="1176.888888888889" type="line"/>
      <point x="768.5521701388889" y="1176.888888888889" type="line"/>
      <point x="750.1756510416667" y="1274.6" type="line" smooth="yes"/>
      <point x="740.4651692708334" y="1324.6444444444444"/>
      <point x="631.9857204861112" y="1386.7777777777778"/>
      <point x="547.6796440972222" y="1386.7777777777778" type="qcurve" smooth="yes"/>
      <point x="466.9526041666667" y="1386.7777777777778"/>
      <point x="386.9798611111111" y="1322.2444444444445"/>
      <point x="386.9798611111111" y="1267.1555555555556" type="qcurve" smooth="yes"/>
      <point x="386.9798611111111" y="1208.7111111111112"/>
      <point x="474.97923177083334" y="1140.3079644097222"/>
      <point x="619.7838324652778" y="1100.5555555555557" type="qcurve" smooth="yes"/>
      <point x="787.9959852430555" y="1054.7784071180556"/>
      <point x="965.0291015625" y="909.8666666666667"/>
      <point x="965.0291015625" y="767.7111111111111" type="qcurve" smooth="yes"/>
      <point x="965.0291015625" y="668.7111111111111"/>
      <point x="848.2588758680556" y="516.0"/>
      <point x="748.8429470486111" y="485.0" type="qcurve"/>
      <point x="865.0138020833333" y="430.7111111111111"/>
      <point x="996.4710286458333" y="267.2888888888889"/>
    </contour>
    <contour>
      <point x="313.4280815972222" y="801.4666666666667" type="qcurve" smooth="yes"/>
      <point x="313.4280815972222" y="725.9555555555555"/>
      <point x="417.7291232638889" y="620.3333333333334"/>
      <point x="575.5857204861111" y="558.4666666666667" type="qcurve"/>
      <point x="666.3794270833333" y="559.1777777777778"/>
      <point x="783.234765625" y="653.8"/>
      <point x="783.234765625" y="730.4" type="qcurve" smooth="yes"/>
      <point x="783.234765625" y="806.5777777777778"/>
      <point x="665.3578342013889" y="878.3777777777777"/>
      <point x="514.5234592013888" y="924.6" type="qcurve" smooth="yes"/>
      <point x="487.72534722222224" y="932.9555555555555"/>
      <point x="427.55071614583335" y="952.8666666666667"/>
      <point x="406.68530815972224" y="961.8666666666667" type="qcurve"/>
      <point x="362.3551215277778" y="940.9333333333333"/>
      <point x="313.4280815972222" y="859.3333333333334"/>
    </contour>
  </outline>
</glyph>
<glyph name="dieresis" format="2">
  <advance width="1024"/>
  <unicode hex="00A8"/>
  <outline>
    <contour>
      <point x="592.9222005208334" y="1274.6345703125" type="qcurve" smooth="yes"/>
      <point x="592.9222005208334" y="1332.786349826389"/>
      <point x="654.2479817708333" y="1394.9381293402778"/>
      <point x="711.2855034722222" y="1394.9381293402778" type="qcurve" smooth="yes"/>
      <point x="765.3230251736111" y="1394.9381293402778"/>
      <point x="829.6488064236111" y="1328.4980902777777"/>
      <point x="829.6488064236111" y="1274.6345703125" type="qcurve" smooth="yes"/>
      <point x="829.6488064236111" y="1216.7043836805556"/>
      <point x="769.6785807291667" y="1154.197048611111"/>
      <point x="711.2855034722222" y="1154.197048611111" type="qcurve" smooth="yes"/>
      <point x="657.2479817708333" y="1154.197048611111"/>
      <point x="592.9222005208334" y="1220.0599392361112"/>
    </contour>
    <contour>
      <point x="194.35119357638888" y="1274.6345703125" type="qcurve" smooth="yes"/>
      <point x="194.35119357638888" y="1332.786349826389"/>
      <point x="255.32141927083333" y="1394.9381293402778"/>
      <point x="312.7144965277778" y="1394.9381293402778" type="qcurve" smooth="yes"/>
      <point x="366.75201822916665" y="1394.9381293402778"/>
      <point x="431.0777994791667" y="1328.4980902777777"/>
      <point x="431.0777994791667" y="1274.6345703125" type="qcurve" smooth="yes"/>
      <point x="431.0777994791667" y="1216.7043836805556"/>
      <point x="370.75201822916665" y="1154.197048611111"/>
      <point x="312.7144965277778" y="1154.197048611111" type="qcurve" smooth="yes"/>
      <point x="258.6769748263889" y="1154.197048611111"/>
      <point x="194.35119357638888" y="1220.0599392361112"/>
    </contour>
  </outline>
</glyph>
<glyph name="copyright" format="2">
  <advance width="1931"/>
  <unicode hex="00A9"/>
  <outline>
    <contour>
      <point x="513.9133897569444" y="655.6" type="qcurve" smooth="yes"/>
      <point x="513.9133897569444" y="897.4444444444445"/>
      <point x="770.8666232638889" y="1197.2666666666667"/>
      <point x="994.2230034722222" y="1197.2666666666667" type="qcurve" smooth="yes"/>
      <point x="1061.172265625" y="1197.2666666666667"/>
      <point x="1171.0053819444445" y="1165.3333333333333"/>
      <point x="1199.3139756944445" y="1142.4" type="qcurve"/>
      <point x="1223.5108289930556" y="1192.4888888888888" type="line"/>
      <point x="1318.8137586805556" y="1165.2666666666667" type="line"/>
      <point x="1331.0563151041667" y="846.0222222222222" type="line"/>
      <point x="1226.2435329861112" y="827.9555555555555" type="line"/>
      <point x="1193.0034939236111" y="973.4888888888888" type="line"/>
      <point x="1164.9856770833333" y="1018.5111111111111"/>
      <point x="1071.884006076389" y="1074.1777777777777"/>
      <point x="1014.4230034722223" y="1074.1777777777777" type="qcurve" smooth="yes"/>
      <point x="893.4800347222223" y="1074.1777777777777"/>
      <point x="750.3693576388889" y="883.7777777777778"/>
      <point x="750.3693576388889" y="689.0666666666666" type="qcurve" smooth="yes"/>
      <point x="750.3693576388889" y="494.17777777777775"/>
      <point x="919.5886284722222" y="301.75555555555553"/>
      <point x="1041.0649305555555" y="301.75555555555553" type="qcurve" smooth="yes"/>
      <point x="1136.098046875" y="301.75555555555553"/>
      <point x="1293.8143880208333" y="388.4"/>
      <point x="1336.009982638889" y="443.26666666666665" type="qcurve"/>
      <point x="1393.2709852430555" y="363.2888888888889" type="line"/>
      <point x="1339.3433159722222" y="275.6222222222222"/>
      <point x="1124.0326388888889" y="155.4"/>
      <point x="1000.5315972222222" y="155.4" type="qcurve" smooth="yes"/>
      <point x="785.3980685763889" y="155.4"/>
      <point x="513.9133897569444" y="422.3333333333333"/>
    </contour>
    <contour>
      <point x="101.0" y="685.0" type="qcurve" smooth="yes"/>
      <point x="101.0" y="1061.0"/>
      <point x="589.017578125" y="1570.0"/>
      <point x="967.2236328125" y="1570.0" type="qcurve" smooth="yes"/>
      <point x="1343.8525390625" y="1570.0"/>
      <point x="1829.8701171875" y="1087.0"/>
      <point x="1829.8701171875" y="706.0" type="qcurve" smooth="yes"/>
      <point x="1829.8701171875" y="288.0"/>
      <point x="1350.4296875" y="-242.0"/>
      <point x="978.3779296875" y="-242.0" type="qcurve" smooth="yes"/>
      <point x="595.5947265625" y="-242.0"/>
      <point x="101.0" y="276.0"/>
    </contour>
    <contour>
      <point x="271.4287109375" y="680.6444444444444" type="qcurve" smooth="yes"/>
      <point x="271.4287109375" y="342.1111111111111"/>
      <point x="690.0748046875" y="-101.28888888888889"/>
      <point x="992.8211154513888" y="-101.28888888888889" type="qcurve" smooth="yes"/>
      <point x="1286.7686848958333" y="-101.28888888888889"/>
      <point x="1659.44140625" y="366.4"/>
      <point x="1659.44140625" y="697.2888888888889" type="qcurve" smooth="yes"/>
      <point x="1659.44140625" y="999.5333333333333"/>
      <point x="1265.392795138889" y="1429.2888888888888"/>
      <point x="948.8477430555556" y="1429.2888888888888" type="qcurve" smooth="yes"/>
      <point x="648.6785807291667" y="1429.2888888888888"/>
      <point x="271.4287109375" y="990.8888888888889"/>
    </contour>
  </outline>
</glyph>
<glyph name="ordfeminine" format="2">
  <advance width="964"/>
  <unicode hex="00AA"/>
  <outline>
    <contour>
      <point x="75.78470052083334" y="881.8991536458333" type="qcurve" smooth="yes"/>
      <point x="75.78470052083334" y="1011.6888888888889"/>
      <point x="327.1521701388889" y="1175.4171875"/>
      <point x="591.6714192708333" y="1204.5733723958333" type="qcurve"/>
      <point x="598.0473090277778" y="1116.8241102430557" type="line"/>
      <point x="455.73140190972225" y="1098.5129991319445"/>
      <point x="306.2888888888889" y="998.2578559027778"/>
      <point x="307.0" y="899.845703125" type="qcurve" smooth="yes"/>
      <point x="307.3555555555556" y="841.7568142361112"/>
      <point x="365.6815321180556" y="787.6025173611112"/>
      <point x="412.3800564236111" y="787.6025173611112" type="qcurve" smooth="yes"/>
      <point x="458.36306423611114" y="787.6025173611112"/>
      <point x="544.223828125" y="846.4788194444444"/>
      <point x="564.4403862847222" y="888.2115234375" type="qcurve"/>
      <point x="566.0175347222222" y="1192.1790364583333" type="line" smooth="yes"/>
      <point x="566.5946831597222" y="1332.645703125"/>
      <point x="492.9519314236111" y="1424.979665798611"/>
      <point x="416.03559027777777" y="1424.979665798611" type="qcurve" smooth="yes"/>
      <point x="362.7230251736111" y="1424.979665798611"/>
      <point x="282.76979166666666" y="1398.1383680555555"/>
      <point x="263.3989366319445" y="1379.0698133680555" type="qcurve"/>
      <point x="280.46686197916665" y="1362.780295138889"/>
      <point x="302.3804904513889" y="1326.203146701389"/>
      <point x="304.58174913194443" y="1304.1098524305555" type="qcurve" smooth="yes"/>
      <point x="309.6020833333333" y="1264.0851128472223"/>
      <point x="264.06749131944446" y="1215.865407986111"/>
      <point x="221.5804904513889" y="1214.4431857638888" type="qcurve" smooth="yes"/>
      <point x="180.07378472222223" y="1213.0209635416666"/>
      <point x="123.89726562499999" y="1275.5029296875"/>
      <point x="123.89726562499999" y="1334.1930772569444" type="qcurve" smooth="yes"/>
      <point x="123.89726562499999" y="1420.351779513889"/>
      <point x="315.7324652777778" y="1542.5771484375"/>
      <point x="474.06473524305557" y="1542.5771484375" type="qcurve" smooth="yes"/>
      <point x="634.3666015625" y="1542.5771484375"/>
      <point x="800.1280164930556" y="1385.7790364583334"/>
      <point x="798.8125" y="1203.0234809027777" type="qcurve" smooth="yes"/>
      <point x="800.9871310763889" y="785.8717013888889" type="line"/>
      <point x="911.5841796875001" y="756.4488498263889" type="line"/>
      <point x="911.5841796875001" y="676.3123697916667" type="line"/>
      <point x="617.6018012152778" y="676.3123697916667" type="line"/>
      <point x="579.8772786458334" y="722.5067057291667" type="line"/>
      <point x="570.52109375" y="773.7987413194444" type="line"/>
      <point x="537.7762369791667" y="725.8591145833333"/>
      <point x="408.3852864583333" y="663.5809244791667"/>
      <point x="321.22764756944446" y="663.5809244791667" type="qcurve" smooth="yes"/>
      <point x="205.60648871527778" y="663.5809244791667"/>
      <point x="75.78470052083334" y="781.4255642361111"/>
    </contour>
  </outline>
</glyph>
<glyph name="logicalnot" format="2">
  <advance width="963"/>
  <unicode hex="00AC"/>
  <outline>
    <contour>
      <point x="64.28888888888889" y="774.7501302083333" type="line"/>
      <point x="881.0911241319444" y="774.7501302083333" type="line"/>
      <point x="881.0911241319444" y="252.89459635416668" type="line"/>
      <point x="670.7951171875" y="252.89459635416668" type="line"/>
      <point x="670.7951171875" y="584.8503472222222" type="line"/>
      <point x="64.28888888888889" y="584.8503472222222" type="line"/>
    </contour>
  </outline>
</glyph>
<glyph name="registered" format="2">
  <advance width="1931"/>
  <unicode hex="00AE"/>
  <outline>
    <contour>
      <point x="101.0" y="685.0" type="qcurve" smooth="yes"/>
      <point x="101.0" y="1061.0"/>
      <point x="589.017578125" y="1570.0"/>
      <point x="967.2236328125" y="1570.0" type="qcurve" smooth="yes"/>
      <point x="1343.8525390625" y="1570.0"/>
      <point x="1829.8701171875" y="1087.0"/>
      <point x="1829.8701171875" y="706.0" type="qcurve" smooth="yes"/>
      <point x="1829.8701171875" y="288.0"/>
      <point x="1350.4296875" y="-242.0"/>
      <point x="978.3779296875" y="-242.0" type="qcurve" smooth="yes"/>
      <point x="595.5947265625" y="-242.0"/>
      <point x="101.0" y="276.0"/>
    </contour>
    <contour>
      <point x="271.4287109375" y="680.6444444444444" type="qcurve" smooth="yes"/>
      <point x="271.4287109375" y="342.1111111111111"/>
      <point x="690.0748046875" y="-101.28888888888889"/>
      <point x="992.8211154513888" y="-101.28888888888889" type="qcurve" smooth="yes"/>
      <point x="1286.7686848958333" y="-101.28888888888889"/>
      <point x="1659.44140625" y="366.4"/>
      <point x="1659.44140625" y="697.2888888888889" type="qcurve" smooth="yes"/>
      <point x="1659.44140625" y="999.5333333333333"/>
      <point x="1265.392795138889" y="1429.2888888888888"/>
      <point x="948.8477430555556" y="1429.2888888888888" type="qcurve" smooth="yes"/>
      <point x="648.6785807291667" y="1429.2888888888888"/>
      <point x="271.4287109375" y="990.8888888888889"/>
    </contour>
    <contour>
      <point x="560.1534288194445" y="176.0" type="line"/>
      <point x="554.1318359375" y="266.0" type="line"/>
      <point x="656.8322482638889" y="290.0" type="line"/>
      <point x="666.9865451388889" y="723.0" type="line"/>
      <point x="656.8322482638889" y="1080.888888888889" type="line"/>
      <point x="544.9775390625" y="1103.888888888889" type="line"/>
      <point x="544.9775390625" y="1209.0" type="line"/>
      <point x="995.0661892361111" y="1209.0" type="line" smooth="yes"/>
      <point x="1142.917751736111" y="1209.0"/>
      <point x="1296.8588324652778" y="1074.888888888889"/>
      <point x="1296.8588324652778" y="953.7777777777778" type="qcurve" smooth="yes"/>
      <point x="1296.8588324652778" y="818.2444444444444"/>
      <point x="1111.032009548611" y="646.2222222222222"/>
      <point x="993.0661892361111" y="646.2222222222222" type="qcurve" smooth="yes"/>
      <point x="945.4490017361111" y="646.2222222222222"/>
      <point x="829.2240668402778" y="655.2222222222222"/>
      <point x="806.9154730902778" y="655.2222222222222" type="qcurve"/>
      <point x="806.9154730902778" y="750.8888888888889" type="line"/>
      <point x="923.9766710069445" y="750.8888888888889" type="line" smooth="yes"/>
      <point x="1035.3653428819443" y="750.8888888888889"/>
      <point x="1114.2911241319443" y="853.7777777777778"/>
      <point x="1114.2911241319443" y="944.7777777777778" type="qcurve" smooth="yes"/>
      <point x="1114.2911241319443" y="1028.3333333333333"/>
      <point x="1031.34375" y="1097.3333333333333"/>
      <point x="935.109375" y="1097.3333333333333" type="qcurve" smooth="yes"/>
      <point x="861.1098090277778" y="1097.3333333333333" type="line"/>
      <point x="841.3783637152778" y="1084.3333333333333" type="line"/>
      <point x="829.2240668402778" y="715.8888888888889" type="line"/>
      <point x="839.3783637152778" y="290.0" type="line"/>
      <point x="948.0261501736111" y="266.0" type="line"/>
      <point x="948.0261501736111" y="176.0" type="line"/>
    </contour>
    <contour>
      <point x="898.8534071180555" y="702.8888888888889" type="line"/>
      <point x="1069.2452256944443" y="730.8888888888889" type="line"/>
      <point x="1281.5934244791667" y="393.0" type="line" smooth="yes"/>
      <point x="1344.2519097222223" y="293.1549262152778"/>
      <point x="1419.244357638889" y="266.0"/>
      <point x="1458.284396701389" y="266.0" type="qcurve"/>
      <point x="1458.284396701389" y="176.0" type="line"/>
      <point x="1257.540798611111" y="176.0" type="line"/>
      <point x="1218.077907986111" y="190.0" type="line"/>
    </contour>
  </outline>
</glyph>
<glyph name="macron" format="2">
  <advance width="1024"/>
  <unicode hex="00AF"/>
  <outline>
    <contour>
      <point x="224.58261718749998" y="1198.400390625" type="line"/>
      <point x="224.58261718749998" y="1352.0423177083333" type="line"/>
      <point x="806.5083550347222" y="1352.0423177083333" type="line"/>
      <point x="806.5083550347222" y="1198.400390625" type="line"/>
    </contour>
  </outline>
</glyph>
<glyph name="degree" format="2">
  <advance width="822"/>
  <unicode hex="00B0"/>
  <outline>
    <contour>
      <point x="113.8515625" y="1258.6455078125" type="qcurve" smooth="yes"/>
      <point x="113.8515625" y="1380.302734375"/>
      <point x="280.4345703125" y="1560.0"/>
      <point x="410.5546875" y="1560.0" type="qcurve" smooth="yes"/>
      <point x="541.09765625" y="1560.0"/>
      <point x="707.6806640625" y="1380.302734375"/>
      <point x="707.6806640625" y="1258.6455078125" type="qcurve" smooth="yes"/>
      <point x="707.6806640625" y="1139.5654296875"/>
      <point x="541.09765625" y="958.8681640625"/>
      <point x="410.5546875" y="958.8681640625" type="qcurve" smooth="yes"/>
      <point x="280.4345703125" y="958.8681640625"/>
      <point x="113.8515625" y="1139.5654296875"/>
    </contour>
    <contour>
      <point x="247.09411892361112" y="1261.1826171875" type="qcurve" smooth="yes"/>
      <point x="247.09411892361112" y="1194.7444661458333"/>
      <point x="336.74064670138887" y="1091.7551649305556"/>
      <point x="410.5546875" y="1091.7551649305556" type="qcurve" smooth="yes"/>
      <point x="485.4360243055555" y="1091.7551649305556"/>
      <point x="574.4381076388889" y="1194.7444661458333"/>
      <point x="574.4381076388889" y="1261.1826171875" type="qcurve" smooth="yes"/>
      <point x="574.4381076388889" y="1330.3522135416667"/>
      <point x="485.4360243055555" y="1425.8444444444444"/>
      <point x="410.5546875" y="1425.8444444444444" type="qcurve" smooth="yes"/>
      <point x="336.74064670138887" y="1425.8444444444444"/>
      <point x="247.09411892361112" y="1330.3522135416667"/>
    </contour>
  </outline>
</glyph>
<glyph name="plusminus" format="2">
  <advance width="963"/>
  <unicode hex="00B1"/>
  <outline>
    <contour>
      <point x="67.61278211805555" y="598.5612196180556" type="line"/>
      <point x="67.61278211805555" y="786.3276692708333" type="line"/>
      <point x="895.3317925347222" y="786.3276692708333" type="line"/>
      <point x="895.3317925347222" y="598.5612196180556" type="line"/>
    </contour>
    <contour>
      <point x="377.0785807291667" y="271.76770833333336" type="line"/>
      <point x="377.0785807291667" y="1121.5417100694444" type="line"/>
      <point x="585.8659939236111" y="1121.5417100694444" type="line"/>
      <point x="585.8659939236111" y="271.76770833333336" type="line"/>
    </contour>
    <contour>
      <point x="67.61278211805555" y="6.116970486111107" type="line"/>
      <point x="67.61278211805555" y="187.3544921875" type="line"/>
      <point x="895.3317925347222" y="187.3544921875" type="line"/>
      <point x="895.3317925347222" y="6.116970486111107" type="line"/>
    </contour>
  </outline>
</glyph>
<glyph name="twosuperior" format="2">
  <advance width="773"/>
  <unicode hex="00B2"/>
  <outline>
    <contour>
      <point x="82.8056640625" y="671.0" type="line"/>
      <point x="82.36247829861111" y="777.0" type="line"/>
      <point x="95.46981336805555" y="853.5561848958333"/>
      <point x="204.02934027777778" y="1004.7893012152778"/>
      <point x="330.548828125" y="1078.771484375" type="qcurve" smooth="yes"/>
      <point x="417.1725043402778" y="1129.480078125"/>
      <point x="478.2798394097222" y="1220.2"/>
      <point x="477.6150607638889" y="1282.3555555555556" type="qcurve" smooth="yes"/>
      <point x="476.95028211805555" y="1337.7987413194444"/>
      <point x="407.96161024305553" y="1393.0"/>
      <point x="356.07586805555553" y="1393.0" type="qcurve" smooth="yes"/>
      <point x="292.7379340277778" y="1393.0"/>
      <point x="194.5029296875" y="1349.0"/>
      <point x="142.0400390625" y="1299.0" type="qcurve"/>
      <point x="85.03103298611111" y="1385.9874131944443" type="line"/>
      <point x="127.84255642361111" y="1438.2559678819443"/>
      <point x="284.2534505208333" y="1520.0"/>
      <point x="399.21234809027777" y="1520.0" type="qcurve" smooth="yes"/>
      <point x="532.9159071180555" y="1520.0"/>
      <point x="683.5154730902777" y="1406.2444444444445"/>
      <point x="684.5821397569445" y="1304.888888888889" type="qcurve" smooth="yes"/>
      <point x="685.6488064236112" y="1188.888888888889"/>
      <point x="547.8930555555555" y="1045.8494791666667"/>
      <point x="454.7572048611111" y="1002.9771484375" type="qcurve" smooth="yes"/>
      <point x="324.5291232638889" y="943.3796657986111"/>
      <point x="245.14171006944446" y="869.9937065972222"/>
      <point x="236.08196614583335" y="840.5677083333334" type="qcurve"/>
      <point x="239.33018663194446" y="825.2444444444444" type="line"/>
      <point x="703.7364366319445" y="824.8888888888889" type="line"/>
      <point x="703.7364366319445" y="671.0" type="line"/>
    </contour>
  </outline>
</glyph>
<glyph name="paragraph" format="2">
  <advance width="1148"/>
  <unicode hex="00B6"/>
  <outline>
    <contour>
      <point x="1043.0035373263888" y="108.97526041666667" type="line"/>
      <point x="1043.0035373263888" y="0.0" type="line"/>
      <point x="255.1209418402778" y="0.0" type="line"/>
      <point x="255.1209418402778" y="109.33081597222223" type="line"/>
      <point x="746.6702039930556" y="138.57274305555555" type="line"/>
      <point x="748.6702039930556" y="765.6666666666666" type="line"/>
      <point x="709.6702039930556" y="759.6666666666666"/>
      <point x="544.1775824652777" y="751.6666666666666"/>
      <point x="485.1775824652778" y="751.6666666666666" type="qcurve" smooth="yes"/>
      <point x="292.1775824652778" y="751.6666666666666"/>
      <point x="58.17758246527778" y="964.1111111111111"/>
      <point x="58.17758246527778" y="1144.3333333333333" type="qcurve" smooth="yes"/>
      <point x="58.17758246527778" y="1315.3333333333333"/>
      <point x="280.1775824652778" y="1500.0"/>
      <point x="472.1775824652778" y="1500.0" type="qcurve" smooth="yes"/>
      <point x="1087.5465060763888" y="1500.0" type="line"/>
      <point x="1087.5465060763888" y="1377.8704427083333" type="line"/>
      <point x="895.0035373263889" y="1343.8704427083333" type="line"/>
      <point x="893.0035373263889" y="754.0" type="line"/>
      <point x="895.0035373263889" y="140.52641059027778" type="line"/>
    </contour>
    <contour>
      <point x="593.6702039930556" y="61.66666666666667" type="line"/>
      <point x="443.1209418402778" y="56.66666666666667" type="line"/>
      <point x="445.1209418402778" y="765.6666666666666" type="line"/>
      <point x="591.6702039930556" y="772.6666666666666" type="line"/>
    </contour>
  </outline>
</glyph>
<glyph name="onesuperior" format="2">
  <advance width="718"/>
  <unicode hex="00B9"/>
  <outline>
    <contour>
      <point x="95.39453125" y="670.0" type="line"/>
      <point x="95.39453125" y="756.8825954861111" type="line"/>
      <point x="272.4955729166667" y="786.8825954861111" type="line"/>
      <point x="275.4955729166667" y="1109.0" type="line"/>
      <point x="272.4955729166667" y="1364.4691840277778" type="line"/>
      <point x="93.39453125" y="1385.2469618055557" type="line"/>
      <point x="93.39453125" y="1478.2222222222222" type="line"/>
      <point x="440.60164930555555" y="1511.2222222222222" type="line"/>
      <point x="472.60164930555555" y="1476.2222222222222" type="line"/>
      <point x="466.60164930555555" y="1109.0" type="line"/>
      <point x="468.60164930555555" y="786.8825954861111" type="line"/>
      <point x="646.7026909722223" y="756.8825954861111" type="line"/>
      <point x="646.7026909722223" y="670.0" type="line"/>
    </contour>
  </outline>
</glyph>
<glyph name="guillemetright" format="2">
  <advance width="1301"/>
  <unicode hex="00BB"/>
  <outline>
    <contour>
      <point x="1275.823828125" y="586.5155164930555" type="line"/>
      <point x="1219.5492187500001" y="550.0671006944444"/>
      <point x="752.5716796875" y="239.64613715277778"/>
      <point x="693.7855251736112" y="199.8740234375" type="qcurve" smooth="yes"/>
      <point x="617.2610026041667" y="148.32098524305556"/>
      <point x="535.7612196180555" y="269.11406250000005"/>
      <point x="607.8628906250001" y="321.66773003472224" type="qcurve" smooth="yes"/>
      <point x="723.6272569444445" y="407.5495008680556"/>
      <point x="973.7106336805555" y="579.7276692708333"/>
      <point x="1006.4014105902777" y="603.0698133680555" type="qcurve"/>
      <point x="973.5760416666667" y="625.7618489583333"/>
      <point x="688.1848958333334" y="835.2718967013889"/>
      <point x="604.2857421875001" y="898.9163411458334" type="qcurve" smooth="yes"/>
      <point x="533.9624782986111" y="951.3823784722222"/>
      <point x="602.3530381944445" y="1071.419900173611"/>
      <point x="676.0540798611112" y="1028.1538628472222" type="qcurve" smooth="yes"/>
      <point x="739.0077473958333" y="990.8383463541667"/>
      <point x="1207.1666015625" y="677.8209635416666"/>
      <point x="1275.823828125" y="631.9352213541666" type="qcurve"/>
    </contour>
    <contour>
      <point x="771.9760416666667" y="586.5155164930555" type="line"/>
      <point x="715.7014322916667" y="550.0671006944444"/>
      <point x="248.72389322916666" y="239.64613715277778"/>
      <point x="189.9377387152778" y="199.8740234375" type="qcurve" smooth="yes"/>
      <point x="113.41321614583335" y="148.32098524305556"/>
      <point x="31.913433159722228" y="269.11406250000005"/>
      <point x="104.01510416666667" y="321.66773003472224" type="qcurve" smooth="yes"/>
      <point x="219.77947048611114" y="407.5495008680556"/>
      <point x="469.8628472222222" y="579.7276692708333"/>
      <point x="502.5536241319444" y="603.0698133680555" type="qcurve"/>
      <point x="469.7282552083333" y="625.7618489583333"/>
      <point x="184.337109375" y="835.2718967013889"/>
      <point x="100.43795572916667" y="898.9163411458334" type="qcurve" smooth="yes"/>
      <point x="30.114691840277786" y="951.3823784722222"/>
      <point x="98.50525173611112" y="1071.419900173611"/>
      <point x="172.2062934027778" y="1028.1538628472222" type="qcurve" smooth="yes"/>
      <point x="235.15996093750002" y="990.8383463541667"/>
      <point x="703.3188151041667" y="677.8209635416666"/>
      <point x="771.9760416666667" y="631.9352213541666" type="qcurve"/>
    </contour>
  </outline>
</glyph>
<glyph name="AE" format="2">
  <advance width="1914"/>
  <unicode hex="00C6"/>
  <outline>
    <contour>
      <point x="8.298763020833341" y="0.0" type="line"/>
      <point x="8.298763020833341" y="109.33081597222223" type="line"/>
      <point x="177.32766927083335" y="143.1968532986111" type="line"/>
      <point x="387.32805989583335" y="540.0" type="line"/>
      <point x="796.7701388888889" y="1351.3555555555556" type="line"/>
      <point x="667.0082899305555" y="1378.2259982638889" type="line"/>
      <point x="667.0082899305555" y="1500.0" type="line"/>
      <point x="1789.078884548611" y="1500.0" type="line"/>
      <point x="1789.078884548611" y="1151.6062934027777" type="line"/>
      <point x="1659.4078125" y="1151.6062934027777" type="line"/>
      <point x="1628.636328125" y="1367.7777777777778" type="line"/>
      <point x="1261.0753906250002" y="1367.7777777777778" type="line"/>
      <point x="1226.6366102430557" y="1346.3555555555556" type="line"/>
      <point x="1225.0594618055557" y="783.0" type="line"/>
      <point x="1226.6366102430557" y="150.13333333333333" type="line"/>
      <point x="1259.5865017361111" y="125.77777777777779" type="line"/>
      <point x="1679.6910373263888" y="125.77777777777779" type="line"/>
      <point x="1744.9660807291666" y="386.1777777777778" type="line"/>
      <point x="1874.2815972222222" y="386.1777777777778" type="line"/>
      <point x="1840.0669270833334" y="0.0" type="line"/>
      <point x="761.1854817708333" y="0.0" type="line"/>
      <point x="761.1854817708333" y="108.97526041666667" type="line"/>
      <point x="937.3762369791667" y="144.41844618055555" type="line"/>
      <point x="939.3762369791667" y="783.0" type="line"/>
      <point x="937.3762369791667" y="1287.142578125" type="line"/>
      <point x="913.3762369791667" y="1313.142578125" type="line"/>
      <point x="520.0041666666667" y="511.45703125" type="line"/>
      <point x="348.6610026041667" y="141.6660373263889" type="line"/>
      <point x="499.1184244791667" y="109.33081597222223" type="line"/>
      <point x="499.1184244791667" y="0.0" type="line"/>
    </contour>
    <contour>
      <point x="413.3343532986111" y="474.23480902777777" type="line"/>
      <point x="482.21694878472226" y="603.9014756944445" type="line"/>
      <point x="740.6613932291667" y="588.9014756944445" type="line"/>
      <point x="740.6613932291667" y="474.23480902777777" type="line"/>
    </contour>
    <contour>
      <point x="740.6613932291667" y="588.9014756944445" type="line"/>
      <point x="1033.9192057291666" y="604.9014756944445" type="line"/>
      <point x="1033.9192057291666" y="474.23480902777777" type="line"/>
      <point x="740.6613932291667" y="474.23480902777777" type="line"/>
    </contour>
    <contour>
      <point x="1092.0307508680555" y="730.8888888888889" type="line"/>
      <point x="1092.0307508680555" y="841.1111111111111" type="line"/>
      <point x="1536.0099392361112" y="851.1111111111111" type="line"/>
      <point x="1563.9369791666668" y="1004.3555555555556" type="line"/>
      <point x="1680.5287977430555" y="1004.3555555555556" type="line"/>
      <point x="1680.5287977430555" y="565.1555555555556" type="line"/>
      <point x="1563.9369791666668" y="565.1555555555556" type="line"/>
      <point x="1536.0099392361112" y="720.8888888888889" type="line"/>
    </contour>
  </outline>
</glyph>
<glyph name="multiply" format="2">
  <advance width="963"/>
  <unicode hex="00D7"/>
  <outline>
    <contour>
      <point x="229.18717447916669" y="238.33018663194443" type="line"/>
      <point x="95.16872829861111" y="372.70418836805555" type="line"/>
      <point x="734.9586588541666" y="1026.025368923611" type="line"/>
      <point x="868.1314019097223" y="891.6513671875" type="line"/>
    </contour>
    <contour>
      <point x="733.0049913194445" y="237.2222222222222" type="line"/>
      <point x="94.06076388888889" y="890.5434027777778" type="line"/>
      <point x="229.4494357638889" y="1027.1333333333334" type="line"/>
      <point x="869.2393663194445" y="373.8121527777778" type="line"/>
    </contour>
  </outline>
</glyph>
<glyph name="germandbls" format="2">
  <advance width="1350"/>
  <unicode hex="00DF"/>
  <outline>
    <contour>
      <point x="1113.2250434027778" y="1225.5555555555557" type="qcurve" smooth="yes"/>
      <point x="1113.2250434027778" y="1097.211328125"/>
      <point x="993.0064019097222" y="972.3180338541666"/>
      <point x="903.7319878472223" y="931.6666666666666" type="qcurve" smooth="yes"/>
      <point x="863.3433159722223" y="913.8209635416666"/>
      <point x="815.0250868055556" y="861.8863715277778"/>
      <point x="815.0250868055556" y="814.5333333333333" type="qcurve" smooth="yes"/>
      <point x="815.0250868055556" y="761.4222222222222"/>
      <point x="896.8487630208334" y="692.3981119791666"/>
      <point x="1002.6946614583335" y="654.1727430555555" type="qcurve" smooth="yes"/>
      <point x="1146.1179036458334" y="603.1289279513888"/>
      <point x="1306.216623263889" y="445.1937065972222"/>
      <point x="1306.216623263889" y="303.0" type="qcurve" smooth="yes"/>
      <point x="1306.216623263889" y="162.84444444444443"/>
      <point x="1119.5216796875002" y="-21.885112847222224"/>
      <point x="971.1233723958335" y="-21.885112847222224" type="qcurve" smooth="yes"/>
      <point x="879.035546875" y="-21.885112847222224"/>
      <point x="756.0447916666667" y="18.83374565972222"/>
      <point x="707.8586371527779" y="59.968967013888886" type="qcurve"/>
      <point x="680.8039279513889" y="0.0" type="line"/>
      <point x="585.1244791666667" y="0.0" type="line"/>
      <point x="585.1244791666667" y="337.22222222222223" type="line"/>
      <point x="697.1112630208333" y="337.22222222222223" type="line"/>
      <point x="706.775412326389" y="282.1333333333333" type="line" smooth="yes"/>
      <point x="722.0160807291667" y="197.2"/>
      <point x="835.5651041666667" y="100.27170138888889"/>
      <point x="920.5430772569446" y="100.27170138888889" type="qcurve" smooth="yes"/>
      <point x="985.9743055555555" y="100.27170138888889"/>
      <point x="1073.7835069444445" y="169.88888888888889"/>
      <point x="1073.7835069444445" y="240.08888888888887" type="qcurve" smooth="yes"/>
      <point x="1073.7835069444445" y="309.9048177083333"/>
      <point x="984.4256727430557" y="381.0362630208333"/>
      <point x="872.3854383680556" y="426.0159288194444" type="qcurve" smooth="yes"/>
      <point x="730.5800130208333" y="483.3041883680555"/>
      <point x="595.6624131944445" y="626.8888888888889"/>
      <point x="595.6624131944445" y="745.4888888888889" type="qcurve" smooth="yes"/>
      <point x="595.6624131944445" y="851.2603732638889"/>
      <point x="700.6340928819445" y="975.6"/>
      <point x="785.2139539930556" y="1016.1555555555556" type="qcurve" smooth="yes"/>
      <point x="853.8172960069445" y="1049.5111111111112"/>
      <point x="908.2682291666667" y="1135.1555555555556"/>
      <point x="906.8460069444445" y="1210.1555555555556" type="qcurve" smooth="yes"/>
      <point x="905.4237847222223" y="1287.8222222222223"/>
      <point x="811.7797743055556" y="1391.4888888888888"/>
      <point x="709.6525390625001" y="1391.4888888888888" type="qcurve" smooth="yes"/>
      <point x="588.5309678819444" y="1391.4888888888888"/>
      <point x="471.8955729166667" y="1231.911111111111"/>
      <point x="473.1844618055556" y="1058.3333333333333" type="qcurve"/>
      <point x="477.1844618055556" y="527.0" type="line"/>
      <point x="490.18446180555566" y="45.0" type="line"/>
      <point x="461.1844618055556" y="0.0" type="line"/>
      <point x="62.17777777777778" y="0.0" type="line"/>
      <point x="62.17777777777778" y="94.22222222222223" type="line"/>
      <point x="199.79075520833334" y="129.22222222222223" type="line"/>
      <point x="202.857421875" y="527.0" type="line"/>
      <point x="205.857421875" y="1086.2222222222222" type="line" smooth="yes"/>
      <point x="206.857421875" y="1284.963107638889"/>
      <point x="462.2833767361111" y="1522.2666666666667"/>
      <point x="697.4512803819445" y="1522.2666666666667" type="qcurve" smooth="yes"/>
      <point x="888.5365885416667" y="1522.2666666666667"/>
      <point x="1113.2250434027778" y="1362.111111111111"/>
    </contour>
  </outline>
</glyph>
<glyph name="eth" format="2">
  <advance width="1135"/>
  <unicode hex="00F0"/>
  <outline>
    <contour>
      <point x="53.813411458333334" y="495.3333333333333" type="qcurve" smooth="yes"/>
      <point x="53.813411458333334" y="730.9668836805556"/>
      <point x="330.5467013888889" y="1021.7205512152777"/>
      <point x="564.5915364583334" y="1021.7205512152777" type="qcurve" smooth="yes"/>
      <point x="767.9919270833334" y="1021.7205512152777"/>
      <point x="928.0721571180557" y="721.0"/>
      <point x="941.9578993055557" y="496.0" type="qcurve"/>
      <point x="787.1684027777778" y="496.0" type="line"/>
      <point x="791.6002604166666" y="668.0056640625"/>
      <point x="685.7571180555556" y="890.5662543402777"/>
      <point x="568.1470920138889" y="891.6329210069445" type="qcurve" smooth="yes"/>
      <point x="452.54292534722225" y="892.6995876736111"/>
      <point x="346.9848958333334" y="706.0"/>
      <point x="347.9848958333334" y="513.5555555555555" type="qcurve" smooth="yes"/>
      <point x="348.9848958333334" y="316.2"/>
      <point x="464.2349609375001" y="98.22411024305556"/>
      <point x="565.7242404513889" y="98.86855468750001" type="qcurve" smooth="yes"/>
      <point x="695.8827039930555" y="99.51299913194444"/>
      <point x="789.2090711805556" y="363.0"/>
      <point x="789.2090711805556" y="621.0" type="qcurve" smooth="yes"/>
      <point x="789.2090711805556" y="956.1111111111111"/>
      <point x="508.92927517361113" y="1373.882595486111"/>
      <point x="248.98591579861113" y="1472.882595486111" type="qcurve"/>
      <point x="306.251953125" y="1585.4222222222222" type="line"/>
      <point x="704.3567274305556" y="1463.6888888888889"/>
      <point x="1081.3811848958335" y="952.0"/>
      <point x="1081.3811848958335" y="624.0" type="qcurve" smooth="yes"/>
      <point x="1081.3811848958335" y="328.2773654513889"/>
      <point x="818.4745225694445" y="-21.66351996527778"/>
      <point x="563.5661675347222" y="-21.66351996527778" type="qcurve" smooth="yes"/>
      <point x="328.5213324652778" y="-21.66351996527778"/>
      <point x="53.813411458333334" y="250.95555555555555"/>
    </contour>
    <contour>
      <point x="330.22319878472223" y="1209.771484375" type="line"/>
      <point x="851.0910807291667" y="1535.4603732638889" type="line"/>
      <point x="915.2466362847222" y="1434.3333333333333" type="line"/>
      <point x="394.3787543402778" y="1107.9333333333334" type="line"/>
    </contour>
  </outline>
</glyph>
<glyph name="thorn" format="2">
  <advance width="1164"/>
  <unicode hex="00FE"/>
  <outline>
    <contour>
      <point x="19.33648003472222" y="-480.0" type="line"/>
      <point x="19.33648003472222" y="-386.1333333333333" type="line"/>
      <point x="147.11382378472223" y="-351.1333333333333" type="line"/>
      <point x="149.11382378472223" y="427.0" type="line"/>
      <point x="145.64401041666667" y="1359.3752604166666" type="line"/>
      <point x="3.9192925347222225" y="1391.0666666666666" type="line"/>
      <point x="3.9192925347222225" y="1500.0" type="line"/>
      <point x="353.6809027777778" y="1534.0" type="line"/>
      <point x="385.6809027777778" y="1534.0" type="line"/>
      <point x="423.99201388888895" y="1496.6666666666667" type="line"/>
      <point x="421.2142361111112" y="893.1553602430556" type="line"/>
      <point x="460.6429470486112" y="957.3891059027778"/>
      <point x="609.1150390625" y="1036.7974826388888"/>
      <point x="714.8422743055556" y="1036.7974826388888" type="qcurve" smooth="yes"/>
      <point x="888.2495876736111" y="1036.7974826388888"/>
      <point x="1107.1904296875" y="779.9947699652778"/>
      <point x="1107.1904296875" y="540.3111111111111" type="qcurve" smooth="yes"/>
      <point x="1107.1904296875" y="286.61467013888887"/>
      <point x="877.6927734375" y="-12.0"/>
      <point x="684.8307508680556" y="-12.0" type="qcurve" smooth="yes"/>
      <point x="590.0775173611112" y="-12.0"/>
      <point x="459.1400173611112" y="40.8115234375"/>
      <point x="421.3284939236112" y="79.2744140625" type="qcurve"/>
      <point x="423.3284939236112" y="-351.1333333333333" type="line"/>
      <point x="576.9425347222223" y="-386.1333333333333" type="line"/>
      <point x="576.9425347222223" y="-480.0" type="line"/>
    </contour>
    <contour>
      <point x="420.55008680555557" y="247.40774739583333" type="line"/>
      <point x="443.87335069444447" y="190.9633029513889"/>
      <point x="544.3613715277778" y="117.66666666666667"/>
      <point x="612.398459201389" y="117.66666666666667" type="qcurve" smooth="yes"/>
      <point x="708.6514756944445" y="117.66666666666667"/>
      <point x="811.0659071180555" y="317.4584852430556"/>
      <point x="811.0659071180555" y="507.84444444444443" type="qcurve" smooth="yes"/>
      <point x="811.0659071180555" y="696.45703125"/>
      <point x="710.4680338541667" y="874.4444444444445"/>
      <point x="612.3915364583333" y="874.4444444444445" type="qcurve" smooth="yes"/>
      <point x="543.3747829861111" y="874.4444444444445"/>
      <point x="447.7324652777778" y="802.8119574652778"/>
      <point x="421.55008680555557" y="749.1800998263889" type="qcurve"/>
      <point x="418.19453125000007" y="433.4863715277778" type="line"/>
    </contour>
  </outline>
</glyph>
<glyph name="Schwa" format="2">
  <advance width="1284"/>
  <unicode hex="018F"/>
  <outline>
    <contour>
      <point x="43.212977430555554" y="1227.0708767361111" type="line"/>
      <point x="119.57124565972222" y="1365.5236979166666"/>
      <point x="369.0156467013889" y="1516.8857421875"/>
      <point x="552.47578125" y="1516.8857421875" type="qcurve" smooth="yes"/>
      <point x="856.4908420138889" y="1516.8857421875"/>
      <point x="1215.625390625" y="1114.6704427083334"/>
      <point x="1215.625390625" y="770.7220052083334" type="qcurve" smooth="yes"/>
      <point x="1215.625390625" y="410.8656032986111"/>
      <point x="868.8665364583334" y="-25.973372395833334"/>
      <point x="590.6502170138889" y="-25.973372395833334" type="qcurve" smooth="yes"/>
      <point x="338.90748697916666" y="-25.973372395833334"/>
      <point x="53.60416666666666" y="270.005859375"/>
      <point x="53.60416666666666" y="578.0" type="qcurve" smooth="yes"/>
      <point x="53.60416666666666" y="686.0" type="line"/>
      <point x="1050.8251953125" y="686.0" type="line"/>
      <point x="1050.8251953125" y="543.3333333333334" type="line"/>
      <point x="573.6640625" y="551.3333333333334" type="line"/>
      <point x="290.92491319444446" y="545.3333333333334" type="line"/>
      <point x="290.92491319444446" y="481.0" type="line" smooth="yes"/>
      <point x="290.92491319444446" y="322.82222222222225"/>
      <point x="428.06890190972223" y="118.8717013888889"/>
      <point x="578.8458116319445" y="118.8717013888889" type="qcurve" smooth="yes"/>
      <point x="734.2227213541667" y="118.8717013888889"/>
      <point x="905.4100911458333" y="432.2387803819444"/>
      <point x="904.9669053819443" y="743.0901475694444" type="qcurve" smooth="yes"/>
      <point x="904.5237196180556" y="1063.845703125"/>
      <point x="691.1026041666667" y="1355.088888888889"/>
      <point x="511.8166666666666" y="1355.088888888889" type="qcurve" smooth="yes"/>
      <point x="386.48671875" y="1355.088888888889"/>
      <point x="200.71024305555557" y="1243.197287326389"/>
      <point x="145.56286892361112" y="1148.4302083333334" type="qcurve"/>
    </contour>
  </outline>
</glyph>
<glyph name="doubleprimemod" format="2">
  <advance width="867"/>
  <unicode hex="02BA"/>
  <outline>
    <contour>
      <point x="221.94296875" y="1502.0" type="line"/>
      <point x="455.74296875000005" y="1502.0" type="line"/>
      <point x="308.1645616319445" y="952.6362630208333" type="line"/>
      <point x="166.25345052083333" y="957.6362630208333" type="line"/>
    </contour>
    <contour>
      <point x="560.3811197916667" y="1502.0" type="line"/>
      <point x="794.1811197916667" y="1502.0" type="line"/>
      <point x="646.6027126736111" y="952.6362630208333" type="line"/>
      <point x="504.69160156250007" y="957.6362630208333" type="line"/>
    </contour>
  </outline>
</glyph>
<glyph name="circumflex" format="2">
  <advance width="1024"/>
  <unicode hex="02C6"/>
  <outline>
    <contour>
      <point x="512.0" y="1530.7477647569444" type="qcurve" smooth="yes"/>
      <point x="547.2203342013889" y="1530.7477647569444"/>
      <point x="597.5727430555555" y="1496.6823567708334"/>
      <point x="632.2819661458334" y="1451.8188368055555" type="qcurve" smooth="yes"/>
      <point x="827.948828125" y="1203.7647569444443" type="line"/>
      <point x="749.7570095486111" y="1130.505642361111" type="line"/>
      <point x="512.0" y="1341.2479817708333" type="line"/>
      <point x="274.2429904513889" y="1130.505642361111" type="line"/>
      <point x="196.051171875" y="1203.7647569444443" type="line"/>
      <point x="391.71803385416666" y="1451.8188368055555" type="line" smooth="yes"/>
      <point x="432.24696180555554" y="1503.0385416666668"/>
      <point x="476.7796657986111" y="1530.7477647569444"/>
    </contour>
  </outline>
</glyph>
<glyph name="caron" format="2">
  <advance width="1024"/>
  <unicode hex="02C7"/>
  <outline>
    <contour>
      <point x="512.0" y="1134.0611979166667" type="qcurve" smooth="yes"/>
      <point x="476.7796657986111" y="1134.0611979166667"/>
      <point x="426.4272569444444" y="1168.1266059027778"/>
      <point x="391.71803385416666" y="1212.9901258680557" type="qcurve" smooth="yes"/>
      <point x="196.051171875" y="1461.0442057291666" type="line"/>
      <point x="274.2429904513889" y="1534.3033203125" type="line"/>
      <point x="512.0" y="1323.5609809027778" type="line"/>
      <point x="749.7570095486111" y="1534.3033203125" type="line"/>
      <point x="827.948828125" y="1461.0442057291666" type="line"/>
      <point x="632.2819661458334" y="1212.9901258680557" type="line" smooth="yes"/>
      <point x="591.7530381944445" y="1161.7704210069444"/>
      <point x="547.2203342013889" y="1134.0611979166667"/>
    </contour>
  </outline>
</glyph>
<glyph name="dotaccent" format="2">
  <advance width="1024"/>
  <unicode hex="02D9"/>
  <outline>
    <contour>
      <point x="388.70399305555554" y="1288.8882161458334" type="qcurve" smooth="yes"/>
      <point x="388.70399305555554" y="1350.1739583333333"/>
      <point x="452.38532986111113" y="1414.6139973958334"/>
      <point x="512.3555555555556" y="1414.6139973958334" type="qcurve" smooth="yes"/>
      <point x="568.7486328125" y="1414.6139973958334"/>
      <point x="636.0071180555556" y="1345.4628472222223"/>
      <point x="636.0071180555556" y="1288.8882161458334" type="qcurve" smooth="yes"/>
      <point x="636.0071180555556" y="1228.380881076389"/>
      <point x="573.0368923611111" y="1163.1624348958333"/>
      <point x="512.3555555555556" y="1163.1624348958333" type="qcurve" smooth="yes"/>
      <point x="455.96247829861113" y="1163.1624348958333"/>
      <point x="388.70399305555554" y="1231.958029513889"/>
    </contour>
  </outline>
</glyph>
<glyph name="tilde" format="2">
  <advance width="1024"/>
  <unicode hex="02DC"/>
  <outline>
    <contour>
      <point x="163.41534288194444" y="1267.7085503472222" type="line"/>
      <point x="194.5423828125" y="1332.7263671875"/>
      <point x="315.2930989583333" y="1445.1930338541667"/>
      <point x="387.0423611111111" y="1445.1930338541667" type="qcurve" smooth="yes"/>
      <point x="426.10210503472223" y="1445.1930338541667"/>
      <point x="492.93333333333334" y="1419.5282552083333"/>
      <point x="528.7041883680556" y="1394.3739583333333" type="qcurve" smooth="yes"/>
      <point x="555.0318576388889" y="1376.7974392361111"/>
      <point x="635.4605685763889" y="1328.689474826389"/>
      <point x="674.0974609375" y="1328.689474826389" type="qcurve" smooth="yes"/>
      <point x="711.7343532986112" y="1328.689474826389"/>
      <point x="782.8538411458334" y="1383.0926215277777"/>
      <point x="804.2494357638889" y="1419.112326388889" type="qcurve"/>
      <point x="866.3561414930556" y="1342.3903211805555" type="line"/>
      <point x="830.8735460069445" y="1264.7953559027778"/>
      <point x="718.5184244791667" y="1171.8785807291667"/>
      <point x="658.8561631944444" y="1171.8785807291667" type="qcurve" smooth="yes"/>
      <point x="614.0649739583333" y="1171.8785807291667"/>
      <point x="525.1270399305556" y="1213.4957682291667"/>
      <point x="498.37588975694445" y="1231.9389539930555" type="qcurve" smooth="yes"/>
      <point x="466.11551649305557" y="1254.4488064236111"/>
      <point x="399.1293619791667" y="1287.1135850694445"/>
      <point x="372.22391493055557" y="1287.1135850694445" type="qcurve" smooth="yes"/>
      <point x="327.43272569444446" y="1287.1135850694445"/>
      <point x="246.22623697916666" y="1218.4291015625"/>
      <point x="228.5620876736111" y="1191.3421006944445" type="qcurve"/>
    </contour>
  </outline>
</glyph>
<glyph name="hungarumlaut" format="2">
  <advance width="1024"/>
  <unicode hex="02DD"/>
  <outline>
    <contour>
      <point x="644.5337673611111" y="1449.1559461805555" type="qcurve" smooth="yes"/>
      <point x="647.4937282986111" y="1411.8333116319445"/>
      <point x="608.9914279513889" y="1354.6429470486112"/>
      <point x="570.8186848958334" y="1323.7572048611112" type="qcurve" smooth="yes"/>
      <point x="329.8767795138889" y="1130.4903428819443" type="line"/>
      <point x="257.4818142361111" y="1198.2542751736112" type="line"/>
      <point x="409.01553819444445" y="1411.73203125" type="line" smooth="yes"/>
      <point x="439.6314670138889" y="1455.0184027777777"/>
      <point x="505.8746527777778" y="1524.3586588541666"/>
      <point x="543.1819878472222" y="1526.8957682291666" type="qcurve" smooth="yes"/>
      <point x="579.3343967013889" y="1529.0100260416666"/>
      <point x="641.5738064236111" y="1482.6182074652777"/>
    </contour>
    <contour>
      <point x="1002.4924262152779" y="1449.5787977430555" type="qcurve" smooth="yes"/>
      <point x="1005.4523871527779" y="1411.8333116319445"/>
      <point x="967.3729383680555" y="1354.6429470486112"/>
      <point x="928.77734375" y="1323.7572048611112" type="qcurve" smooth="yes"/>
      <point x="687.8354383680555" y="1130.4903428819443" type="line"/>
      <point x="615.4404730902778" y="1198.2542751736112" type="line"/>
      <point x="767.1957899305555" y="1411.73203125" type="line" smooth="yes"/>
      <point x="797.81171875" y="1455.0184027777777"/>
      <point x="863.8333116319444" y="1524.7815104166666"/>
      <point x="901.140646701389" y="1526.8957682291666" type="qcurve" smooth="yes"/>
      <point x="937.2930555555556" y="1529.0100260416666"/>
      <point x="999.5324652777779" y="1482.6182074652777"/>
    </contour>
  </outline>
</glyph>
<glyph name="breveinvertedcomb" format="2">
  <advance width="1024"/>
  <unicode hex="030F"/>
  <outline>
    <contour>
      <point x="254.1939453125" y="1145.1001736111111" type="qcurve"/>
      <point x="176.4249782986111" y="1192.785915798611" type="line"/>
      <point x="194.31764322916666" y="1291.5129557291666"/>
      <point x="374.6513671875" y="1470.0959635416666"/>
      <point x="511.0" y="1470.0959635416666" type="qcurve"/>
      <point x="648.2350043402778" y="1470.0959635416666"/>
      <point x="826.8100260416667" y="1307.6576171875"/>
      <point x="847.5750217013889" y="1194.6982855902777" type="qcurve"/>
      <point x="766.7597222222222" y="1144.3217664930555" type="line"/>
      <point x="736.2714626736112" y="1209.8150607638888"/>
      <point x="605.8966362847223" y="1310.5123263888888"/>
      <point x="510.4431857638889" y="1310.5123263888888" type="qcurve"/>
      <point x="410.7624782986111" y="1310.5123263888888"/>
      <point x="280.87779947916664" y="1208.6810980902778"/>
    </contour>
  </outline>
</glyph>
<glyph name="dotbelowcomb" format="2">
  <advance width="1024"/>
  <unicode hex="0323"/>
  <outline>
    <contour>
      <point x="389.3687717013889" y="-280.95952690972223" type="qcurve" smooth="yes"/>
      <point x="389.3687717013889" y="-220.11697048611111"/>
      <point x="452.6069227430556" y="-155.89852430555555"/>
      <point x="512.3555555555556" y="-155.89852430555555" type="qcurve" smooth="yes"/>
      <point x="568.5270399305556" y="-155.89852430555555"/>
      <point x="635.3423394097222" y="-224.82808159722222"/>
      <point x="635.3423394097222" y="-280.95952690972223" type="qcurve" smooth="yes"/>
      <point x="635.3423394097222" y="-341.2452690972222"/>
      <point x="572.8152994791667" y="-406.24212239583335"/>
      <point x="512.3555555555556" y="-406.24212239583335" type="qcurve" smooth="yes"/>
      <point x="456.1840711805556" y="-406.24212239583335"/>
      <point x="389.3687717013889" y="-337.6681206597222"/>
    </contour>
  </outline>
</glyph>
<glyph name="commaaccentcomb" format="2">
  <advance width="1024"/>
  <unicode hex="0326"/>
  <outline>
    <contour>
      <point x="371.1681423611111" y="-587.8049913194444" type="line"/>
      <point x="420.48995225694443" y="-554.5758463541666"/>
      <point x="499.4178168402778" y="-462.2169487847222"/>
      <point x="516.2813368055556" y="-409.3863498263889" type="qcurve"/>
      <point x="455.9555555555556" y="-409.16475694444443"/>
      <point x="390.0169921875" y="-337.39578993055557"/>
      <point x="390.0169921875" y="-283.2693793402778" type="qcurve" smooth="yes"/>
      <point x="390.0169921875" y="-230.92137586805555"/>
      <point x="461.13585069444446" y="-152.1314453125"/>
      <point x="521.3282986111111" y="-152.1314453125" type="qcurve" smooth="yes"/>
      <point x="578.2318576388889" y="-152.1314453125"/>
      <point x="654.2827907986111" y="-222.34422743055555"/>
      <point x="654.2827907986111" y="-293.62430555555557" type="qcurve" smooth="yes"/>
      <point x="654.2827907986111" y="-398.6980902777778"/>
      <point x="509.32703993055554" y="-595.0716579861111"/>
      <point x="417.3834418402778" y="-643.3085503472222" type="qcurve"/>
    </contour>
  </outline>
</glyph>
<glyph name="numeralsign" format="2">
  <advance width="441"/>
  <unicode hex="0374"/>
  <outline>
    <contour>
      <point x="152.98470052083334" y="972.6222222222223" type="line"/>
      <point x="57.3916232638889" y="1007.0635199652778" type="line"/>
      <point x="160.38344184027778" y="1500.0" type="line"/>
      <point x="340.08196614583335" y="1467.6622612847223" type="line"/>
      <point x="381.13081597222225" y="1418.0209635416666" type="line"/>
    </contour>
  </outline>
</glyph>
<glyph name="lownumeralsign" format="2">
  <advance width="441"/>
  <unicode hex="0375"/>
  <outline>
    <contour>
      <point x="235.46540798611113" y="-262.3777777777778" type="line"/>
      <point x="55.76688368055558" y="-230.0400390625" type="line"/>
      <point x="14.718033854166684" y="-180.39874131944444" type="line"/>
      <point x="242.8641493055556" y="265.0" type="line"/>
      <point x="338.4572265625" y="230.55870225694446" type="line"/>
    </contour>
  </outline>
</glyph>
<glyph name="tonos" format="2">
  <advance width="911"/>
  <unicode hex="0384"/>
  <anchor x="398.7465494791667" y="1017.7777777777778" name="_GRKtop"/>
  <outline>
    <contour>
      <point x="435.84173177083335" y="1166.6639539930557" type="line"/>
      <point x="340.2486545138889" y="1201.105251736111" type="line"/>
      <point x="439.6849175347222" y="1648.0037760416667" type="line"/>
      <point x="619.3834418402778" y="1615.666037326389" type="line"/>
      <point x="660.4322916666666" y="1566.0247395833333" type="line"/>
    </contour>
  </outline>
</glyph>
<glyph name="dieresistonos" format="2">
  <advance width="1203"/>
  <unicode hex="0385"/>
  <anchor x="580.1675130208333" y="1017.7777777777778" name="_GRKtop"/>
  <outline>
    <contour>
      <point x="312.7144965277778" y="1178.1979166666667" type="qcurve" smooth="yes"/>
      <point x="258.6769748263889" y="1178.1979166666667"/>
      <point x="194.35119357638888" y="1244.0608072916666"/>
      <point x="194.35119357638888" y="1298.6354383680555" type="qcurve" smooth="yes"/>
      <point x="194.35119357638888" y="1356.7872178819443"/>
      <point x="255.32141927083333" y="1418.9389973958334"/>
      <point x="312.7144965277778" y="1418.9389973958334" type="qcurve" smooth="yes"/>
      <point x="366.75201822916665" y="1418.9389973958334"/>
      <point x="431.0777994791667" y="1352.4989583333333"/>
      <point x="431.0777994791667" y="1298.6354383680555" type="qcurve" smooth="yes"/>
      <point x="431.0777994791667" y="1240.7052517361112"/>
      <point x="370.75201822916665" y="1178.1979166666667"/>
    </contour>
    <contour>
      <point x="612.3002170138889" y="1166.3083984375" type="line"/>
      <point x="511.7744357638889" y="1183.5960286458333" type="line"/>
      <point x="532.2132161458334" y="1641.2932942708333" type="line"/>
      <point x="714.7568142361112" y="1648.6989583333334" type="line"/>
      <point x="764.0939236111111" y="1607.3922526041667" type="line"/>
    </contour>
    <contour>
      <point x="890.1932725694445" y="1178.1979166666667" type="qcurve" smooth="yes"/>
      <point x="836.1557508680555" y="1178.1979166666667"/>
      <point x="771.8299696180555" y="1244.0608072916666"/>
      <point x="771.8299696180555" y="1298.6354383680555" type="qcurve" smooth="yes"/>
      <point x="771.8299696180555" y="1356.7872178819443"/>
      <point x="833.1557508680555" y="1418.9389973958334"/>
      <point x="890.1932725694445" y="1418.9389973958334" type="qcurve" smooth="yes"/>
      <point x="944.2307942708334" y="1418.9389973958334"/>
      <point x="1008.5565755208333" y="1352.4989583333333"/>
      <point x="1008.5565755208333" y="1298.6354383680555" type="qcurve" smooth="yes"/>
      <point x="1008.5565755208333" y="1240.7052517361112"/>
      <point x="948.5863498263889" y="1178.1979166666667"/>
    </contour>
  </outline>
</glyph>
<glyph name="Gamma" format="2">
  <advance width="1202"/>
  <unicode hex="0393"/>
  <outline>
    <contour>
      <point x="88.92035590277777" y="0.0" type="line"/>
      <point x="88.92035590277777" y="108.97526041666667" type="line"/>
      <point x="265.1111111111111" y="144.41844618055555" type="line"/>
      <point x="267.1111111111111" y="755.3295572916667" type="line"/>
      <point x="265.1111111111111" y="1343.8704427083333" type="line"/>
      <point x="88.92035590277777" y="1377.8704427083333" type="line"/>
      <point x="88.92035590277777" y="1500.0" type="line"/>
      <point x="1098.2001519097223" y="1500.0" type="line"/>
      <point x="1098.2001519097223" y="1084.1585069444445" type="line"/>
      <point x="968.695334201389" y="1084.1585069444445" type="line"/>
      <point x="930.0527777777778" y="1367.7777777777778" type="line"/>
      <point x="590.0991536458333" y="1367.7777777777778" type="line"/>
      <point x="555.0159288194445" y="1346.3555555555556" type="line"/>
      <point x="555.1492621527779" y="760.0" type="line"/>
      <point x="557.1492621527779" y="142.88763020833335" type="line"/>
      <point x="739.6169487847222" y="109.33081597222223" type="line"/>
      <point x="739.6169487847222" y="0.0" type="line"/>
    </contour>
  </outline>
</glyph>
<glyph name="Delta" format="2">
  <advance width="1342"/>
  <unicode hex="0394"/>
  <outline>
    <contour>
      <point x="108.3603515625" y="0.0" type="line"/>
      <point x="108.3603515625" y="117.46666666666667" type="line"/>
      <point x="265.5632595486111" y="594.1555555555556" type="line"/>
      <point x="548.5772569444445" y="1505.1555555555556" type="line"/>
      <point x="789.8420355902778" y="1505.1555555555556" type="line"/>
      <point x="1081.5157769097223" y="605.6666666666667" type="line"/>
      <point x="1243.7637586805556" y="117.46666666666667" type="line"/>
      <point x="1243.7637586805556" y="0.0" type="line"/>
    </contour>
    <contour>
      <point x="267.1186197916667" y="151.38218315972222" type="line"/>
      <point x="587.8611111111111" y="147.6710720486111" type="line"/>
      <point x="926.5610460069445" y="152.02662760416666" type="line"/>
      <point x="800.1899956597222" y="548.0222222222222" type="line"/>
      <point x="593.3487413194445" y="1190.4853081597223" type="line"/>
      <point x="393.06807725694443" y="558.2228515625001" type="line"/>
    </contour>
  </outline>
</glyph>
<glyph name="Xi" format="2">
  <advance width="1248"/>
  <unicode hex="039E"/>
  <outline>
    <contour>
      <point x="94.4085720486111" y="0.0" type="line"/>
      <point x="54.08530815972222" y="471.0540798611111" type="line"/>
      <point x="185.88719618055555" y="471.0540798611111" type="line"/>
      <point x="250.0949435763889" y="219.11111111111114" type="line"/>
      <point x="615.4617404513889" y="215.40000000000003" type="line"/>
      <point x="997.8952039930555" y="219.11111111111114" type="line"/>
      <point x="1062.1029513888889" y="471.0540798611111" type="line"/>
      <point x="1193.9048394097222" y="471.0540798611111" type="line"/>
      <point x="1153.5815755208334" y="0.0" type="line"/>
    </contour>
    <contour>
      <point x="298.58422309027776" y="515.1174045138889" type="line"/>
      <point x="298.58422309027776" y="968.5396267361111" type="line"/>
      <point x="413.63307291666666" y="968.5396267361111" type="line"/>
      <point x="444.26996527777777" y="821.4062934027778" type="line"/>
      <point x="619.0172960069444" y="810.0513671875" type="line"/>
      <point x="803.7201822916667" y="821.4062934027778" type="line"/>
      <point x="834.3570746527778" y="968.5396267361111" type="line"/>
      <point x="949.4059244791667" y="968.5396267361111" type="line"/>
      <point x="949.4059244791667" y="515.1174045138889" type="line"/>
      <point x="834.3570746527778" y="515.1174045138889" type="line"/>
      <point x="803.7201822916667" y="664.7396267361111" type="line"/>
      <point x="619.0172960069444" y="676.0945529513889" type="line"/>
      <point x="444.26996527777777" y="664.7396267361111" type="line"/>
      <point x="413.63307291666666" y="515.1174045138889" type="line"/>
    </contour>
    <contour>
      <point x="96.26056857638889" y="1033.6696180555555" type="line"/>
      <point x="96.26056857638889" y="1500.3555555555556" type="line"/>
      <point x="1151.7295789930556" y="1500.3555555555556" type="line"/>
      <point x="1151.7295789930556" y="1033.6696180555555" type="line"/>
      <point x="1025.0692057291667" y="1033.6696180555555" type="line"/>
      <point x="993.6939453125001" y="1275.5111111111112" type="line"/>
      <point x="616.1728515625" y="1279.2222222222222" type="line"/>
      <point x="254.29620225694447" y="1275.5111111111112" type="line"/>
      <point x="222.92094184027778" y="1033.6696180555555" type="line"/>
    </contour>
  </outline>
</glyph>
<glyph name="Omega" format="2">
  <advance width="1511"/>
  <unicode hex="03A9"/>
  <anchor x="157.43689236111112" y="1500.0" name="GRKtopleft"/>
  <outline>
    <contour>
      <point x="56.365625" y="0.0" type="line"/>
      <point x="17.05766059027778" y="404.23480902777777" type="line"/>
      <point x="161.48932291666668" y="404.23480902777777" type="line"/>
      <point x="224.56940104166668" y="148.77777777777777" type="line"/>
      <point x="489.7137803819445" y="143.22222222222223" type="line"/>
      <point x="497.8884114583334" y="257.95807291666665" type="line"/>
      <point x="328.9406467013889" y="312.79307725694446"/>
      <point x="94.82473958333334" y="629.9033637152778"/>
      <point x="95.67044270833334" y="877.7408854166666" type="qcurve" smooth="yes"/>
      <point x="94.82473958333334" y="1165.4748480902779"/>
      <point x="449.52447916666665" y="1522.4888888888888"/>
      <point x="755.8043185763889" y="1522.4888888888888" type="qcurve" smooth="yes"/>
      <point x="1066.8189453125" y="1522.4888888888888"/>
      <point x="1414.8708984375" y="1168.3555555555556"/>
      <point x="1414.8708984375" y="883.9555555555555" type="qcurve" smooth="yes"/>
      <point x="1414.8708984375" y="646.0222222222222"/>
      <point x="1176.3231336805557" y="314.0400390625"/>
      <point x="1018.8776692708334" y="258.84444444444443" type="qcurve"/>
      <point x="1027.938671875" y="143.22222222222223" type="line"/>
      <point x="1286.1935329861112" y="148.77777777777777" type="line"/>
      <point x="1349.4952039930556" y="404.23480902777777" type="line"/>
      <point x="1493.9268663194446" y="404.23480902777777" type="line"/>
      <point x="1454.6189019097224" y="0.0" type="line"/>
      <point x="856.384375" y="0.0" type="line"/>
      <point x="830.612890625" y="360.1333333333333" type="line"/>
      <point x="973.8858072916667" y="402.72452256944445"/>
      <point x="1111.3908203125" y="671.2666666666667"/>
      <point x="1111.3908203125" y="885.0" type="qcurve" smooth="yes"/>
      <point x="1111.3908203125" y="1133.5922526041666"/>
      <point x="917.9629774305556" y="1371.8222222222223"/>
      <point x="755.1598741319444" y="1371.8222222222223" type="qcurve" smooth="yes"/>
      <point x="590.9339192708334" y="1371.6006293402777"/>
      <point x="398.3048177083334" y="1133.2366970486112"/>
      <point x="399.1505208333334" y="881.2329210069445" type="qcurve" smooth="yes"/>
      <point x="398.3048177083334" y="666.6132161458333"/>
      <point x="545.3483940972222" y="401.83815104166666"/>
      <point x="683.4840060763889" y="360.1333333333333" type="qcurve"/>
      <point x="657.7125217013889" y="0.0" type="line"/>
    </contour>
  </outline>
</glyph>
<glyph name="alpha" format="2">
  <advance width="1233"/>
  <unicode hex="03B1"/>
  <anchor x="491.44919704861115" y="1017.7777777777778" name="GRKtop"/>
  <outline>
    <contour>
      <point x="454.8217447916667" y="-9.355555555555556" type="qcurve" smooth="yes"/>
      <point x="282.50709635416666" y="-9.355555555555556"/>
      <point x="55.72578125" y="262.26666666666665"/>
      <point x="55.72578125" y="496.1777777777778" type="qcurve" smooth="yes"/>
      <point x="55.72578125" y="736.0888888888888"/>
      <point x="295.9439887152778" y="1036.6438151041666"/>
      <point x="485.49930555555557" y="1036.6438151041666" type="qcurve" smooth="yes"/>
      <point x="656.7319878472223" y="1036.6438151041666"/>
      <point x="830.0860460069445" y="791.8"/>
      <point x="864.4359375" y="552.8888888888889" type="qcurve"/>
      <point x="931.393381076389" y="552.8888888888889" type="line"/>
      <point x="994.5229383680555" y="235.01569010416665"/>
      <point x="1052.5556206597223" y="130.4825954861111"/>
      <point x="1111.5067708333333" y="130.4825954861111" type="qcurve" smooth="yes"/>
      <point x="1179.634006076389" y="130.4825954861111" type="line"/>
      <point x="1179.634006076389" y="30.040668402777776" type="line"/>
      <point x="972.5009114583333" y="-10.48888888888889" type="line"/>
      <point x="871.5287977430555" y="-11.200000000000001"/>
      <point x="792.6728298611112" y="108.70355902777777"/>
      <point x="747.9298611111111" y="403.4" type="qcurve"/>
      <point x="735.8416015625" y="403.4" type="line"/>
      <point x="674.8961154513889" y="719.3111111111111"/>
      <point x="587.3718315972222" y="913.6654079861111"/>
      <point x="515.0896701388889" y="913.6654079861111" type="qcurve" smooth="yes"/>
      <point x="435.85509982638894" y="913.6654079861111"/>
      <point x="353.33982204861115" y="705.7555555555556"/>
      <point x="353.33982204861115" y="506.1163411458333" type="qcurve" smooth="yes"/>
      <point x="353.33982204861115" y="335.53333333333336"/>
      <point x="432.4754340277778" y="136.13270399305557"/>
      <point x="503.0427083333334" y="136.13270399305557" type="qcurve" smooth="yes"/>
      <point x="577.583984375" y="136.13270399305557"/>
      <point x="698.4820746527778" y="370.8"/>
      <point x="759.8059678819444" y="609.1777777777778" type="qcurve"/>
      <point x="782.6866753472223" y="609.1777777777778" type="line"/>
      <point x="897.8526909722223" y="997.4215928819444" type="line"/>
      <point x="1133.7784722222223" y="1018.8444444444444" type="line"/>
      <point x="1171.6229166666667" y="984.0222222222222" type="line"/>
      <point x="930.7164496527778" y="407.4" type="line"/>
      <point x="844.4370008680555" y="407.4" type="line"/>
      <point x="784.0934027777778" y="211.11488715277778"/>
      <point x="594.5064236111111" y="-9.355555555555556"/>
    </contour>
  </outline>
</glyph>
<glyph name="gamma" format="2">
  <advance width="1025"/>
  <unicode hex="03B3"/>
  <outline>
    <contour>
      <point x="436.89911024305553" y="-480.0" type="line"/>
      <point x="399.0546657986111" y="-445.17777777777775" type="line"/>
      <point x="432.89659288194446" y="62.14257812500001" type="line"/>
      <point x="548.2437717013889" y="62.14257812500001" type="line"/>
      <point x="666.2556857638889" y="559.6888888888889" type="line"/>
      <point x="752.3296657986111" y="999.4209635416667" type="line"/>
      <point x="967.9887803819445" y="1018.4888888888889" type="line"/>
      <point x="1006.1887803819445" y="983.6666666666666" type="line"/>
      <point x="838.5007595486112" y="520.8222222222222" type="line"/>
      <point x="614.2490017361112" y="-137.75555555555556" type="line"/>
      <point x="467.26555989583335" y="-138.46666666666667" type="line"/>
      <point x="256.8748046875" y="473.5333333333333" type="line"/>
      <point x="141.53561197916667" y="801.9174045138889" type="line" smooth="yes"/>
      <point x="126.82701822916667" y="836.0475911458333"/>
      <point x="99.18634982638889" y="861.1593315972223"/>
      <point x="65.37105034722221" y="867.6685546875" type="qcurve" smooth="yes"/>
      <point x="2.215928819444443" y="883.3345920138889" type="line"/>
      <point x="2.215928819444443" y="991.2012586805556" type="line"/>
      <point x="268.303125" y="1025.5568142361112" type="line"/>
      <point x="324.2580512152778" y="1025.9123697916666"/>
      <point x="384.27209201388894" y="961.5955946180555"/>
      <point x="406.9559461805556" y="883.1333333333333" type="qcurve" smooth="yes"/>
      <point x="500.15299479166674" y="559.8888888888889" type="line"/>
      <point x="626.3710069444445" y="128.02222222222224" type="line"/>
      <point x="653.309375" y="128.02222222222224" type="line"/>
      <point x="689.4502604166667" y="-457.51048177083334" type="line"/>
    </contour>
  </outline>
</glyph>
<glyph name="epsilon" format="2">
  <advance width="953"/>
  <unicode hex="03B5"/>
  <anchor x="523.6670138888888" y="1017.7777777777778" name="GRKtop"/>
  <outline>
    <contour>
      <point x="470.3735243055555" y="-21.307964409722224" type="qcurve" smooth="yes"/>
      <point x="269.65321180555554" y="-21.307964409722224"/>
      <point x="48.25156249999999" y="125.0482204861111"/>
      <point x="48.25156249999999" y="255.771484375" type="qcurve" smooth="yes"/>
      <point x="48.25156249999999" y="393.9570095486111"/>
      <point x="322.9135416666667" y="573.3366753472222"/>
      <point x="565.3020182291667" y="611.6635199652778" type="qcurve" smooth="yes"/>
      <point x="637.1693142361112" y="622.3333333333334" type="line"/>
      <point x="666.8982421875" y="580.0197048611111" type="line"/>
      <point x="594.1439453125" y="398.8888888888889" type="line"/>
      <point x="552.7057942708334" y="404.6203342013889" type="line" smooth="yes"/>
      <point x="336.23621961805554" y="435.2312282986111"/>
      <point x="86.8656032986111" y="610.8888888888889"/>
      <point x="86.8656032986111" y="739.8951822916666" type="qcurve" smooth="yes"/>
      <point x="86.8656032986111" y="867.0018880208333"/>
      <point x="308.6995442708333" y="1040.642556423611"/>
      <point x="518.0338975694444" y="1040.642556423611" type="qcurve" smooth="yes"/>
      <point x="625.8512803819444" y="1040.642556423611"/>
      <point x="819.5290364583334" y="986.8037760416667"/>
      <point x="863.8407769097223" y="947.9111111111112" type="qcurve"/>
      <point x="861.3036675347223" y="656.6425564236112" type="line"/>
      <point x="746.6604817708334" y="656.6425564236112" type="line"/>
      <point x="710.2831380208333" y="853.6203342013889" type="line"/>
      <point x="689.8468750000001" y="875.2641493055555"/>
      <point x="599.7183810763889" y="901.0425564236111"/>
      <point x="556.5754123263889" y="901.0425564236111" type="qcurve" smooth="yes"/>
      <point x="456.2462890625" y="901.0425564236111"/>
      <point x="352.6282769097222" y="806.8419270833333"/>
      <point x="352.6282769097222" y="725.0888888888888" type="qcurve" smooth="yes"/>
      <point x="352.6282769097222" y="662.0"/>
      <point x="432.93643663194445" y="561.9251519097222"/>
      <point x="581.8758246527777" y="506.9111111111111" type="qcurve"/>
      <point x="571.2104166666667" y="478.6666666666667" type="line"/>
      <point x="459.6081380208334" y="465.3574435763889"/>
      <point x="339.7951605902778" y="366.44444444444446"/>
      <point x="339.7951605902778" y="288.6666666666667" type="qcurve" smooth="yes"/>
      <point x="339.7951605902778" y="208.22222222222223"/>
      <point x="456.69702690972224" y="129.60188802083334"/>
      <point x="543.2965928819444" y="129.60188802083334" type="qcurve" smooth="yes"/>
      <point x="638.7909071180555" y="129.60188802083334"/>
      <point x="797.0453776041667" y="202.36770833333333"/>
      <point x="865.3281684027778" y="276.14756944444446" type="qcurve"/>
      <point x="929.7046875000001" y="199.4173828125" type="line"/>
      <point x="863.61875" y="94.94863281250001"/>
      <point x="642.3330512152778" y="-21.307964409722224"/>
    </contour>
  </outline>
</glyph>
<glyph name="theta" format="2">
  <advance width="1146"/>
  <unicode hex="03B8"/>
  <outline>
    <contour>
      <point x="568.6391276041667" y="-23.523893229166667" type="qcurve" smooth="yes"/>
      <point x="290.1726996527778" y="-21.035004340277776"/>
      <point x="66.18363715277778" y="353.5712890625"/>
      <point x="66.02934027777778" y="754.7907986111111" type="qcurve" smooth="yes"/>
      <point x="65.87504340277778" y="1180.2870442708333"/>
      <point x="319.24943576388887" y="1547.6666666666667"/>
      <point x="581.1254991319445" y="1547.6666666666667" type="qcurve" smooth="yes"/>
      <point x="839.812890625" y="1547.6666666666667"/>
      <point x="1080.2248046875" y="1207.9033637152777"/>
      <point x="1080.3791015625" y="780.5771484375" type="qcurve" smooth="yes"/>
      <point x="1080.5333984375" y="366.16790364583335"/>
      <point x="827.3328125" y="-25.6572265625"/>
    </contour>
    <contour>
      <point x="571.9934244791667" y="99.51299913194444" type="qcurve" smooth="yes"/>
      <point x="691.7722222222222" y="99.51299913194444"/>
      <point x="792.2057291666666" y="365.6136067708333"/>
      <point x="792.2057291666666" y="789.2283203125" type="qcurve" smooth="yes"/>
      <point x="792.2057291666666" y="1151.9117404513888"/>
      <point x="694.8172960069445" y="1413.1884765625"/>
      <point x="576.4156467013889" y="1413.1884765625" type="qcurve" smooth="yes"/>
      <point x="451.6641059027778" y="1413.1884765625"/>
      <point x="354.62556423611113" y="1163.8306423611111"/>
      <point x="354.62556423611113" y="795.1236979166666" type="qcurve" smooth="yes"/>
      <point x="354.62556423611113" y="371.2671006944444"/>
      <point x="451.01462673611115" y="99.51299913194444"/>
    </contour>
    <contour>
      <point x="284.3486328125" y="630.0492838541667" type="line"/>
      <point x="284.3486328125" y="899.6715060763889" type="line"/>
      <point x="572.241015625" y="829.4492838541667" type="line"/>
      <point x="857.86484375" y="899.6715060763889" type="line"/>
      <point x="857.86484375" y="630.0492838541667" type="line"/>
      <point x="572.241015625" y="700.2715060763888" type="line"/>
    </contour>
  </outline>
</glyph>
<glyph name="iota" format="2">
  <advance width="632"/>
  <unicode hex="03B9"/>
  <anchor x="287.61254340277776" y="1017.7777777777778" name="GRKtop"/>
  <outline>
    <contour>
      <point x="325.41336805555557" y="-10.48888888888889" type="line"/>
      <point x="228.3859157986111" y="-10.91174045138889"/>
      <point x="138.36161024305554" y="76.78426649305555"/>
      <point x="139.36161024305554" y="181.97482638888889" type="qcurve" smooth="yes"/>
      <point x="141.36161024305554" y="427.71484375" type="line"/>
      <point x="130.22764756944443" y="995.6438151041667" type="line"/>
      <point x="393.5693576388889" y="1018.4888888888889" type="line"/>
      <point x="431.4138020833334" y="983.6666666666666" type="line"/>
      <point x="415.5077256944445" y="427.71484375" type="line"/>
      <point x="415.86328125" y="238.71740451388888" type="line" smooth="yes"/>
      <point x="415.86328125" y="180.52118055555556"/>
      <point x="463.58276909722224" y="128.91111111111113"/>
      <point x="513.8253255208333" y="128.91111111111113" type="qcurve" smooth="yes"/>
      <point x="591.4930121527779" y="128.91111111111113" type="line"/>
      <point x="591.4930121527779" y="31.288888888888888" type="line"/>
    </contour>
  </outline>
</glyph>
<glyph name="nu" format="2">
  <advance width="1025"/>
  <unicode hex="03BD"/>
  <outline>
    <contour>
      <point x="419.44963107638887" y="-2.9396267361111112" type="line"/>
      <point x="252.60813802083334" y="482.4222222222222" type="line"/>
      <point x="143.31338975694445" y="796.5840711805555" type="line" smooth="yes"/>
      <point x="131.44924045138887" y="828.9364800347222"/>
      <point x="105.51905381944445" y="856.9790364583333"/>
      <point x="72.12660590277777" y="866.2463324652778" type="qcurve" smooth="yes"/>
      <point x="2.215928819444443" y="883.3345920138889" type="line"/>
      <point x="2.215928819444443" y="991.2012586805556" type="line"/>
      <point x="267.23645833333336" y="1025.5568142361112" type="line"/>
      <point x="318.2136067708334" y="1026.6234809027778"/>
      <point x="379.8708333333334" y="968.3511501736111"/>
      <point x="408.73372395833337" y="878.5111111111111" type="qcurve" smooth="yes"/>
      <point x="501.21966145833335" y="556.3333333333334" type="line"/>
      <point x="610.303515625" y="187.34442274305556" type="line"/>
      <point x="577.4840060763889" y="186.9888671875" type="line"/>
      <point x="662.9401692708334" y="557.5555555555555" type="line"/>
      <point x="752.3296657986111" y="999.4209635416667" type="line"/>
      <point x="967.9887803819445" y="1018.4888888888889" type="line"/>
      <point x="1006.1887803819445" y="983.6666666666666" type="line"/>
      <point x="836.2519097222223" y="520.8222222222222" type="line"/>
      <point x="657.0586371527778" y="-2.9396267361111112" type="line"/>
    </contour>
  </outline>
</glyph>
<glyph name="xi" format="2">
  <advance width="896"/>
  <unicode hex="03BE"/>
  <outline>
    <contour>
      <point x="690.1590060763889" y="-313.0" type="line"/>
      <point x="658.9468532986111" y="-113.68070746527778" type="line" smooth="yes"/>
      <point x="650.1284071180555" y="-58.63940972222222"/>
      <point x="617.6007378472223" y="-29.52515190972222"/>
      <point x="570.2007378472223" y="-25.612782118055552" type="qcurve" smooth="yes"/>
      <point x="528.5131076388889" y="-21.767078993055552" type="line" smooth="yes"/>
      <point x="282.57415364583335" y="-0.41089409722222037"/>
      <point x="56.38489583333333" y="204.10210503472223"/>
      <point x="56.38489583333333" y="367.3777777777778" type="qcurve" smooth="yes"/>
      <point x="56.38489583333333" y="577.0337456597223"/>
      <point x="427.7393446180556" y="824.3760850694445"/>
      <point x="711.9468532986111" y="886.9410807291666" type="qcurve" smooth="yes"/>
      <point x="774.9195963541667" y="899.1201171875" type="line"/>
      <point x="806.0707465277778" y="857.1620442708333" type="line"/>
      <point x="742.7824869791667" y="630.9410807291666" type="line"/>
      <point x="708.8573350694445" y="635.9410807291666" type="line" smooth="yes"/>
      <point x="410.5947265625" y="677.9328993055556"/>
      <point x="123.16790364583332" y="854.4064887152778"/>
      <point x="123.16790364583332" y="1015.3949652777778" type="qcurve" smooth="yes"/>
      <point x="123.16790364583332" y="1126.9282986111111"/>
      <point x="253.15909288194445" y="1299.6888888888889"/>
      <point x="379.38044704861113" y="1338.8641493055557" type="qcurve"/>
      <point x="379.6020399305556" y="1320.197482638889" type="line"/>
      <point x="120.50815972222222" y="1315.928927951389" type="line"/>
      <point x="89.05868055555554" y="1346.968967013889" type="line"/>
      <point x="115.87901475694443" y="1532.30859375" type="line"/>
      <point x="863.5445312500001" y="1514.0" type="line"/>
      <point x="863.5445312500001" y="1338.2159288194443" type="line"/>
      <point x="594.61796875" y="1315.551779513889"/>
      <point x="367.9863498263889" y="1165.5645616319443"/>
      <point x="367.9863498263889" y="1030.3207465277778" type="qcurve" smooth="yes"/>
      <point x="367.9863498263889" y="936.2381510416667"/>
      <point x="512.4477430555556" y="809.9817491319444"/>
      <point x="700.2694878472222" y="768.6572265625" type="qcurve"/>
      <point x="684.8873046875" y="722.2744140625" type="line"/>
      <point x="493.5974392361111" y="698.2331163194444"/>
      <point x="335.623046875" y="540.5574435763889"/>
      <point x="335.623046875" y="422.33081597222224" type="qcurve"/>
      <point x="335.623046875" y="308.1010416666667"/>
      <point x="484.91484375000005" y="192.15618489583335"/>
      <point x="631.1313585069445" y="178.90859375000002" type="qcurve" smooth="yes"/>
      <point x="699.4827039930556" y="172.5060763888889" type="line" smooth="yes"/>
      <point x="778.1818576388889" y="165.2584852430556"/>
      <point x="846.6441189236111" y="99.64759114583335"/>
      <point x="847.8917100694445" y="39.090147569444454" type="qcurve"/>
      <point x="797.7374131944445" y="-313.0" type="line"/>
    </contour>
  </outline>
</glyph>
<glyph name="pi" format="2">
  <advance width="1211"/>
  <unicode hex="03C0"/>
  <outline>
    <contour>
      <point x="1145.958962673611" y="795.69140625" type="line"/>
      <point x="30.983637152777774" y="817.3549262152777" type="line"/>
      <point x="30.983637152777774" y="924.7314453125" type="line"/>
      <point x="153.64943576388887" y="997.7930772569445" type="line"/>
      <point x="1135.199001736111" y="1028.171484375" type="line"/>
      <point x="1168.4262586805555" y="999.6203342013889" type="line"/>
    </contour>
    <contour>
      <point x="209.61317274305554" y="0.0" type="line"/>
      <point x="171.7687282986111" y="34.82222222222222" type="line"/>
      <point x="235.78088107638888" y="497.19559461805557" type="line"/>
      <point x="283.01336805555553" y="910.8882595486111" type="line"/>
      <point x="465.99051649305557" y="910.8882595486111" type="line"/>
      <point x="458.7276258680556" y="496.2888888888889" type="line"/>
      <point x="458.37710503472226" y="22.267925347222224" type="line"/>
    </contour>
    <contour>
      <point x="900.1300564236112" y="-10.48888888888889" type="line"/>
      <point x="807.7560546875001" y="-10.91174045138889"/>
      <point x="722.8233506944445" y="80.51004774305555"/>
      <point x="726.3122395833334" y="199.83621961805554" type="qcurve" smooth="yes"/>
      <point x="747.7153862847223" y="910.8882595486111" type="line"/>
      <point x="964.8615017361112" y="910.8882595486111" type="line"/>
      <point x="974.7319444444445" y="250.80731336805553" type="line" smooth="yes"/>
      <point x="975.5103515625001" y="188.62745225694445"/>
      <point x="1022.8533203125" y="131.57022569444445"/>
      <point x="1066.9325737847223" y="130.9054470486111" type="qcurve"/>
      <point x="1139.3696614583334" y="130.9054470486111" type="line"/>
      <point x="1139.3696614583334" y="31.732074652777776" type="line"/>
    </contour>
  </outline>
</glyph>
<glyph name="sigma" format="2">
  <advance width="1193"/>
  <unicode hex="03C3"/>
  <outline>
    <contour>
      <point x="552.0877821180555" y="-21.307964409722224" type="qcurve" smooth="yes"/>
      <point x="318.9477647569445" y="-21.307964409722224"/>
      <point x="54.52452256944444" y="240.56707899305556"/>
      <point x="54.52452256944444" y="460.4381510416667" type="qcurve" smooth="yes"/>
      <point x="54.52452256944444" y="689.8997829861111"/>
      <point x="346.5408420138889" y="984.0331163194445"/>
      <point x="653.7253038194444" y="1003.7911892361111" type="qcurve" smooth="yes"/>
      <point x="1119.5918836805556" y="1030.3874131944444" type="line"/>
      <point x="1152.5975477430557" y="1001.8362630208334" type="line"/>
      <point x="1130.1302517361112" y="797.9073350694445" type="line"/>
      <point x="716.8818793402778" y="805.7251519097222" type="line" smooth="yes"/>
      <point x="515.2963975694445" y="809.1213758680556"/>
      <point x="349.5410807291667" y="621.5282986111112"/>
      <point x="349.89663628472226" y="443.23815104166664" type="qcurve" smooth="yes"/>
      <point x="350.2521918402778" y="281.51048177083334"/>
      <point x="459.286328125" y="99.09014756944444"/>
      <point x="555.3290798611112" y="99.09014756944444" type="qcurve" smooth="yes"/>
      <point x="655.7307291666667" y="99.09014756944444"/>
      <point x="764.3724175347222" y="288.8217881944444"/>
      <point x="764.3724175347222" y="457.00334201388887" type="qcurve" smooth="yes"/>
      <point x="764.3724175347222" y="610.9174045138889"/>
      <point x="687.3684461805556" y="803.8754774305555"/>
      <point x="613.0573350694444" y="849.2121527777778" type="qcurve"/>
      <point x="613.0573350694444" y="906.8788194444444" type="line"/>
      <point x="699.7684461805555" y="906.8788194444444" type="line"/>
      <point x="863.3191623263889" y="840.2157335069444"/>
      <point x="1042.5216796875002" y="608.8507378472223"/>
      <point x="1042.5216796875002" y="453.09223090277777" type="qcurve" smooth="yes"/>
      <point x="1042.5216796875002" y="238.8966362847222"/>
      <point x="778.6888020833334" y="-21.307964409722224"/>
    </contour>
  </outline>
</glyph>
<glyph name="tau" format="2">
  <advance width="949"/>
  <unicode hex="03C4"/>
  <outline>
    <contour>
      <point x="894.0883680555556" y="795.69140625" type="line"/>
      <point x="18.556184895833333" y="817.3549262152777" type="line"/>
      <point x="18.556184895833333" y="924.7314453125" type="line"/>
      <point x="141.22198350694444" y="997.7930772569445" type="line"/>
      <point x="883.3284071180556" y="1028.171484375" type="line"/>
      <point x="916.5556640625" y="999.6203342013889" type="line"/>
    </contour>
    <contour>
      <point x="485.8370442708333" y="-10.48888888888889" type="line"/>
      <point x="387.3697482638889" y="-10.48888888888889"/>
      <point x="298.68695746527777" y="95.60145399305556"/>
      <point x="307.0825520833333" y="228.26410590277777" type="qcurve" smooth="yes"/>
      <point x="348.4965928819445" y="924.6383463541666" type="line"/>
      <point x="569.1391493055556" y="924.6383463541666" type="line"/>
      <point x="571.7626302083333" y="268.13372395833335" type="line" smooth="yes"/>
      <point x="572.118185763889" y="182.85596788194445"/>
      <point x="626.7842230902778" y="128.91111111111113"/>
      <point x="711.078146701389" y="128.91111111111113" type="qcurve" smooth="yes"/>
      <point x="815.0493923611111" y="128.91111111111113" type="line"/>
      <point x="815.0493923611111" y="29.355555555555554" type="line"/>
    </contour>
  </outline>
</glyph>
<glyph name="chi" format="2">
  <advance width="988"/>
  <unicode hex="03C7"/>
  <outline>
    <contour>
      <point x="806.1501953125" y="-490.1333333333333" type="line"/>
      <point x="748.0600477430555" y="-490.1333333333333"/>
      <point x="675.8111979166666" y="-450.57463107638887"/>
      <point x="655.2562717013889" y="-402.2744140625" type="qcurve" smooth="yes"/>
      <point x="429.4384982638889" y="170.51571180555555" type="line"/>
      <point x="180.52322048611111" y="714.4291449652778" type="line" smooth="yes"/>
      <point x="136.66725260416666" y="817.7675130208333"/>
      <point x="84.10772569444444" y="860.0253689236112"/>
      <point x="45.41612413194444" y="869.1333333333333" type="qcurve" smooth="yes"/>
      <point x="-9.28114149305556" y="882.4888888888889" type="line"/>
      <point x="-11.05891927083334" y="990.3555555555556" type="line"/>
      <point x="236.14335937500005" y="1024.7111111111112" type="line"/>
      <point x="296.04565972222224" y="1022.5968532986112"/>
      <point x="362.51232638888894" y="945.1834418402777"/>
      <point x="393.1930338541667" y="863.9339626736112" type="qcurve" smooth="yes"/>
      <point x="586.3045355902779" y="381.9301866319445" type="line"/>
      <point x="888.2149739583334" y="-289.1136284722222" type="line" smooth="yes"/>
      <point x="905.9921223958333" y="-329.8100694444444"/>
      <point x="947.7749348958334" y="-348.0538845486111"/>
      <point x="982.781228298611" y="-349.16184895833334" type="qcurve"/>
      <point x="1038.862131076389" y="-349.16184895833334" type="line"/>
      <point x="1040.2843532986112" y="-449.60377604166666" type="line"/>
    </contour>
    <contour>
      <point x="50.853450520833334" y="-480.0" type="line"/>
      <point x="12.297894965277777" y="-445.17777777777775" type="line"/>
      <point x="244.89804687499998" y="-23.94490017361112" type="line"/>
      <point x="438.4842013888889" y="345.81278211805557" type="line"/>
      <point x="515.2143880208333" y="173.0029079861111" type="line"/>
      <point x="409.81733940972225" y="-110.03190104166669" type="line"/>
      <point x="285.03960503472223" y="-457.7320746527778" type="line"/>
    </contour>
    <contour>
      <point x="580.7095703125" y="202.80794270833331" type="line"/>
      <point x="503.97938368055554" y="375.26226128472223" type="line"/>
      <point x="604.1559027777778" y="648.8763454861112" type="line"/>
      <point x="729.2891927083333" y="996.5765190972222" type="line"/>
      <point x="963.4753472222224" y="1018.8444444444444" type="line"/>
      <point x="1002.0309027777778" y="984.0222222222222" type="line"/>
      <point x="769.4307508680556" y="562.7893446180556" type="line"/>
    </contour>
  </outline>
</glyph>
<glyph name="kaisymbol" format="2">
  <advance width="1148"/>
  <unicode hex="03D7"/>
  <outline>
    <contour>
      <point x="513.3202690972223" y="-531.3333333333334" type="qcurve" smooth="yes"/>
      <point x="309.25466579861114" y="-531.3333333333334"/>
      <point x="24.89034288194444" y="-350.9337673611111"/>
      <point x="-56.727473958333334" y="-211.41427951388889" type="qcurve"/>
      <point x="36.390559895833334" y="-133.4536892361111" type="line"/>
      <point x="98.65785590277778" y="-219.38639322916666"/>
      <point x="330.1173611111111" y="-354.46666666666664"/>
      <point x="496.99908854166665" y="-354.46666666666664" type="qcurve" smooth="yes"/>
      <point x="717.9430772569444" y="-354.46666666666664"/>
      <point x="943.1979817708334" y="-75.40861545138888"/>
      <point x="938.0195746527779" y="130.12703993055555" type="qcurve"/>
      <point x="1129.5034288194445" y="130.12703993055555" type="line"/>
      <point x="1139.5656901041666" y="-164.91323784722223"/>
      <point x="799.7969618055556" y="-531.3333333333334"/>
    </contour>
    <component base="kappa" yOffset="-0.3555555555555557"/>
  </outline>
</glyph>
<glyph name="Dje" format="2">
  <advance width="1593"/>
  <unicode hex="0402"/>
  <guideline x="568.0" y="625.0" angle="90.0" identifier="YDADns81zF"/>
  <outline>
    <contour>
      <point x="1086.0782986111112" y="0.0" type="qcurve"/>
      <point x="1086.0782986111112" y="110.66666666666667" type="line"/>
      <point x="1166.0340494791667" y="123.96121961805557"/>
      <point x="1247.6545789930556" y="282.6610026041667"/>
      <point x="1247.6545789930556" y="430.24047309027776" type="qcurve" smooth="yes"/>
      <point x="1247.6545789930556" y="576.4004340277778"/>
      <point x="1113.0873356508428" y="728.5396267361111"/>
      <point x="975.6720052083333" y="728.5396267361111" type="qcurve" smooth="yes"/>
      <point x="876.7553319587395" y="728.5396267361111"/>
      <point x="704.7346201393988" y="692.9758328876563"/>
      <point x="610.2165147569444" y="660.2004340277778" type="qcurve"/>
      <point x="610.2165147569444" y="795.502734375" type="line"/>
      <point x="706.1781214532267" y="828.8614856815232"/>
      <point x="901.7718522440952" y="873.6197048611111"/>
      <point x="1039.129665798611" y="873.6197048611111" type="qcurve" smooth="yes"/>
      <point x="1274.527905884593" y="873.6197048611111"/>
      <point x="1539.0178819444445" y="652.2614366319444"/>
      <point x="1539.0178819444445" y="437.4234809027778" type="qcurve" smooth="yes"/>
      <point x="1539.0178819444445" y="231.32641059027776"/>
      <point x="1311.2975694444444" y="5.919921875"/>
    </contour>
    <contour>
      <point x="40.0" y="1061.8792534722222" type="line"/>
      <point x="40.0" y="1500.0" type="line"/>
      <point x="1220.7885850694445" y="1500.0" type="line"/>
      <point x="1220.7885850694445" y="1090.5396267361111" type="line"/>
      <point x="1097.9885850694445" y="1090.5396267361111" type="line"/>
      <point x="1061.2108072916667" y="1367.7777777777778" type="line"/>
      <point x="770.0991102430556" y="1367.7777777777778" type="line"/>
      <point x="754.9911458333333" y="1349.2" type="line"/>
      <point x="753.346701388889" y="754.0" type="line"/>
      <point x="754.9911458333333" y="143.7740017361111" type="line"/>
      <point x="929.1978298611111" y="108.55240885416667" type="line"/>
      <point x="929.1978298611111" y="0.0" type="line"/>
      <point x="278.2511284722222" y="0.0" type="line"/>
      <point x="278.2511284722222" y="108.55240885416667" type="line"/>
      <point x="465.08632812499997" y="143.7740017361111" type="line"/>
      <point x="467.086328125" y="754.0" type="line"/>
      <point x="465.08632812499997" y="1349.2" type="line"/>
      <point x="452.1942925347222" y="1367.7777777777778" type="line"/>
      <point x="199.22222222222223" y="1367.7777777777778" type="line"/>
      <point x="162.44444444444446" y="1061.8792534722222" type="line"/>
    </contour>
  </outline>
</glyph>
<glyph name="Ieukran" format="2">
  <advance width="1291"/>
  <unicode hex="0404"/>
  <guideline x="211.0" y="787.0" angle="90.0" identifier="mFTeE97JTj"/>
  <outline>
    <contour>
      <point x="223.1633029513889" y="709.7809244791666" type="line"/>
      <point x="223.1633029513889" y="820.0031467013889" type="line"/>
      <point x="781.5533420138889" y="830.0031467013889" type="line"/>
      <point x="809.4803819444445" y="983.2475911458333" type="line"/>
      <point x="930.3007161458333" y="983.2475911458333" type="line"/>
      <point x="930.3007161458333" y="544.0475911458333" type="line"/>
      <point x="809.4803819444445" y="544.0475911458333" type="line"/>
      <point x="781.5533420138889" y="699.7809244791666" type="line"/>
    </contour>
    <contour>
      <point x="67.90104166666667" y="696.3289279513889" type="qcurve" smooth="yes"/>
      <point x="67.90104166666667" y="1057.9148871527777"/>
      <point x="431.8364149305556" y="1517.462890625"/>
      <point x="732.9755642361112" y="1517.462890625" type="qcurve" smooth="yes"/>
      <point x="857.1610894097222" y="1517.462890625"/>
      <point x="1010.7329644097222" y="1448.3125651041667"/>
      <point x="1053.2486762152778" y="1408.3532335069444" type="qcurve"/>
      <point x="1078.6176432291666" y="1499.5771484375" type="line"/>
      <point x="1192.3268663194444" y="1499.5771484375" type="line"/>
      <point x="1192.3268663194444" y="1033.8660373263888" type="line"/>
      <point x="1059.3960503472222" y="1033.8660373263888" type="line"/>
      <point x="1030.5096788194444" y="1179.1744357638888" type="line" smooth="yes"/>
      <point x="1010.5629340277778" y="1277.1746310763888"/>
      <point x="888.3434678819444" y="1377.0184461805557"/>
      <point x="775.8353081597222" y="1377.0184461805557" type="qcurve" smooth="yes"/>
      <point x="587.8823884983934" y="1377.0184461805557"/>
      <point x="377.3379340277778" y="1059.8077473958333"/>
      <point x="377.7811197916667" y="734.92578125" type="qcurve" smooth="yes"/>
      <point x="378.2243055555556" y="413.53541666666666"/>
      <point x="596.458060599645" y="132.26792534722222"/>
      <point x="784.6065972222223" y="132.26792534722222" type="qcurve" smooth="yes"/>
      <point x="923.0698784722222" y="132.26792534722222"/>
      <point x="1104.667947048611" y="240.58237847222222"/>
      <point x="1153.8985460069443" y="330.4978949652778" type="qcurve"/>
      <point x="1255.0972873263888" y="245.86477864583333" type="line"/>
      <point x="1184.1560112847221" y="121.65703125"/>
      <point x="919.2862413194443" y="-30.624739583333334"/>
      <point x="726.3457899305556" y="-30.624739583333334" type="qcurve" smooth="yes"/>
      <point x="432.89678819444447" y="-30.624739583333334"/>
      <point x="67.90104166666667" y="365.16644965277777"/>
    </contour>
  </outline>
</glyph>
<glyph name="Dzhe" format="2">
  <advance width="1558"/>
  <unicode hex="040F"/>
  <outline>
    <contour>
      <point x="713.2072265625" y="-338.0" type="line"/>
      <point x="655.6548177083333" y="0.0" type="line"/>
      <point x="48.32660590277777" y="0.0" type="line"/>
      <point x="48.32660590277777" y="119.02725694444445" type="line"/>
      <point x="224.5173611111111" y="153.2488498263889" type="line"/>
      <point x="226.5173611111111" y="743.7840711805555" type="line"/>
      <point x="224.5173611111111" y="1353.1440321180555" type="line"/>
      <point x="48.32660590277777" y="1387.9224392361111" type="line"/>
      <point x="48.32660590277777" y="1500.0" type="line"/>
      <point x="685.6733072916667" y="1500.0" type="line"/>
      <point x="685.6733072916667" y="1387.9224392361111" type="line"/>
      <point x="514.4221788194445" y="1353.1440321180555" type="line"/>
      <point x="512.4221788194445" y="743.7840711805555" type="line"/>
      <point x="514.4221788194445" y="153.20125868055555" type="line"/>
      <point x="550.9429253472223" y="130.00629340277777" type="line"/>
      <point x="1006.7922743055556" y="130.00629340277777" type="line"/>
      <point x="1043.3130208333334" y="153.20125868055555" type="line"/>
      <point x="1045.3130208333334" y="743.7840711805555" type="line"/>
      <point x="1043.3130208333334" y="1353.1440321180555" type="line"/>
      <point x="872.0618923611112" y="1387.9224392361111" type="line"/>
      <point x="872.0618923611112" y="1500.0" type="line"/>
      <point x="1509.4085937500001" y="1500.0" type="line"/>
      <point x="1509.4085937500001" y="1387.9224392361111" type="line"/>
      <point x="1333.2178385416667" y="1353.1440321180555" type="line"/>
      <point x="1331.2178385416667" y="743.7840711805555" type="line"/>
      <point x="1333.2178385416667" y="153.2488498263889" type="line"/>
      <point x="1509.4085937500001" y="119.02725694444445" type="line"/>
      <point x="1509.4085937500001" y="0.0" type="line"/>
      <point x="902.0803819444445" y="0.0" type="line"/>
      <point x="844.5279730902778" y="-338.0" type="line"/>
    </contour>
  </outline>
</glyph>
<glyph name="Ghe" format="2">
  <advance width="1117"/>
  <unicode hex="0413"/>
  <outline>
    <contour>
      <point x="48.32660590277777" y="0.0" type="line"/>
      <point x="48.32660590277777" y="108.97526041666667" type="line"/>
      <point x="224.5173611111111" y="144.41844618055555" type="line"/>
      <point x="226.5173611111111" y="755.3295572916667" type="line"/>
      <point x="224.5173611111111" y="1343.8704427083333" type="line"/>
      <point x="48.32660590277777" y="1377.8704427083333" type="line"/>
      <point x="48.32660590277777" y="1500.0" type="line"/>
      <point x="1077.6064019097223" y="1500.0" type="line"/>
      <point x="1077.6064019097223" y="1115.6507378472222" type="line"/>
      <point x="952.1638454861111" y="1115.6507378472222" type="line"/>
      <point x="919.9701388888889" y="1367.7777777777778" type="line"/>
      <point x="549.5054036458333" y="1367.7777777777778" type="line"/>
      <point x="514.4221788194445" y="1346.3555555555556" type="line"/>
      <point x="514.5555121527779" y="760.0" type="line"/>
      <point x="516.5555121527779" y="142.88763020833335" type="line"/>
      <point x="699.0231987847222" y="109.33081597222223" type="line"/>
      <point x="699.0231987847222" y="0.0" type="line"/>
    </contour>
  </outline>
</glyph>
<glyph name="Zhe" format="2">
  <advance width="2091"/>
  <unicode hex="0416"/>
  <guideline x="480.0" y="796.0" angle="90.0" identifier="vQLQteAbfW"/>
  <outline>
    <contour>
      <point x="736.3366319444444" y="0.0" type="line"/>
      <point x="736.3366319444444" y="108.97526041666667" type="line"/>
      <point x="908.2988715277778" y="143.97526041666666" type="line"/>
      <point x="910.2988715277778" y="754.0" type="line"/>
      <point x="908.2988715277778" y="1343.8704427083333" type="line"/>
      <point x="738.5525607638889" y="1377.8704427083333" type="line"/>
      <point x="738.5525607638889" y="1500.0" type="line"/>
      <point x="1366.8833333333334" y="1500.0" type="line"/>
      <point x="1366.8833333333334" y="1377.8704427083333" type="line"/>
      <point x="1197.8481336805555" y="1343.8704427083333" type="line"/>
      <point x="1195.8481336805555" y="754.0" type="line"/>
      <point x="1197.8481336805555" y="143.97526041666666" type="line"/>
      <point x="1351.321484375" y="108.97526041666667" type="line"/>
      <point x="1351.321484375" y="0.0" type="line"/>
    </contour>
    <contour>
      <point x="1053.0735026041666" y="709.7345920138889" type="line"/>
      <point x="1053.0735026041666" y="850.7098524305555" type="line"/>
      <point x="1329.0040798611112" y="845.9987413194444" type="line"/>
      <point x="1680.616427951389" y="1341.4792534722221" type="line"/>
      <point x="1554.3260850694446" y="1378.2259982638889" type="line"/>
      <point x="1554.3260850694446" y="1500.0" type="line"/>
      <point x="2017.2180772569445" y="1500.0" type="line"/>
      <point x="2017.2180772569445" y="1378.2259982638889" type="line"/>
      <point x="1861.273654513889" y="1341.4792534722221" type="line"/>
      <point x="1440.9252604166668" y="772.0132161458333" type="line"/>
      <point x="1386.7982204861112" y="709.7345920138889" type="line"/>
    </contour>
    <contour>
      <point x="1314.2816406250001" y="736.6905815972223" type="line"/>
      <point x="1509.924826388889" y="944.6765407986111" type="line"/>
      <point x="1975.037152777778" y="143.55240885416666" type="line"/>
      <point x="2095.0964626736113" y="108.97526041666667" type="line"/>
      <point x="2095.0964626736113" y="0.0" type="line"/>
      <point x="1527.524392361111" y="0.0" type="line"/>
      <point x="1527.524392361111" y="108.97526041666667" type="line"/>
      <point x="1652.9811848958334" y="143.55240885416666" type="line"/>
    </contour>
    <contour>
      <point x="1053.0735026041666" y="709.7345920138889" type="line"/>
      <point x="700.8598958333333" y="709.7345920138889" type="line"/>
      <point x="630.9494140625" y="776.6645833333333" type="line"/>
      <point x="213.13812934027777" y="1341.4792534722221" type="line"/>
      <point x="63.64192708333334" y="1378.2259982638889" type="line"/>
      <point x="63.64192708333334" y="1500.0" type="line"/>
      <point x="533.33203125" y="1500.0" type="line"/>
      <point x="533.33203125" y="1378.2259982638889" type="line"/>
      <point x="407.0416883680556" y="1341.4792534722221" type="line"/>
      <point x="758.6540364583334" y="845.9987413194444" type="line"/>
      <point x="1053.0735026041666" y="850.7098524305555" type="line"/>
    </contour>
    <contour>
      <point x="773.3764756944445" y="736.6905815972223" type="line"/>
      <point x="434.67693142361117" y="143.55240885416666" type="line"/>
      <point x="560.1337239583333" y="108.97526041666667" type="line"/>
      <point x="560.1337239583333" y="0.0" type="line"/>
      <point x="-3.8827907986111043" y="0.0" type="line"/>
      <point x="-3.8827907986111043" y="108.97526041666667" type="line"/>
      <point x="126.91236979166666" y="143.55240885416666" type="line"/>
      <point x="592.0246961805556" y="944.6765407986111" type="line"/>
    </contour>
  </outline>
</glyph>
<glyph name="Ka" format="2">
  <advance width="1426"/>
  <unicode hex="041A"/>
  <guideline x="480.0" y="796.0" angle="90.0" identifier="LxfLwWU0sJ"/>
  <outline>
    <contour>
      <point x="48.32660590277777" y="0.0" type="line"/>
      <point x="48.32660590277777" y="108.97526041666667" type="line"/>
      <point x="224.5173611111111" y="143.97526041666666" type="line"/>
      <point x="226.5173611111111" y="754.0" type="line"/>
      <point x="224.5173611111111" y="1343.8704427083333" type="line"/>
      <point x="48.32660590277777" y="1377.8704427083333" type="line"/>
      <point x="48.32660590277777" y="1500.0" type="line"/>
      <point x="683.1018229166667" y="1500.0" type="line"/>
      <point x="683.1018229166667" y="1377.8704427083333" type="line"/>
      <point x="514.0666232638889" y="1343.8704427083333" type="line"/>
      <point x="512.0666232638889" y="754.0" type="line"/>
      <point x="514.0666232638889" y="143.97526041666666" type="line"/>
      <point x="674.6510850694444" y="108.97526041666667" type="line"/>
      <point x="674.6510850694444" y="0.0" type="line"/>
    </contour>
    <contour>
      <point x="369.2919921875" y="709.7345920138889" type="line"/>
      <point x="369.2919921875" y="850.7098524305555" type="line"/>
      <point x="645.578125" y="845.9987413194444" type="line"/>
      <point x="1015.844552951389" y="1341.4792534722221" type="line"/>
      <point x="889.5542100694445" y="1378.2259982638889" type="line"/>
      <point x="889.5542100694445" y="1500.0" type="line"/>
      <point x="1352.4462022569444" y="1500.0" type="line"/>
      <point x="1352.4462022569444" y="1378.2259982638889" type="line"/>
      <point x="1196.501779513889" y="1341.4792534722221" type="line"/>
      <point x="772.2991102430556" y="795.2700520833333" type="line"/>
      <point x="703.3722656250001" y="709.7345920138889" type="line"/>
    </contour>
    <contour>
      <point x="630.8556857638889" y="736.6905815972223" type="line"/>
      <point x="826.4988715277779" y="944.6765407986111" type="line"/>
      <point x="1310.2652777777778" y="143.55240885416666" type="line"/>
      <point x="1430.3245876736112" y="108.97526041666667" type="line"/>
      <point x="1430.3245876736112" y="0.0" type="line"/>
      <point x="862.7525173611111" y="0.0" type="line"/>
      <point x="862.7525173611111" y="108.97526041666667" type="line"/>
      <point x="988.2093098958333" y="143.55240885416666" type="line"/>
    </contour>
  </outline>
</glyph>
<glyph name="El" format="2">
  <advance width="1469"/>
  <unicode hex="041B"/>
  <outline>
    <contour>
      <point x="330.1544487847222" y="776.4090060763889" type="qcurve" smooth="yes"/>
      <point x="361.4930121527778" y="1343.8704427083333" type="line"/>
      <point x="185.30225694444445" y="1377.8704427083333" type="line"/>
      <point x="185.30225694444445" y="1500.0" type="line"/>
      <point x="1417.8019097222223" y="1500.0" type="line"/>
      <point x="1417.8019097222223" y="1377.8704427083333" type="line"/>
      <point x="1241.611154513889" y="1343.8704427083333" type="line"/>
      <point x="1239.611154513889" y="754.0" type="line"/>
      <point x="1241.611154513889" y="143.97526041666666" type="line"/>
      <point x="1417.8019097222223" y="108.97526041666667" type="line"/>
      <point x="1417.8019097222223" y="0.0" type="line"/>
      <point x="775.5155815972222" y="0.0" type="line"/>
      <point x="775.5155815972222" y="108.97526041666667" type="line"/>
      <point x="951.7063368055556" y="143.97526041666666" type="line"/>
      <point x="953.7063368055556" y="754.0" type="line"/>
      <point x="951.7063368055556" y="1344.5828125" type="line"/>
      <point x="915.1855902777777" y="1367.7777777777778" type="line"/>
      <point x="566.4137586805556" y="1367.7777777777778" type="line"/>
      <point x="529.8930121527778" y="1343.737109375" type="line"/>
      <point x="498.55444878472224" y="767.6928602430555" type="line" smooth="yes"/>
      <point x="475.11634713445335" y="351.84303259731774"/>
      <point x="334.0720512915822" y="-19.844444444444445"/>
      <point x="139.07630208333333" y="-19.844444444444445" type="qcurve" smooth="yes"/>
      <point x="108.32074652777777" y="-19.844444444444445"/>
      <point x="66.98741319444444" y="-11.066666666666666"/>
      <point x="37.98741319444444" y="0.0" type="qcurve"/>
      <point x="37.98741319444444" y="231.0" type="line"/>
      <point x="61.98741319444444" y="223.0"/>
      <point x="95.84652777777778" y="218.0"/>
      <point x="118.33604600694446" y="218.0" type="qcurve" smooth="yes"/>
      <point x="231.99535590277776" y="218.0"/>
      <point x="314.5855789461689" y="504.2813947009511"/>
    </contour>
  </outline>
</glyph>
